{"glyphs":{"0":{"ha":950,"x_min":122,"x_max":828,"o":"m 433 1 q 198 77 274 1 q 122 313 122 153 l 122 633 q 198 869 122 794 q 433 943 274 945 l 517 943 q 752 868 676 943 q 828 632 828 792 l 828 313 q 752 77 828 153 q 517 1 676 1 l 433 1 m 433 118 l 517 118 q 633 136 591 118 q 693 197 676 154 q 711 313 711 239 l 711 632 q 693 749 711 706 q 633 809 676 791 q 517 826 591 826 l 433 826 q 317 811 360 828 q 257 751 275 794 q 239 633 239 708 l 239 313 q 257 197 239 239 q 317 136 274 154 q 433 118 359 118 m 458 404 q 403 460 403 404 l 403 494 q 458 549 403 549 l 492 549 q 544 494 544 549 l 544 460 q 492 404 544 404 l 458 404 z "},"1":{"ha":540,"x_min":51,"x_max":401,"o":"m 343 0 q 285 58 285 0 l 285 775 l 317 797 l 164 654 q 127 634 147 638 q 89 650 108 631 q 93 729 51 688 l 279 913 q 351 942 308 942 q 401 883 401 942 l 401 58 q 343 0 401 0 z "},"2":{"ha":799,"x_min":61,"x_max":724,"o":"m 654 0 l 135 0 q 75 58 75 0 q 105 217 75 151 q 180 328 134 283 q 278 405 226 374 q 375 463 331 437 q 504 538 452 506 q 581 603 556 570 q 607 685 607 637 q 577 796 607 767 q 467 825 548 825 l 318 825 q 222 808 253 825 q 182 743 190 790 q 163 701 177 715 q 121 686 149 686 q 76 702 92 686 q 64 747 61 717 q 141 893 78 845 q 318 942 203 942 l 467 942 q 660 878 597 942 q 724 685 724 815 q 683 545 724 601 q 575 447 642 490 q 432 361 508 404 q 327 297 376 329 q 242 223 277 265 q 196 117 207 181 l 654 117 q 713 58 713 117 q 654 0 713 0 z "},"3":{"ha":908,"x_min":86,"x_max":786,"o":"m 357 0 q 169 51 235 0 q 89 208 103 102 q 101 253 86 238 q 146 269 117 269 q 206 211 199 269 q 249 137 215 157 q 357 117 283 117 l 515 117 q 637 149 605 117 q 669 269 669 181 q 637 390 669 357 q 515 422 605 422 l 408 422 q 350 481 350 422 q 408 539 350 539 l 568 539 q 630 578 612 539 q 647 685 647 617 q 618 796 647 767 q 507 825 588 825 l 372 825 q 276 808 307 825 q 236 743 244 790 q 175 686 228 686 q 131 702 146 686 q 119 747 115 717 q 196 893 133 845 q 372 942 259 942 l 507 942 q 701 878 638 942 q 764 685 764 815 q 692 503 764 556 q 763 414 740 472 q 786 269 786 356 q 720 66 786 132 q 515 0 654 0 l 357 0 z "},"4":{"ha":865,"x_min":61,"x_max":804,"o":"m 607 0 q 549 58 549 0 l 550 806 l 596 839 l 185 282 l 175 311 l 746 314 q 789 297 774 314 q 804 256 804 281 q 746 197 804 197 l 119 197 q 61 256 61 197 q 85 317 61 283 l 521 906 q 558 936 539 930 q 603 942 577 942 q 667 883 667 942 l 665 58 q 607 0 665 0 z "},"5":{"ha":928,"x_min":119,"x_max":806,"o":"m 390 0 q 202 51 269 0 q 122 208 136 102 q 135 253 119 238 q 179 269 150 269 q 239 213 233 269 q 283 138 249 158 q 390 117 317 117 l 535 117 q 657 150 624 117 q 689 271 689 183 l 689 367 q 656 489 689 456 q 535 521 624 521 l 432 521 q 283 496 329 521 q 245 477 263 483 q 206 478 228 471 l 192 482 q 143 547 143 496 l 143 883 q 201 942 143 942 l 747 942 q 806 883 806 942 q 747 825 806 825 l 260 825 l 260 613 q 432 638 331 638 l 535 638 q 739 571 672 638 q 806 367 806 504 l 806 271 q 739 67 806 133 q 535 0 672 0 l 390 0 z "},"6":{"ha":931,"x_min":122,"x_max":808,"o":"m 393 0 q 189 66 255 0 q 122 269 122 132 l 122 685 q 186 878 122 815 q 379 942 249 942 l 551 942 q 728 893 665 942 q 804 747 791 845 q 793 702 808 717 q 749 686 778 686 q 688 743 696 686 q 648 808 679 790 q 551 825 617 825 l 379 825 q 268 795 297 825 q 239 685 239 766 l 239 569 q 393 635 293 635 l 538 635 q 742 568 675 635 q 808 364 808 501 l 808 271 q 742 66 808 133 q 538 0 675 0 l 393 0 m 393 117 l 538 117 q 659 150 627 117 q 692 271 692 183 l 692 364 q 659 486 692 453 q 538 518 626 518 l 393 518 q 271 485 303 518 q 239 365 239 453 l 239 269 q 271 149 239 181 q 393 117 303 117 z "},"7":{"ha":738,"x_min":61,"x_max":676,"o":"m 272 0 q 215 61 213 0 q 229 243 217 168 q 265 373 241 319 q 329 470 290 428 q 425 551 368 512 q 495 623 467 584 q 539 711 523 662 q 558 825 554 761 l 119 825 q 61 883 61 825 q 119 942 61 942 l 618 942 q 676 883 676 942 q 657 706 676 784 q 598 567 638 628 q 493 457 557 506 q 417 392 447 425 q 368 316 386 359 q 342 211 350 272 q 332 61 333 149 q 272 0 330 0 z "},"8":{"ha":944,"x_min":122,"x_max":822,"o":"m 706 489 q 822 269 822 424 q 756 66 822 132 q 551 0 690 0 l 393 0 q 189 66 255 0 q 122 269 122 132 q 243 492 122 428 q 151 689 151 560 q 215 880 151 817 q 408 942 278 942 l 543 942 q 737 880 674 942 q 800 689 800 817 q 706 489 800 555 m 408 825 q 297 796 326 825 q 268 689 268 767 q 295 570 268 601 q 386 539 323 539 l 544 538 q 634 555 604 538 q 674 607 664 573 q 683 689 683 640 q 655 796 683 767 q 543 825 626 825 l 408 825 m 551 117 q 673 149 641 117 q 706 269 706 181 q 673 390 706 358 q 551 422 641 422 l 393 422 q 271 390 303 422 q 239 269 239 358 q 271 149 239 181 q 393 117 303 117 l 551 117 z "},"9":{"ha":931,"x_min":122,"x_max":808,"o":"m 538 942 q 742 876 676 942 q 808 672 808 810 l 808 257 q 745 63 808 126 q 551 0 681 0 l 379 0 q 202 48 265 0 q 126 194 140 97 q 138 240 122 224 q 182 256 153 256 q 243 199 235 256 q 282 134 251 151 q 379 117 313 117 l 551 117 q 663 146 633 117 q 692 257 692 176 l 692 372 q 538 307 638 307 l 393 307 q 189 374 256 307 q 122 578 122 440 l 122 671 q 189 875 122 809 q 393 942 256 942 l 538 942 m 538 825 l 393 825 q 271 792 303 825 q 239 671 239 759 l 239 578 q 272 456 239 488 q 393 424 304 424 l 538 424 q 659 456 627 424 q 692 576 692 489 l 692 672 q 659 793 692 760 q 538 825 627 825 z "},"A":{"ha":925,"x_min":44,"x_max":885,"o":"m 100 6 q 67 82 44 27 l 397 896 q 463 942 418 942 l 465 942 q 526 896 510 940 l 863 82 q 831 6 885 27 q 754 38 776 -16 l 679 219 l 247 219 l 175 38 q 100 6 153 -17 m 292 336 l 631 336 l 458 757 l 292 336 z "},"Á":{"ha":925,"x_min":44,"x_max":885,"o":"m 100 6 q 67 82 44 27 l 397 896 q 463 942 418 942 l 465 942 q 526 896 510 940 l 863 82 q 831 6 885 27 q 754 38 776 -16 l 679 219 l 247 219 l 175 38 q 100 6 153 -17 m 292 336 l 631 336 l 458 757 l 292 336 z "},"Ă":{"ha":925,"x_min":44,"x_max":885,"o":"m 100 6 q 67 82 44 27 l 397 896 q 463 942 418 942 l 465 942 q 526 896 510 940 l 863 82 q 831 6 885 27 q 754 38 776 -16 l 679 219 l 247 219 l 175 38 q 100 6 153 -17 m 292 336 l 631 336 l 458 757 l 292 336 z "},"Ắ":{"ha":925,"x_min":44,"x_max":885,"o":"m 100 6 q 67 82 44 27 l 397 896 q 463 942 418 942 l 465 942 q 526 896 510 940 l 863 82 q 831 6 885 27 q 754 38 776 -16 l 679 219 l 247 219 l 175 38 q 100 6 153 -17 m 292 336 l 631 336 l 458 757 l 292 336 z "},"Ặ":{"ha":925,"x_min":44,"x_max":885,"o":"m 100 6 q 67 82 44 27 l 397 896 q 463 942 418 942 l 465 942 q 526 896 510 940 l 863 82 q 831 6 885 27 q 754 38 776 -16 l 679 219 l 247 219 l 175 38 q 100 6 153 -17 m 292 336 l 631 336 l 458 757 l 292 336 z "},"Ằ":{"ha":925,"x_min":44,"x_max":885,"o":"m 100 6 q 67 82 44 27 l 397 896 q 463 942 418 942 l 465 942 q 526 896 510 940 l 863 82 q 831 6 885 27 q 754 38 776 -16 l 679 219 l 247 219 l 175 38 q 100 6 153 -17 m 292 336 l 631 336 l 458 757 l 292 336 z "},"Ẳ":{"ha":925,"x_min":44,"x_max":885,"o":"m 100 6 q 67 82 44 27 l 397 896 q 463 942 418 942 l 465 942 q 526 896 510 940 l 863 82 q 831 6 885 27 q 754 38 776 -16 l 679 219 l 247 219 l 175 38 q 100 6 153 -17 m 292 336 l 631 336 l 458 757 l 292 336 z "},"Ẵ":{"ha":925,"x_min":44,"x_max":885,"o":"m 100 6 q 67 82 44 27 l 397 896 q 463 942 418 942 l 465 942 q 526 896 510 940 l 863 82 q 831 6 885 27 q 754 38 776 -16 l 679 219 l 247 219 l 175 38 q 100 6 153 -17 m 292 336 l 631 336 l 458 757 l 292 336 z "},"Â":{"ha":925,"x_min":44,"x_max":885,"o":"m 100 6 q 67 82 44 27 l 397 896 q 463 942 418 942 l 465 942 q 526 896 510 940 l 863 82 q 831 6 885 27 q 754 38 776 -16 l 679 219 l 247 219 l 175 38 q 100 6 153 -17 m 292 336 l 631 336 l 458 757 l 292 336 m 296 999 q 259 1014 274 999 q 243 1051 243 1030 q 268 1097 243 1081 l 396 1203 q 461 1228 425 1228 l 465 1228 q 531 1203 501 1228 l 660 1097 q 685 1051 685 1080 q 669 1014 685 1030 q 632 999 653 999 q 593 1015 610 999 l 464 1122 l 463 1122 l 335 1015 q 296 999 318 999 z "},"Ấ":{"ha":925,"x_min":44,"x_max":885,"o":"m 100 6 q 67 82 44 27 l 397 896 q 463 942 418 942 l 465 942 q 526 896 510 940 l 863 82 q 831 6 885 27 q 754 38 776 -16 l 679 219 l 247 219 l 175 38 q 100 6 153 -17 m 292 336 l 631 336 l 458 757 l 292 336 m 649 1144 q 611 1163 630 1144 q 592 1199 592 1181 q 608 1236 592 1215 l 671 1310 q 711 1331 692 1331 q 749 1313 730 1331 q 768 1276 768 1294 q 764 1258 768 1266 q 751 1239 759 1249 l 688 1165 q 649 1144 670 1144 m 294 999 q 257 1014 273 999 q 242 1051 242 1030 q 267 1097 242 1081 l 394 1203 q 460 1228 424 1228 l 464 1228 q 529 1203 500 1228 l 658 1097 q 683 1051 683 1080 q 667 1014 683 1030 q 631 999 651 999 q 592 1015 608 999 l 463 1122 l 461 1122 l 333 1015 q 294 999 317 999 z "},"Ậ":{"ha":925,"x_min":44,"x_max":885,"o":"m 100 6 q 67 82 44 27 l 397 896 q 463 942 418 942 l 465 942 q 526 896 510 940 l 863 82 q 831 6 885 27 q 754 38 776 -16 l 679 219 l 247 219 l 175 38 q 100 6 153 -17 m 292 336 l 631 336 l 458 757 l 292 336 m 296 999 q 259 1014 274 999 q 243 1051 243 1030 q 268 1097 243 1081 l 396 1203 q 461 1228 425 1228 l 465 1228 q 531 1203 501 1228 l 660 1097 q 685 1051 685 1080 q 669 1014 685 1030 q 632 999 653 999 q 593 1015 610 999 l 464 1122 l 463 1122 l 335 1015 q 296 999 318 999 z "},"Ầ":{"ha":925,"x_min":44,"x_max":885,"o":"m 100 6 q 67 82 44 27 l 397 896 q 463 942 418 942 l 465 942 q 526 896 510 940 l 863 82 q 831 6 885 27 q 754 38 776 -16 l 679 219 l 247 219 l 175 38 q 100 6 153 -17 m 292 336 l 631 336 l 458 757 l 292 336 m 251 1144 q 211 1165 230 1144 l 149 1239 q 132 1276 132 1253 q 151 1313 132 1294 q 189 1331 170 1331 q 228 1310 209 1331 l 290 1236 q 307 1199 307 1217 q 288 1163 307 1181 q 251 1144 269 1144 m 296 999 q 259 1014 274 999 q 243 1051 243 1030 q 268 1097 243 1081 l 396 1203 q 461 1228 425 1228 l 465 1228 q 531 1203 501 1228 l 660 1097 q 685 1051 685 1080 q 669 1014 685 1030 q 632 999 653 999 q 593 1015 610 999 l 464 1122 l 463 1122 l 335 1015 q 296 999 318 999 z "},"Ẩ":{"ha":925,"x_min":44,"x_max":885,"o":"m 100 6 q 67 82 44 27 l 397 896 q 463 942 418 942 l 465 942 q 526 896 510 940 l 863 82 q 831 6 885 27 q 754 38 776 -16 l 679 219 l 247 219 l 175 38 q 100 6 153 -17 m 292 336 l 631 336 l 458 757 l 292 336 z "},"Ẫ":{"ha":925,"x_min":44,"x_max":885,"o":"m 100 6 q 67 82 44 27 l 397 896 q 463 942 418 942 l 465 942 q 526 896 510 940 l 863 82 q 831 6 885 27 q 754 38 776 -16 l 679 219 l 247 219 l 175 38 q 100 6 153 -17 m 292 336 l 631 336 l 458 757 l 292 336 z "},"Ȁ":{"ha":925,"x_min":44,"x_max":885,"o":"m 100 6 q 67 82 44 27 l 397 896 q 463 942 418 942 l 465 942 q 526 896 510 940 l 863 82 q 831 6 885 27 q 754 38 776 -16 l 679 219 l 247 219 l 175 38 q 100 6 153 -17 m 292 336 l 631 336 l 458 757 l 292 336 z "},"Ä":{"ha":925,"x_min":44,"x_max":885,"o":"m 100 6 q 67 82 44 27 l 397 896 q 463 942 418 942 l 465 942 q 526 896 510 940 l 863 82 q 831 6 885 27 q 754 38 776 -16 l 679 219 l 247 219 l 175 38 q 100 6 153 -17 m 292 336 l 631 336 l 458 757 l 292 336 z "},"Ạ":{"ha":925,"x_min":44,"x_max":885,"o":"m 100 6 q 67 82 44 27 l 397 896 q 463 942 418 942 l 465 942 q 526 896 510 940 l 863 82 q 831 6 885 27 q 754 38 776 -16 l 679 219 l 247 219 l 175 38 q 100 6 153 -17 m 292 336 l 631 336 l 458 757 l 292 336 z "},"À":{"ha":925,"x_min":44,"x_max":885,"o":"m 100 6 q 67 82 44 27 l 397 896 q 463 942 418 942 l 465 942 q 526 896 510 940 l 863 82 q 831 6 885 27 q 754 38 776 -16 l 679 219 l 247 219 l 175 38 q 100 6 153 -17 m 292 336 l 631 336 l 458 757 l 292 336 z "},"Ả":{"ha":925,"x_min":44,"x_max":885,"o":"m 100 6 q 67 82 44 27 l 397 896 q 463 942 418 942 l 465 942 q 526 896 510 940 l 863 82 q 831 6 885 27 q 754 38 776 -16 l 679 219 l 247 219 l 175 38 q 100 6 153 -17 m 292 336 l 631 336 l 458 757 l 292 336 m 464 1015 q 434 1023 442 1015 q 425 1053 425 1031 q 449 1120 425 1098 q 492 1153 473 1142 q 513 1168 508 1163 q 518 1181 518 1172 q 509 1220 518 1211 q 471 1229 500 1229 q 433 1220 442 1229 q 424 1181 424 1211 q 415 1150 424 1159 q 385 1142 407 1142 q 355 1150 363 1142 q 346 1181 346 1159 q 471 1306 346 1306 q 596 1181 596 1306 q 573 1117 596 1138 q 532 1085 550 1095 q 508 1068 513 1074 q 503 1053 503 1063 q 494 1023 503 1031 q 464 1015 486 1015 z "},"Ȃ":{"ha":925,"x_min":44,"x_max":885,"o":"m 100 6 q 67 82 44 27 l 397 896 q 463 942 418 942 l 465 942 q 526 896 510 940 l 863 82 q 831 6 885 27 q 754 38 776 -16 l 679 219 l 247 219 l 175 38 q 100 6 153 -17 m 292 336 l 631 336 l 458 757 l 292 336 z "},"Ā":{"ha":925,"x_min":44,"x_max":885,"o":"m 100 6 q 67 82 44 27 l 397 896 q 463 942 418 942 l 465 942 q 526 896 510 940 l 863 82 q 831 6 885 27 q 754 38 776 -16 l 679 219 l 247 219 l 175 38 q 100 6 153 -17 m 292 336 l 631 336 l 458 757 l 292 336 z "},"Ą":{"ha":925,"x_min":44,"x_max":968,"o":"m 100 6 q 67 82 44 27 l 397 896 q 463 942 418 942 l 465 942 q 526 896 510 940 l 863 82 q 831 6 885 27 q 754 38 776 -16 l 679 219 l 247 219 l 175 38 q 100 6 153 -17 m 292 336 l 631 336 l 458 757 l 292 336 m 814 -271 q 712 -233 753 -271 q 671 -139 671 -195 q 681 -92 671 -117 q 706 -46 690 -68 l 779 61 q 821 82 794 82 q 856 67 842 82 q 871 31 871 53 q 861 1 871 16 l 788 -106 q 772 -139 772 -128 q 784 -161 772 -152 q 814 -169 795 -169 q 847 -159 832 -169 q 881 -136 862 -149 q 897 -126 888 -131 q 917 -122 906 -122 q 953 -137 939 -122 q 968 -172 968 -151 q 954 -208 968 -194 q 814 -271 892 -271 z "},"Å":{"ha":925,"x_min":44,"x_max":885,"o":"m 100 6 q 67 82 44 27 l 397 896 q 463 942 418 942 l 465 942 q 526 896 510 940 l 863 82 q 831 6 885 27 q 754 38 776 -16 l 679 219 l 247 219 l 175 38 q 100 6 153 -17 m 292 336 l 631 336 l 458 757 l 292 336 z "},"Ǻ":{"ha":925,"x_min":44,"x_max":885,"o":"m 100 6 q 67 82 44 27 l 397 896 q 463 942 418 942 l 465 942 q 526 896 510 940 l 863 82 q 831 6 885 27 q 754 38 776 -16 l 679 219 l 247 219 l 175 38 q 100 6 153 -17 m 292 336 l 631 336 l 458 757 l 292 336 z "},"Ã":{"ha":925,"x_min":44,"x_max":885,"o":"m 100 6 q 67 82 44 27 l 397 896 q 463 942 418 942 l 465 942 q 526 896 510 940 l 863 82 q 831 6 885 27 q 754 38 776 -16 l 679 219 l 247 219 l 175 38 q 100 6 153 -17 m 292 336 l 631 336 l 458 757 l 292 336 z "},"Æ":{"ha":1194,"x_min":43,"x_max":1117,"o":"m 654 0 q 596 58 596 0 l 596 219 l 279 219 l 172 33 q 93 10 142 -20 q 71 89 43 40 l 532 901 q 561 932 544 922 q 603 942 578 942 l 1058 942 q 1117 883 1117 942 q 1058 825 1117 825 l 713 825 l 713 533 l 894 533 q 953 475 953 533 q 894 417 953 417 l 713 417 l 713 117 l 1058 117 q 1117 58 1117 117 q 1058 0 1117 0 l 654 0 m 346 336 l 596 336 l 596 798 l 600 798 l 346 336 z "},"Ǽ":{"ha":1194,"x_min":43,"x_max":1117,"o":"m 654 0 q 596 58 596 0 l 596 219 l 279 219 l 172 33 q 93 10 142 -20 q 71 89 43 40 l 532 901 q 561 932 544 922 q 603 942 578 942 l 1058 942 q 1117 883 1117 942 q 1058 825 1117 825 l 713 825 l 713 533 l 894 533 q 953 475 953 533 q 894 417 953 417 l 713 417 l 713 117 l 1058 117 q 1117 58 1117 117 q 1058 0 1117 0 l 654 0 m 346 336 l 596 336 l 596 798 l 600 798 l 346 336 z "},"B":{"ha":935,"x_min":144,"x_max":846,"o":"m 203 0 q 144 58 144 0 l 144 883 q 203 942 144 942 l 565 942 q 735 883 676 942 q 794 717 794 825 l 794 679 q 735 534 794 585 q 846 308 846 472 l 846 261 q 778 67 846 133 q 583 0 710 0 l 203 0 m 261 117 l 583 117 q 695 150 662 117 q 729 261 729 184 l 729 308 q 697 418 729 385 q 583 451 664 451 l 261 451 l 261 117 m 261 568 l 590 568 q 659 599 641 568 q 678 679 678 631 l 678 717 q 653 801 678 777 q 565 825 628 825 l 261 825 l 261 568 z "},"Ḃ":{"ha":935,"x_min":144,"x_max":846,"o":"m 203 0 q 144 58 144 0 l 144 883 q 203 942 144 942 l 565 942 q 735 883 676 942 q 794 717 794 825 l 794 679 q 735 534 794 585 q 846 308 846 472 l 846 261 q 778 67 846 133 q 583 0 710 0 l 203 0 m 261 117 l 583 117 q 695 150 662 117 q 729 261 729 184 l 729 308 q 697 418 729 385 q 583 451 664 451 l 261 451 l 261 117 m 261 568 l 590 568 q 659 599 641 568 q 678 679 678 631 l 678 717 q 653 801 678 777 q 565 825 628 825 l 261 825 l 261 568 z "},"C":{"ha":967,"x_min":111,"x_max":872,"o":"m 422 0 q 187 76 263 0 q 111 311 111 152 l 111 631 q 187 867 111 791 q 421 942 263 943 l 589 942 q 788 888 719 942 q 868 718 857 834 q 857 674 872 689 q 813 658 842 658 q 751 717 760 658 q 707 803 744 781 q 589 825 670 825 l 421 825 q 305 808 347 826 q 245 748 263 791 q 228 631 228 706 l 228 311 q 245 194 228 237 q 306 134 263 152 q 422 117 348 117 l 589 117 q 707 139 670 117 q 751 225 744 162 q 813 283 760 283 q 857 268 842 283 q 868 224 872 253 q 788 53 857 107 q 589 0 719 0 l 422 0 z "},"Ć":{"ha":967,"x_min":111,"x_max":872,"o":"m 422 0 q 187 76 263 0 q 111 311 111 152 l 111 631 q 187 867 111 791 q 421 942 263 943 l 589 942 q 788 888 719 942 q 868 718 857 834 q 857 674 872 689 q 813 658 842 658 q 751 717 760 658 q 707 803 744 781 q 589 825 670 825 l 421 825 q 305 808 347 826 q 245 748 263 791 q 228 631 228 706 l 228 311 q 245 194 228 237 q 306 134 263 152 q 422 117 348 117 l 589 117 q 707 139 670 117 q 751 225 744 162 q 813 283 760 283 q 857 268 842 283 q 868 224 872 253 q 788 53 857 107 q 589 0 719 0 l 422 0 z "},"Č":{"ha":967,"x_min":111,"x_max":872,"o":"m 422 0 q 187 76 263 0 q 111 311 111 152 l 111 631 q 187 867 111 791 q 421 942 263 943 l 589 942 q 788 888 719 942 q 868 718 857 834 q 857 674 872 689 q 813 658 842 658 q 751 717 760 658 q 707 803 744 781 q 589 825 670 825 l 421 825 q 305 808 347 826 q 245 748 263 791 q 228 631 228 706 l 228 311 q 245 194 228 237 q 306 134 263 152 q 422 117 348 117 l 589 117 q 707 139 670 117 q 751 225 744 162 q 813 283 760 283 q 857 268 842 283 q 868 224 872 253 q 788 53 857 107 q 589 0 719 0 l 422 0 z "},"Ç":{"ha":967,"x_min":111,"x_max":872,"o":"m 422 0 q 187 76 263 0 q 111 311 111 152 l 111 631 q 187 867 111 791 q 421 942 263 943 l 589 942 q 788 888 719 942 q 868 718 857 834 q 857 674 872 689 q 813 658 842 658 q 751 717 760 658 q 707 803 744 781 q 589 825 670 825 l 421 825 q 305 808 347 826 q 245 748 263 791 q 228 631 228 706 l 228 311 q 245 194 228 237 q 306 134 263 152 q 422 117 348 117 l 589 117 q 707 139 670 117 q 751 225 744 162 q 813 283 760 283 q 857 268 842 283 q 868 224 872 253 q 788 53 857 107 q 589 0 719 0 l 422 0 z "},"Ĉ":{"ha":967,"x_min":111,"x_max":872,"o":"m 422 0 q 187 76 263 0 q 111 311 111 152 l 111 631 q 187 867 111 791 q 421 942 263 943 l 589 942 q 788 888 719 942 q 868 718 857 834 q 857 674 872 689 q 813 658 842 658 q 751 717 760 658 q 707 803 744 781 q 589 825 670 825 l 421 825 q 305 808 347 826 q 245 748 263 791 q 228 631 228 706 l 228 311 q 245 194 228 237 q 306 134 263 152 q 422 117 348 117 l 589 117 q 707 139 670 117 q 751 225 744 162 q 813 283 760 283 q 857 268 842 283 q 868 224 872 253 q 788 53 857 107 q 589 0 719 0 l 422 0 z "},"Ċ":{"ha":967,"x_min":111,"x_max":872,"o":"m 422 0 q 187 76 263 0 q 111 311 111 152 l 111 631 q 187 867 111 791 q 421 942 263 943 l 589 942 q 788 888 719 942 q 868 718 857 834 q 857 674 872 689 q 813 658 842 658 q 751 717 760 658 q 707 803 744 781 q 589 825 670 825 l 421 825 q 305 808 347 826 q 245 748 263 791 q 228 631 228 706 l 228 311 q 245 194 228 237 q 306 134 263 152 q 422 117 348 117 l 589 117 q 707 139 670 117 q 751 225 744 162 q 813 283 760 283 q 857 268 842 283 q 868 224 872 253 q 788 53 857 107 q 589 0 719 0 l 422 0 z "},"D":{"ha":1001,"x_min":144,"x_max":890,"o":"m 203 0 q 144 58 144 0 l 144 883 q 203 942 144 942 l 538 942 q 805 856 719 942 q 890 589 890 770 l 890 353 q 805 86 890 172 q 538 0 720 0 l 203 0 m 261 117 l 538 117 q 678 139 626 117 q 752 212 730 160 q 774 353 774 264 l 774 589 q 752 729 774 677 q 678 803 730 781 q 538 825 626 825 l 261 825 l 261 117 z "},"Ǳ":{"ha":1903,"x_min":144,"x_max":1832,"o":"m 203 0 q 144 58 144 0 l 144 883 q 203 942 144 942 l 538 942 q 805 856 719 942 q 890 589 890 770 l 890 353 q 805 86 890 172 q 538 0 720 0 l 203 0 m 261 117 l 538 117 q 678 139 626 117 q 752 212 730 160 q 774 353 774 264 l 774 589 q 752 729 774 677 q 678 803 730 781 q 538 825 626 825 l 261 825 l 261 117 m 1090 0 q 1033 58 1033 0 q 1039 80 1033 68 q 1056 108 1044 92 l 1614 839 l 1614 825 l 1243 825 q 1174 812 1199 825 q 1139 768 1149 799 q 1119 728 1133 742 q 1078 714 1106 714 q 1032 730 1049 714 q 1021 775 1016 746 q 1093 899 1038 856 q 1243 942 1149 942 l 1707 942 q 1765 883 1765 942 q 1760 860 1765 872 q 1743 831 1756 847 l 1192 111 l 1192 117 l 1603 117 q 1675 130 1650 117 q 1708 174 1700 142 q 1730 214 1716 200 q 1771 228 1743 228 q 1816 212 1800 228 q 1828 167 1832 196 q 1603 0 1794 0 l 1090 0 z "},"Ǆ":{"ha":1903,"x_min":144,"x_max":1832,"o":"m 203 0 q 144 58 144 0 l 144 883 q 203 942 144 942 l 538 942 q 805 856 719 942 q 890 589 890 770 l 890 353 q 805 86 890 172 q 538 0 720 0 l 203 0 m 261 117 l 538 117 q 678 139 626 117 q 752 212 730 160 q 774 353 774 264 l 774 589 q 752 729 774 677 q 678 803 730 781 q 538 825 626 825 l 261 825 l 261 117 m 1090 0 q 1033 58 1033 0 q 1039 80 1033 68 q 1056 108 1044 92 l 1614 839 l 1614 825 l 1243 825 q 1174 812 1199 825 q 1139 768 1149 799 q 1119 728 1133 742 q 1078 714 1106 714 q 1032 730 1049 714 q 1021 775 1016 746 q 1093 899 1038 856 q 1243 942 1149 942 l 1707 942 q 1765 883 1765 942 q 1760 860 1765 872 q 1743 831 1756 847 l 1192 111 l 1192 117 l 1603 117 q 1675 130 1650 117 q 1708 174 1700 142 q 1730 214 1716 200 q 1771 228 1743 228 q 1816 212 1800 228 q 1828 167 1832 196 q 1603 0 1794 0 l 1090 0 z "},"Ð":{"ha":1001,"x_min":38,"x_max":890,"o":"m 203 0 q 144 58 144 0 l 144 883 q 203 942 144 942 l 538 942 q 805 856 719 942 q 890 589 890 770 l 890 353 q 805 86 890 172 q 538 0 720 0 l 203 0 m 261 117 l 538 117 q 678 139 626 117 q 752 212 730 160 q 774 353 774 264 l 774 589 q 752 729 774 677 q 678 803 730 781 q 538 825 626 825 l 261 825 l 261 117 m 86 421 q 38 469 38 421 q 86 518 38 518 l 450 518 q 499 469 499 518 q 450 421 499 421 l 86 421 z "},"Ď":{"ha":1001,"x_min":144,"x_max":890,"o":"m 203 0 q 144 58 144 0 l 144 883 q 203 942 144 942 l 538 942 q 805 856 719 942 q 890 589 890 770 l 890 353 q 805 86 890 172 q 538 0 720 0 l 203 0 m 261 117 l 538 117 q 678 139 626 117 q 752 212 730 160 q 774 353 774 264 l 774 589 q 752 729 774 677 q 678 803 730 781 q 538 825 626 825 l 261 825 l 261 117 z "},"Đ":{"ha":1001,"x_min":38,"x_max":890,"o":"m 203 0 q 144 58 144 0 l 144 883 q 203 942 144 942 l 538 942 q 805 856 719 942 q 890 589 890 770 l 890 353 q 805 86 890 172 q 538 0 720 0 l 203 0 m 261 117 l 538 117 q 678 139 626 117 q 752 212 730 160 q 774 353 774 264 l 774 589 q 752 729 774 677 q 678 803 730 781 q 538 825 626 825 l 261 825 l 261 117 m 86 421 q 38 469 38 421 q 86 518 38 518 l 450 518 q 499 469 499 518 q 450 421 499 421 l 86 421 z "},"Ḋ":{"ha":1001,"x_min":144,"x_max":890,"o":"m 203 0 q 144 58 144 0 l 144 883 q 203 942 144 942 l 538 942 q 805 856 719 942 q 890 589 890 770 l 890 353 q 805 86 890 172 q 538 0 720 0 l 203 0 m 261 117 l 538 117 q 678 139 626 117 q 752 212 730 160 q 774 353 774 264 l 774 589 q 752 729 774 677 q 678 803 730 781 q 538 825 626 825 l 261 825 l 261 117 z "},"ǲ":{"ha":1675,"x_min":144,"x_max":1630,"o":"m 203 0 q 144 58 144 0 l 144 883 q 203 942 144 942 l 538 942 q 805 856 719 942 q 890 589 890 770 l 890 353 q 805 86 890 172 q 538 0 720 0 l 203 0 m 261 117 l 538 117 q 678 139 626 117 q 752 212 730 160 q 774 353 774 264 l 774 589 q 752 729 774 677 q 678 803 730 781 q 538 825 626 825 l 261 825 l 261 117 m 1069 0 q 1011 58 1011 0 q 1036 115 1011 85 l 1436 615 l 1439 588 l 1176 588 q 1125 582 1142 588 q 1099 560 1107 576 q 1079 518 1092 533 q 1039 504 1066 504 q 993 520 1009 504 q 982 565 977 536 q 1044 670 996 635 q 1176 704 1092 704 l 1517 704 q 1575 646 1575 704 q 1550 588 1575 618 l 1157 94 l 1142 118 l 1429 117 q 1480 123 1462 117 q 1506 146 1497 129 q 1527 186 1515 172 q 1567 200 1540 200 q 1614 184 1597 200 q 1624 139 1630 168 q 1429 0 1594 0 l 1069 0 z "},"ǅ":{"ha":1675,"x_min":144,"x_max":1630,"o":"m 203 0 q 144 58 144 0 l 144 883 q 203 942 144 942 l 538 942 q 805 856 719 942 q 890 589 890 770 l 890 353 q 805 86 890 172 q 538 0 720 0 l 203 0 m 261 117 l 538 117 q 678 139 626 117 q 752 212 730 160 q 774 353 774 264 l 774 589 q 752 729 774 677 q 678 803 730 781 q 538 825 626 825 l 261 825 l 261 117 m 1069 0 q 1011 58 1011 0 q 1036 115 1011 85 l 1436 615 l 1439 588 l 1176 588 q 1125 582 1142 588 q 1099 560 1107 576 q 1079 518 1092 533 q 1039 504 1066 504 q 993 520 1009 504 q 982 565 977 536 q 1044 670 996 635 q 1176 704 1092 704 l 1517 704 q 1575 646 1575 704 q 1550 588 1575 618 l 1157 94 l 1142 118 l 1429 117 q 1480 123 1462 117 q 1506 146 1497 129 q 1527 186 1515 172 q 1567 200 1540 200 q 1614 184 1597 200 q 1624 139 1630 168 q 1429 0 1594 0 l 1069 0 z "},"E":{"ha":838,"x_min":144,"x_max":760,"o":"m 203 0 q 144 58 144 0 l 144 883 q 203 942 144 942 l 701 942 q 760 883 760 942 q 701 825 760 825 l 261 825 l 261 533 l 538 533 q 596 475 596 533 q 538 417 596 417 l 261 417 l 261 117 l 701 117 q 760 58 760 117 q 701 0 760 0 l 203 0 z "},"É":{"ha":838,"x_min":144,"x_max":760,"o":"m 203 0 q 144 58 144 0 l 144 883 q 203 942 144 942 l 701 942 q 760 883 760 942 q 701 825 760 825 l 261 825 l 261 533 l 538 533 q 596 475 596 533 q 538 417 596 417 l 261 417 l 261 117 l 701 117 q 760 58 760 117 q 701 0 760 0 l 203 0 z "},"Ĕ":{"ha":838,"x_min":144,"x_max":760,"o":"m 203 0 q 144 58 144 0 l 144 883 q 203 942 144 942 l 701 942 q 760 883 760 942 q 701 825 760 825 l 261 825 l 261 533 l 538 533 q 596 475 596 533 q 538 417 596 417 l 261 417 l 261 117 l 701 117 q 760 58 760 117 q 701 0 760 0 l 203 0 z "},"Ě":{"ha":838,"x_min":144,"x_max":760,"o":"m 203 0 q 144 58 144 0 l 144 883 q 203 942 144 942 l 701 942 q 760 883 760 942 q 701 825 760 825 l 261 825 l 261 533 l 538 533 q 596 475 596 533 q 538 417 596 417 l 261 417 l 261 117 l 701 117 q 760 58 760 117 q 701 0 760 0 l 203 0 z "},"Ê":{"ha":838,"x_min":144,"x_max":760,"o":"m 203 0 q 144 58 144 0 l 144 883 q 203 942 144 942 l 701 942 q 760 883 760 942 q 701 825 760 825 l 261 825 l 261 533 l 538 533 q 596 475 596 533 q 538 417 596 417 l 261 417 l 261 117 l 701 117 q 760 58 760 117 q 701 0 760 0 l 203 0 m 304 999 q 267 1014 283 999 q 251 1051 251 1030 q 276 1097 251 1081 l 404 1203 q 469 1228 433 1228 l 474 1228 q 539 1203 510 1228 l 668 1097 q 693 1051 693 1080 q 677 1014 693 1030 q 640 999 661 999 q 601 1015 618 999 l 472 1122 l 471 1122 l 343 1015 q 304 999 326 999 z "},"Ế":{"ha":838,"x_min":144,"x_max":776,"o":"m 203 0 q 144 58 144 0 l 144 883 q 203 942 144 942 l 701 942 q 760 883 760 942 q 701 825 760 825 l 261 825 l 261 533 l 538 533 q 596 475 596 533 q 538 417 596 417 l 261 417 l 261 117 l 701 117 q 760 58 760 117 q 701 0 760 0 l 203 0 m 657 1144 q 619 1163 638 1144 q 600 1199 600 1181 q 617 1236 600 1215 l 679 1310 q 719 1331 700 1331 q 757 1313 738 1331 q 776 1276 776 1294 q 772 1258 776 1266 q 760 1239 767 1249 l 696 1165 q 657 1144 678 1144 m 303 999 q 266 1014 281 999 q 250 1051 250 1030 q 275 1097 250 1081 l 403 1203 q 468 1228 432 1228 l 472 1228 q 538 1203 508 1228 l 667 1097 q 692 1051 692 1080 q 676 1014 692 1030 q 639 999 660 999 q 600 1015 617 999 l 471 1122 l 469 1122 l 342 1015 q 303 999 325 999 z "},"Ệ":{"ha":838,"x_min":144,"x_max":760,"o":"m 203 0 q 144 58 144 0 l 144 883 q 203 942 144 942 l 701 942 q 760 883 760 942 q 701 825 760 825 l 261 825 l 261 533 l 538 533 q 596 475 596 533 q 538 417 596 417 l 261 417 l 261 117 l 701 117 q 760 58 760 117 q 701 0 760 0 l 203 0 m 304 999 q 267 1014 283 999 q 251 1051 251 1030 q 276 1097 251 1081 l 404 1203 q 469 1228 433 1228 l 474 1228 q 539 1203 510 1228 l 668 1097 q 693 1051 693 1080 q 677 1014 693 1030 q 640 999 661 999 q 601 1015 618 999 l 472 1122 l 471 1122 l 343 1015 q 304 999 326 999 z "},"Ề":{"ha":838,"x_min":140,"x_max":760,"o":"m 203 0 q 144 58 144 0 l 144 883 q 203 942 144 942 l 701 942 q 760 883 760 942 q 701 825 760 825 l 261 825 l 261 533 l 538 533 q 596 475 596 533 q 538 417 596 417 l 261 417 l 261 117 l 701 117 q 760 58 760 117 q 701 0 760 0 l 203 0 m 260 1144 q 219 1165 238 1144 l 157 1239 q 140 1276 140 1253 q 159 1313 140 1294 q 197 1331 178 1331 q 236 1310 217 1331 l 299 1236 q 315 1199 315 1217 q 297 1163 315 1181 q 260 1144 278 1144 m 304 999 q 267 1014 283 999 q 251 1051 251 1030 q 276 1097 251 1081 l 404 1203 q 469 1228 433 1228 l 474 1228 q 539 1203 510 1228 l 668 1097 q 693 1051 693 1080 q 677 1014 693 1030 q 640 999 661 999 q 601 1015 618 999 l 472 1122 l 471 1122 l 343 1015 q 304 999 326 999 z "},"Ể":{"ha":838,"x_min":144,"x_max":760,"o":"m 203 0 q 144 58 144 0 l 144 883 q 203 942 144 942 l 701 942 q 760 883 760 942 q 701 825 760 825 l 261 825 l 261 533 l 538 533 q 596 475 596 533 q 538 417 596 417 l 261 417 l 261 117 l 701 117 q 760 58 760 117 q 701 0 760 0 l 203 0 z "},"Ễ":{"ha":838,"x_min":144,"x_max":760,"o":"m 203 0 q 144 58 144 0 l 144 883 q 203 942 144 942 l 701 942 q 760 883 760 942 q 701 825 760 825 l 261 825 l 261 533 l 538 533 q 596 475 596 533 q 538 417 596 417 l 261 417 l 261 117 l 701 117 q 760 58 760 117 q 701 0 760 0 l 203 0 z "},"Ȅ":{"ha":838,"x_min":144,"x_max":760,"o":"m 203 0 q 144 58 144 0 l 144 883 q 203 942 144 942 l 701 942 q 760 883 760 942 q 701 825 760 825 l 261 825 l 261 533 l 538 533 q 596 475 596 533 q 538 417 596 417 l 261 417 l 261 117 l 701 117 q 760 58 760 117 q 701 0 760 0 l 203 0 z "},"Ë":{"ha":838,"x_min":144,"x_max":760,"o":"m 203 0 q 144 58 144 0 l 144 883 q 203 942 144 942 l 701 942 q 760 883 760 942 q 701 825 760 825 l 261 825 l 261 533 l 538 533 q 596 475 596 533 q 538 417 596 417 l 261 417 l 261 117 l 701 117 q 760 58 760 117 q 701 0 760 0 l 203 0 z "},"Ė":{"ha":838,"x_min":144,"x_max":760,"o":"m 203 0 q 144 58 144 0 l 144 883 q 203 942 144 942 l 701 942 q 760 883 760 942 q 701 825 760 825 l 261 825 l 261 533 l 538 533 q 596 475 596 533 q 538 417 596 417 l 261 417 l 261 117 l 701 117 q 760 58 760 117 q 701 0 760 0 l 203 0 z "},"Ẹ":{"ha":838,"x_min":144,"x_max":760,"o":"m 203 0 q 144 58 144 0 l 144 883 q 203 942 144 942 l 701 942 q 760 883 760 942 q 701 825 760 825 l 261 825 l 261 533 l 538 533 q 596 475 596 533 q 538 417 596 417 l 261 417 l 261 117 l 701 117 q 760 58 760 117 q 701 0 760 0 l 203 0 z "},"È":{"ha":838,"x_min":144,"x_max":760,"o":"m 203 0 q 144 58 144 0 l 144 883 q 203 942 144 942 l 701 942 q 760 883 760 942 q 701 825 760 825 l 261 825 l 261 533 l 538 533 q 596 475 596 533 q 538 417 596 417 l 261 417 l 261 117 l 701 117 q 760 58 760 117 q 701 0 760 0 l 203 0 z "},"Ẻ":{"ha":838,"x_min":144,"x_max":760,"o":"m 203 0 q 144 58 144 0 l 144 883 q 203 942 144 942 l 701 942 q 760 883 760 942 q 701 825 760 825 l 261 825 l 261 533 l 538 533 q 596 475 596 533 q 538 417 596 417 l 261 417 l 261 117 l 701 117 q 760 58 760 117 q 701 0 760 0 l 203 0 m 472 1015 q 442 1023 451 1015 q 433 1053 433 1031 q 457 1120 433 1098 q 500 1153 481 1142 q 522 1168 517 1163 q 526 1181 526 1172 q 517 1220 526 1211 q 479 1229 508 1229 q 441 1220 450 1229 q 432 1181 432 1211 q 424 1150 432 1159 q 393 1142 415 1142 q 363 1150 372 1142 q 354 1181 354 1159 q 479 1306 354 1306 q 604 1181 604 1306 q 581 1117 604 1138 q 540 1085 558 1095 q 516 1068 521 1074 q 511 1053 511 1063 q 503 1023 511 1031 q 472 1015 494 1015 z "},"Ȇ":{"ha":838,"x_min":144,"x_max":760,"o":"m 203 0 q 144 58 144 0 l 144 883 q 203 942 144 942 l 701 942 q 760 883 760 942 q 701 825 760 825 l 261 825 l 261 533 l 538 533 q 596 475 596 533 q 538 417 596 417 l 261 417 l 261 117 l 701 117 q 760 58 760 117 q 701 0 760 0 l 203 0 z "},"Ē":{"ha":838,"x_min":144,"x_max":760,"o":"m 203 0 q 144 58 144 0 l 144 883 q 203 942 144 942 l 701 942 q 760 883 760 942 q 701 825 760 825 l 261 825 l 261 533 l 538 533 q 596 475 596 533 q 538 417 596 417 l 261 417 l 261 117 l 701 117 q 760 58 760 117 q 701 0 760 0 l 203 0 z "},"Ę":{"ha":838,"x_min":144,"x_max":890,"o":"m 203 0 q 144 58 144 0 l 144 883 q 203 942 144 942 l 701 942 q 760 883 760 942 q 701 825 760 825 l 261 825 l 261 533 l 538 533 q 596 475 596 533 q 538 417 596 417 l 261 417 l 261 117 l 701 117 q 760 58 760 117 q 701 0 760 0 l 203 0 m 736 -214 q 634 -176 676 -214 q 593 -82 593 -138 q 603 -35 593 -60 q 628 11 613 -11 l 701 118 q 743 139 716 139 q 778 124 764 139 q 793 88 793 110 q 783 58 793 73 l 710 -49 q 694 -82 694 -71 q 706 -104 694 -95 q 736 -112 717 -112 q 769 -102 754 -112 q 803 -79 784 -92 q 819 -69 810 -74 q 839 -65 828 -65 q 876 -80 861 -65 q 890 -115 890 -94 q 876 -151 890 -137 q 736 -214 814 -214 z "},"Ẽ":{"ha":838,"x_min":144,"x_max":760,"o":"m 203 0 q 144 58 144 0 l 144 883 q 203 942 144 942 l 701 942 q 760 883 760 942 q 701 825 760 825 l 261 825 l 261 533 l 538 533 q 596 475 596 533 q 538 417 596 417 l 261 417 l 261 117 l 701 117 q 760 58 760 117 q 701 0 760 0 l 203 0 z "},"F":{"ha":772,"x_min":144,"x_max":772,"o":"m 203 0 q 144 58 144 0 l 144 883 q 203 942 144 942 l 714 942 q 757 926 741 942 q 772 883 772 910 q 714 825 772 825 l 261 825 l 261 533 l 540 533 q 599 475 599 533 q 540 417 599 417 l 261 417 l 261 58 q 203 0 261 0 z "},"Ḟ":{"ha":772,"x_min":144,"x_max":772,"o":"m 203 0 q 144 58 144 0 l 144 883 q 203 942 144 942 l 714 942 q 757 926 741 942 q 772 883 772 910 q 714 825 772 825 l 261 825 l 261 533 l 540 533 q 599 475 599 533 q 540 417 599 417 l 261 417 l 261 58 q 203 0 261 0 z "},"G":{"ha":970,"x_min":111,"x_max":872,"o":"m 422 0 q 187 76 263 0 q 111 311 111 152 l 111 631 q 187 867 111 791 q 421 942 263 943 l 589 942 q 788 888 719 942 q 868 718 857 834 q 857 674 872 689 q 813 658 842 658 q 751 717 760 658 q 707 803 744 781 q 589 825 670 825 l 421 825 q 305 808 347 826 q 245 748 263 791 q 228 631 228 706 l 228 311 q 245 194 228 237 q 306 134 263 152 q 422 117 348 117 l 589 117 q 690 131 653 117 q 741 181 726 145 q 756 283 756 217 l 756 349 l 647 350 q 589 408 589 350 q 647 467 589 467 l 814 465 q 872 407 872 465 l 872 283 q 803 68 872 135 q 589 0 735 0 l 422 0 z "},"Ğ":{"ha":970,"x_min":111,"x_max":872,"o":"m 422 0 q 187 76 263 0 q 111 311 111 152 l 111 631 q 187 867 111 791 q 421 942 263 943 l 589 942 q 788 888 719 942 q 868 718 857 834 q 857 674 872 689 q 813 658 842 658 q 751 717 760 658 q 707 803 744 781 q 589 825 670 825 l 421 825 q 305 808 347 826 q 245 748 263 791 q 228 631 228 706 l 228 311 q 245 194 228 237 q 306 134 263 152 q 422 117 348 117 l 589 117 q 690 131 653 117 q 741 181 726 145 q 756 283 756 217 l 756 349 l 647 350 q 589 408 589 350 q 647 467 589 467 l 814 465 q 872 407 872 465 l 872 283 q 803 68 872 135 q 589 0 735 0 l 422 0 z "},"Ǧ":{"ha":970,"x_min":111,"x_max":872,"o":"m 422 0 q 187 76 263 0 q 111 311 111 152 l 111 631 q 187 867 111 791 q 421 942 263 943 l 589 942 q 788 888 719 942 q 868 718 857 834 q 857 674 872 689 q 813 658 842 658 q 751 717 760 658 q 707 803 744 781 q 589 825 670 825 l 421 825 q 305 808 347 826 q 245 748 263 791 q 228 631 228 706 l 228 311 q 245 194 228 237 q 306 134 263 152 q 422 117 348 117 l 589 117 q 690 131 653 117 q 741 181 726 145 q 756 283 756 217 l 756 349 l 647 350 q 589 408 589 350 q 647 467 589 467 l 814 465 q 872 407 872 465 l 872 283 q 803 68 872 135 q 589 0 735 0 l 422 0 z "},"Ĝ":{"ha":970,"x_min":111,"x_max":872,"o":"m 422 0 q 187 76 263 0 q 111 311 111 152 l 111 631 q 187 867 111 791 q 421 942 263 943 l 589 942 q 788 888 719 942 q 868 718 857 834 q 857 674 872 689 q 813 658 842 658 q 751 717 760 658 q 707 803 744 781 q 589 825 670 825 l 421 825 q 305 808 347 826 q 245 748 263 791 q 228 631 228 706 l 228 311 q 245 194 228 237 q 306 134 263 152 q 422 117 348 117 l 589 117 q 690 131 653 117 q 741 181 726 145 q 756 283 756 217 l 756 349 l 647 350 q 589 408 589 350 q 647 467 589 467 l 814 465 q 872 407 872 465 l 872 283 q 803 68 872 135 q 589 0 735 0 l 422 0 z "},"Ģ":{"ha":970,"x_min":111,"x_max":872,"o":"m 422 0 q 187 76 263 0 q 111 311 111 152 l 111 631 q 187 867 111 791 q 421 942 263 943 l 589 942 q 788 888 719 942 q 868 718 857 834 q 857 674 872 689 q 813 658 842 658 q 751 717 760 658 q 707 803 744 781 q 589 825 670 825 l 421 825 q 305 808 347 826 q 245 748 263 791 q 228 631 228 706 l 228 311 q 245 194 228 237 q 306 134 263 152 q 422 117 348 117 l 589 117 q 690 131 653 117 q 741 181 726 145 q 756 283 756 217 l 756 349 l 647 350 q 589 408 589 350 q 647 467 589 467 l 814 465 q 872 407 872 465 l 872 283 q 803 68 872 135 q 589 0 735 0 l 422 0 z "},"Ġ":{"ha":970,"x_min":111,"x_max":872,"o":"m 422 0 q 187 76 263 0 q 111 311 111 152 l 111 631 q 187 867 111 791 q 421 942 263 943 l 589 942 q 788 888 719 942 q 868 718 857 834 q 857 674 872 689 q 813 658 842 658 q 751 717 760 658 q 707 803 744 781 q 589 825 670 825 l 421 825 q 305 808 347 826 q 245 748 263 791 q 228 631 228 706 l 228 311 q 245 194 228 237 q 306 134 263 152 q 422 117 348 117 l 589 117 q 690 131 653 117 q 741 181 726 145 q 756 283 756 217 l 756 349 l 647 350 q 589 408 589 350 q 647 467 589 467 l 814 465 q 872 407 872 465 l 872 283 q 803 68 872 135 q 589 0 735 0 l 422 0 z "},"H":{"ha":1089,"x_min":144,"x_max":944,"o":"m 203 0 q 162 18 180 0 q 144 58 144 35 l 144 883 q 162 924 144 906 q 203 942 180 942 q 243 924 226 942 q 261 883 261 906 l 261 535 l 828 535 l 828 883 q 845 924 828 906 q 886 942 863 942 q 927 924 909 942 q 944 883 944 906 l 944 58 q 927 18 944 35 q 886 0 909 0 q 845 18 863 0 q 828 58 828 35 l 828 418 l 261 418 l 261 58 q 243 18 261 35 q 203 0 226 0 z "},"Ħ":{"ha":1089,"x_min":49,"x_max":1039,"o":"m 203 0 q 162 18 180 0 q 144 58 144 35 l 144 883 q 162 924 144 906 q 203 942 180 942 q 243 924 226 942 q 261 883 261 906 l 261 535 l 828 535 l 828 883 q 845 924 828 906 q 886 942 863 942 q 927 924 909 942 q 944 883 944 906 l 944 58 q 927 18 944 35 q 886 0 909 0 q 845 18 863 0 q 828 58 828 35 l 828 418 l 261 418 l 261 58 q 243 18 261 35 q 203 0 226 0 m 94 664 q 49 711 49 664 q 94 757 49 757 l 992 757 q 1039 711 1039 757 q 992 664 1039 664 l 94 664 z "},"Ĥ":{"ha":1089,"x_min":144,"x_max":944,"o":"m 203 0 q 162 18 180 0 q 144 58 144 35 l 144 883 q 162 924 144 906 q 203 942 180 942 q 243 924 226 942 q 261 883 261 906 l 261 535 l 828 535 l 828 883 q 845 924 828 906 q 886 942 863 942 q 927 924 909 942 q 944 883 944 906 l 944 58 q 927 18 944 35 q 886 0 909 0 q 845 18 863 0 q 828 58 828 35 l 828 418 l 261 418 l 261 58 q 243 18 261 35 q 203 0 226 0 z "},"I":{"ha":406,"x_min":144,"x_max":261,"o":"m 203 0 q 159 14 173 0 q 144 58 144 28 l 144 882 q 159 926 144 913 q 203 940 173 940 q 247 926 233 940 q 261 882 261 913 l 261 58 q 247 14 261 28 q 203 0 233 0 z "},"Í":{"ha":406,"x_min":134,"x_max":378,"o":"m 203 0 q 159 14 173 0 q 144 58 144 28 l 144 882 q 159 926 144 913 q 203 940 173 940 q 247 926 233 940 q 261 882 261 913 l 261 58 q 247 14 261 28 q 203 0 233 0 z "},"Ĭ":{"ha":406,"x_min":33,"x_max":415,"o":"m 203 0 q 159 14 173 0 q 144 58 144 28 l 144 882 q 159 926 144 913 q 203 940 173 940 q 247 926 233 940 q 261 882 261 913 l 261 58 q 247 14 261 28 q 203 0 233 0 z "},"Î":{"ha":406,"x_min":24,"x_max":385,"o":"m 203 0 q 159 14 173 0 q 144 58 144 28 l 144 882 q 159 926 144 913 q 203 940 173 940 q 247 926 233 940 q 261 882 261 913 l 261 58 q 247 14 261 28 q 203 0 233 0 z "},"Ȉ":{"ha":406,"x_min":-6,"x_max":375,"o":"m 203 0 q 159 14 173 0 q 144 58 144 28 l 144 882 q 159 926 144 913 q 203 940 173 940 q 247 926 233 940 q 261 882 261 913 l 261 58 q 247 14 261 28 q 203 0 233 0 z "},"Ï":{"ha":406,"x_min":17,"x_max":390,"o":"m 203 0 q 159 14 173 0 q 144 58 144 28 l 144 882 q 159 926 144 913 q 203 940 173 940 q 247 926 233 940 q 261 882 261 913 l 261 58 q 247 14 261 28 q 203 0 233 0 z "},"İ":{"ha":406,"x_min":119,"x_max":288,"o":"m 203 0 q 159 14 173 0 q 144 58 144 28 l 144 882 q 159 926 144 913 q 203 940 173 940 q 247 926 233 940 q 261 882 261 913 l 261 58 q 247 14 261 28 q 203 0 233 0 z "},"Ị":{"ha":406,"x_min":132,"x_max":274,"o":"m 203 0 q 159 14 173 0 q 144 58 144 28 l 144 882 q 159 926 144 913 q 203 940 173 940 q 247 926 233 940 q 261 882 261 913 l 261 58 q 247 14 261 28 q 203 0 233 0 z "},"Ì":{"ha":406,"x_min":58,"x_max":302,"o":"m 203 0 q 159 14 173 0 q 144 58 144 28 l 144 882 q 159 926 144 913 q 203 940 173 940 q 247 926 233 940 q 261 882 261 913 l 261 58 q 247 14 261 28 q 203 0 233 0 z "},"Ỉ":{"ha":406,"x_min":85,"x_max":335,"o":"m 203 0 q 159 14 173 0 q 144 58 144 28 l 144 882 q 159 926 144 913 q 203 940 173 940 q 247 926 233 940 q 261 882 261 913 l 261 58 q 247 14 261 28 q 203 0 233 0 m 203 1015 q 173 1023 181 1015 q 164 1053 164 1031 q 188 1120 164 1098 q 231 1153 212 1142 q 252 1168 247 1163 q 257 1181 257 1172 q 248 1220 257 1211 q 210 1229 239 1229 q 172 1220 181 1229 q 163 1181 163 1211 q 154 1150 163 1159 q 124 1142 146 1142 q 93 1150 102 1142 q 85 1181 85 1159 q 210 1306 85 1306 q 335 1181 335 1306 q 312 1117 335 1138 q 271 1085 289 1095 q 247 1068 251 1074 q 242 1053 242 1063 q 233 1023 242 1031 q 203 1015 225 1015 z "},"Ȋ":{"ha":406,"x_min":11,"x_max":393,"o":"m 203 0 q 159 14 173 0 q 144 58 144 28 l 144 882 q 159 926 144 913 q 203 940 173 940 q 247 926 233 940 q 261 882 261 913 l 261 58 q 247 14 261 28 q 203 0 233 0 z "},"Ī":{"ha":406,"x_min":44,"x_max":364,"o":"m 203 0 q 159 14 173 0 q 144 58 144 28 l 144 882 q 159 926 144 913 q 203 940 173 940 q 247 926 233 940 q 261 882 261 913 l 261 58 q 247 14 261 28 q 203 0 233 0 m 101 1063 q 44 1118 44 1063 q 101 1175 44 1175 l 307 1175 q 364 1118 364 1175 q 307 1063 364 1063 l 101 1063 z "},"Į":{"ha":406,"x_min":54,"x_max":351,"o":"m 203 0 q 159 14 173 0 q 144 58 144 28 l 144 882 q 159 926 144 913 q 203 940 173 940 q 247 926 233 940 q 261 882 261 913 l 261 58 q 247 14 261 28 q 203 0 233 0 m 197 -261 q 95 -223 137 -261 q 54 -129 54 -185 q 64 -83 54 -107 q 89 -36 74 -58 l 163 71 q 204 92 177 92 q 240 77 225 92 q 254 40 254 63 q 244 11 254 26 l 171 -96 q 156 -129 156 -118 q 167 -151 156 -142 q 197 -160 178 -160 q 230 -150 215 -160 q 264 -126 245 -140 q 281 -117 272 -121 q 300 -112 290 -112 q 337 -127 322 -112 q 351 -162 351 -142 q 338 -199 351 -185 q 197 -261 275 -261 z "},"Ĩ":{"ha":406,"x_min":15,"x_max":398,"o":"m 203 0 q 159 14 173 0 q 144 58 144 28 l 144 882 q 159 926 144 913 q 203 940 173 940 q 247 926 233 940 q 261 882 261 913 l 261 58 q 247 14 261 28 q 203 0 233 0 m 281 1025 q 239 1036 258 1025 q 205 1063 220 1048 q 175 1089 189 1077 q 147 1100 161 1100 q 125 1088 133 1100 q 110 1063 117 1076 q 84 1031 99 1041 q 46 1032 70 1022 q 18 1058 20 1043 q 21 1090 15 1074 q 67 1165 38 1140 q 131 1189 97 1189 q 180 1177 158 1189 q 219 1151 201 1166 q 251 1124 237 1135 q 278 1113 266 1113 q 289 1116 285 1113 q 295 1125 292 1120 q 300 1135 298 1131 q 325 1168 312 1161 q 361 1169 338 1176 q 392 1149 386 1163 q 390 1113 398 1136 q 364 1067 381 1087 q 325 1036 347 1047 q 281 1025 303 1025 z "},"J":{"ha":864,"x_min":44,"x_max":726,"o":"m 328 0 q 129 54 198 0 q 47 222 60 108 q 60 267 44 251 q 104 283 75 283 q 164 225 158 283 q 209 139 172 162 q 328 117 246 117 l 443 117 q 544 131 508 117 q 595 182 581 146 q 610 283 610 218 l 610 883 q 668 942 610 942 q 726 883 726 942 l 726 283 q 658 68 726 137 q 443 0 589 0 l 328 0 z "},"Ĵ":{"ha":864,"x_min":44,"x_max":850,"o":"m 328 0 q 129 54 198 0 q 47 222 60 108 q 60 267 44 251 q 104 283 75 283 q 164 225 158 283 q 209 139 172 162 q 328 117 246 117 l 443 117 q 544 131 508 117 q 595 182 581 146 q 610 283 610 218 l 610 883 q 668 942 610 942 q 726 883 726 942 l 726 283 q 658 68 726 137 q 443 0 589 0 l 328 0 z "},"K":{"ha":815,"x_min":144,"x_max":787,"o":"m 203 0 q 144 58 144 0 l 144 883 q 203 942 144 942 q 261 883 261 942 l 261 553 l 615 919 q 697 921 656 963 q 699 839 740 881 l 403 534 l 751 101 q 743 19 787 55 q 661 28 698 -17 l 322 449 l 261 386 l 261 58 q 203 0 261 0 z "},"Ķ":{"ha":815,"x_min":144,"x_max":787,"o":"m 203 0 q 144 58 144 0 l 144 883 q 203 942 144 942 q 261 883 261 942 l 261 553 l 615 919 q 697 921 656 963 q 699 839 740 881 l 403 534 l 751 101 q 743 19 787 55 q 661 28 698 -17 l 322 449 l 261 386 l 261 58 q 203 0 261 0 z "},"L":{"ha":751,"x_min":144,"x_max":704,"o":"m 203 0 q 144 58 144 0 l 144 883 q 203 942 144 942 q 261 883 261 942 l 261 117 l 646 117 q 704 58 704 117 q 646 0 704 0 l 203 0 z "},"Ǉ":{"ha":1615,"x_min":144,"x_max":1478,"o":"m 203 0 q 144 58 144 0 l 144 883 q 203 942 144 942 q 261 883 261 942 l 261 117 l 646 117 q 704 58 704 117 q 646 0 704 0 l 203 0 m 1079 0 q 880 54 949 0 q 799 222 811 108 q 811 267 796 251 q 856 283 826 283 q 915 225 909 283 q 960 139 924 162 q 1079 117 997 117 l 1194 117 q 1295 131 1259 117 q 1347 182 1332 146 q 1361 283 1361 218 l 1361 883 q 1419 942 1361 942 q 1478 883 1478 942 l 1478 283 q 1409 68 1478 137 q 1194 0 1340 0 l 1079 0 z "},"Ĺ":{"ha":751,"x_min":134,"x_max":704,"o":"m 203 0 q 144 58 144 0 l 144 883 q 203 942 144 942 q 261 883 261 942 l 261 117 l 646 117 q 704 58 704 117 q 646 0 704 0 l 203 0 z "},"Ľ":{"ha":751,"x_min":144,"x_max":704,"o":"m 203 0 q 144 58 144 0 l 144 883 q 203 942 144 942 q 261 883 261 942 l 261 117 l 646 117 q 704 58 704 117 q 646 0 704 0 l 203 0 z "},"Ļ":{"ha":751,"x_min":144,"x_max":704,"o":"m 203 0 q 144 58 144 0 l 144 883 q 203 942 144 942 q 261 883 261 942 l 261 117 l 646 117 q 704 58 704 117 q 646 0 704 0 l 203 0 z "},"Ŀ":{"ha":751,"x_min":144,"x_max":704,"o":"m 203 0 q 144 58 144 0 l 144 883 q 203 942 144 942 q 261 883 261 942 l 261 117 l 646 117 q 704 58 704 117 q 646 0 704 0 l 203 0 z "},"ǈ":{"ha":1025,"x_min":144,"x_max":908,"o":"m 203 0 q 144 58 144 0 l 144 883 q 203 942 144 942 q 261 883 261 942 l 261 117 l 646 117 q 704 58 704 117 q 646 0 704 0 l 203 0 z "},"Ł":{"ha":751,"x_min":-1,"x_max":704,"o":"m 203 0 q 144 58 144 0 l 144 883 q 203 942 144 942 q 261 883 261 942 l 261 117 l 646 117 q 704 58 704 117 q 646 0 704 0 l 203 0 m 106 286 q 29 297 63 253 q 40 375 -1 340 l 353 611 q 428 600 396 645 q 418 522 460 558 l 106 286 z "},"M":{"ha":1163,"x_min":144,"x_max":1018,"o":"m 203 0 q 144 58 144 0 l 144 883 q 203 942 144 942 q 267 904 241 942 l 594 411 l 569 407 l 900 904 q 971 942 924 942 q 1018 883 1018 942 l 1018 58 q 960 0 1018 0 q 901 58 901 0 l 901 767 l 938 754 l 646 325 q 575 288 620 288 q 518 325 544 288 l 226 754 l 261 744 l 261 58 q 203 0 261 0 z "},"Ṁ":{"ha":1163,"x_min":144,"x_max":1018,"o":"m 203 0 q 144 58 144 0 l 144 883 q 203 942 144 942 q 267 904 241 942 l 594 411 l 569 407 l 900 904 q 971 942 924 942 q 1018 883 1018 942 l 1018 58 q 960 0 1018 0 q 901 58 901 0 l 901 767 l 938 754 l 646 325 q 575 288 620 288 q 518 325 544 288 l 226 754 l 261 744 l 261 58 q 203 0 261 0 z "},"N":{"ha":1051,"x_min":144,"x_max":907,"o":"m 203 0 q 144 58 144 0 l 144 883 q 203 942 144 942 q 261 907 233 942 l 819 188 l 790 188 l 790 883 q 849 942 790 942 q 907 883 907 942 l 907 58 q 849 0 907 0 q 790 35 817 0 l 232 754 l 261 754 l 261 58 q 203 0 261 0 z "},"Ǌ":{"ha":1915,"x_min":144,"x_max":1778,"o":"m 203 0 q 144 58 144 0 l 144 883 q 203 942 144 942 q 261 907 233 942 l 819 188 l 790 188 l 790 883 q 849 942 790 942 q 907 883 907 942 l 907 58 q 849 0 907 0 q 790 35 817 0 l 232 754 l 261 754 l 261 58 q 203 0 261 0 m 1379 0 q 1180 54 1249 0 q 1099 222 1111 108 q 1111 267 1096 251 q 1156 283 1126 283 q 1215 225 1209 283 q 1260 139 1224 162 q 1379 117 1297 117 l 1494 117 q 1595 131 1559 117 q 1647 182 1632 146 q 1661 283 1661 218 l 1661 883 q 1719 942 1661 942 q 1778 883 1778 942 l 1778 283 q 1709 68 1778 137 q 1494 0 1640 0 l 1379 0 z "},"Ń":{"ha":1051,"x_min":144,"x_max":907,"o":"m 203 0 q 144 58 144 0 l 144 883 q 203 942 144 942 q 261 907 233 942 l 819 188 l 790 188 l 790 883 q 849 942 790 942 q 907 883 907 942 l 907 58 q 849 0 907 0 q 790 35 817 0 l 232 754 l 261 754 l 261 58 q 203 0 261 0 z "},"Ň":{"ha":1051,"x_min":144,"x_max":907,"o":"m 203 0 q 144 58 144 0 l 144 883 q 203 942 144 942 q 261 907 233 942 l 819 188 l 790 188 l 790 883 q 849 942 790 942 q 907 883 907 942 l 907 58 q 849 0 907 0 q 790 35 817 0 l 232 754 l 261 754 l 261 58 q 203 0 261 0 z "},"Ņ":{"ha":1051,"x_min":144,"x_max":907,"o":"m 203 0 q 144 58 144 0 l 144 883 q 203 942 144 942 q 261 907 233 942 l 819 188 l 790 188 l 790 883 q 849 942 790 942 q 907 883 907 942 l 907 58 q 849 0 907 0 q 790 35 817 0 l 232 754 l 261 754 l 261 58 q 203 0 261 0 z "},"Ŋ":{"ha":1051,"x_min":144,"x_max":907,"o":"m 542 -278 q 409 -244 458 -278 q 347 -139 360 -210 q 358 -94 342 -110 q 404 -78 373 -78 q 440 -93 431 -78 q 464 -135 449 -109 q 491 -156 474 -150 q 542 -161 508 -161 l 707 -161 q 774 -145 758 -161 q 790 -78 790 -128 l 790 35 l 261 717 l 261 58 q 203 0 261 0 q 144 58 144 0 l 144 883 q 203 942 144 942 q 261 907 234 942 l 790 225 l 790 883 q 849 942 790 942 q 907 883 907 942 l 907 -78 q 858 -229 907 -180 q 707 -278 809 -278 l 542 -278 z "},"ǋ":{"ha":1457,"x_min":144,"x_max":1340,"o":"m 203 0 q 144 58 144 0 l 144 883 q 203 942 144 942 q 261 907 233 942 l 819 188 l 790 188 l 790 883 q 849 942 790 942 q 907 883 907 942 l 907 58 q 849 0 907 0 q 790 35 817 0 l 232 754 l 261 754 l 261 58 q 203 0 261 0 z "},"Ñ":{"ha":1051,"x_min":144,"x_max":907,"o":"m 203 0 q 144 58 144 0 l 144 883 q 203 942 144 942 q 261 907 233 942 l 819 188 l 790 188 l 790 883 q 849 942 790 942 q 907 883 907 942 l 907 58 q 849 0 907 0 q 790 35 817 0 l 232 754 l 261 754 l 261 58 q 203 0 261 0 z "},"O":{"ha":1011,"x_min":111,"x_max":900,"o":"m 422 0 q 187 76 263 0 q 111 311 111 152 l 111 632 q 188 868 111 792 q 422 942 264 943 l 589 942 q 824 866 749 942 q 900 631 900 790 l 900 311 q 824 76 900 152 q 589 0 749 0 l 422 0 m 422 117 l 589 117 q 706 134 663 117 q 766 194 748 152 q 783 311 783 237 l 783 631 q 766 747 783 704 q 706 807 748 789 q 589 825 663 825 l 422 825 q 306 808 349 826 q 246 749 264 791 q 228 632 228 706 l 228 311 q 245 194 228 237 q 306 134 263 152 q 422 117 348 117 z "},"Ó":{"ha":1011,"x_min":111,"x_max":900,"o":"m 422 0 q 187 76 263 0 q 111 311 111 152 l 111 632 q 188 868 111 792 q 422 942 264 943 l 589 942 q 824 866 749 942 q 900 631 900 790 l 900 311 q 824 76 900 152 q 589 0 749 0 l 422 0 m 422 117 l 589 117 q 706 134 663 117 q 766 194 748 152 q 783 311 783 237 l 783 631 q 766 747 783 704 q 706 807 748 789 q 589 825 663 825 l 422 825 q 306 808 349 826 q 246 749 264 791 q 228 632 228 706 l 228 311 q 245 194 228 237 q 306 134 263 152 q 422 117 348 117 z "},"Ŏ":{"ha":1011,"x_min":111,"x_max":900,"o":"m 422 0 q 187 76 263 0 q 111 311 111 152 l 111 632 q 188 868 111 792 q 422 942 264 943 l 589 942 q 824 866 749 942 q 900 631 900 790 l 900 311 q 824 76 900 152 q 589 0 749 0 l 422 0 m 422 117 l 589 117 q 706 134 663 117 q 766 194 748 152 q 783 311 783 237 l 783 631 q 766 747 783 704 q 706 807 748 789 q 589 825 663 825 l 422 825 q 306 808 349 826 q 246 749 264 791 q 228 632 228 706 l 228 311 q 245 194 228 237 q 306 134 263 152 q 422 117 348 117 z "},"Ô":{"ha":1011,"x_min":111,"x_max":900,"o":"m 422 0 q 187 76 263 0 q 111 311 111 152 l 111 632 q 188 868 111 792 q 422 942 264 943 l 589 942 q 824 866 749 942 q 900 631 900 790 l 900 311 q 824 76 900 152 q 589 0 749 0 l 422 0 m 422 117 l 589 117 q 706 134 663 117 q 766 194 748 152 q 783 311 783 237 l 783 631 q 766 747 783 704 q 706 807 748 789 q 589 825 663 825 l 422 825 q 306 808 349 826 q 246 749 264 791 q 228 632 228 706 l 228 311 q 245 194 228 237 q 306 134 263 152 q 422 117 348 117 m 338 999 q 300 1014 316 999 q 285 1051 285 1030 q 310 1097 285 1081 l 438 1203 q 503 1228 467 1228 l 507 1228 q 572 1203 543 1228 l 701 1097 q 726 1051 726 1080 q 710 1014 726 1030 q 674 999 694 999 q 635 1015 651 999 l 506 1122 l 504 1122 l 376 1015 q 338 999 360 999 z "},"Ố":{"ha":1011,"x_min":111,"x_max":900,"o":"m 422 0 q 187 76 263 0 q 111 311 111 152 l 111 632 q 188 868 111 792 q 422 942 264 943 l 589 942 q 824 866 749 942 q 900 631 900 790 l 900 311 q 824 76 900 152 q 589 0 749 0 l 422 0 m 422 117 l 589 117 q 706 134 663 117 q 766 194 748 152 q 783 311 783 237 l 783 631 q 766 747 783 704 q 706 807 748 789 q 589 825 663 825 l 422 825 q 306 808 349 826 q 246 749 264 791 q 228 632 228 706 l 228 311 q 245 194 228 237 q 306 134 263 152 q 422 117 348 117 m 690 1144 q 652 1163 672 1144 q 633 1199 633 1181 q 650 1236 633 1215 l 713 1310 q 753 1331 733 1331 q 791 1313 772 1331 q 810 1276 810 1294 q 805 1258 810 1266 q 793 1239 801 1249 l 729 1165 q 690 1144 712 1144 m 336 999 q 299 1014 315 999 q 283 1051 283 1030 q 308 1097 283 1081 l 436 1203 q 501 1228 465 1228 l 506 1228 q 571 1203 542 1228 l 700 1097 q 725 1051 725 1080 q 709 1014 725 1030 q 672 999 693 999 q 633 1015 650 999 l 504 1122 l 503 1122 l 375 1015 q 336 999 358 999 z "},"Ộ":{"ha":1011,"x_min":111,"x_max":900,"o":"m 422 0 q 187 76 263 0 q 111 311 111 152 l 111 632 q 188 868 111 792 q 422 942 264 943 l 589 942 q 824 866 749 942 q 900 631 900 790 l 900 311 q 824 76 900 152 q 589 0 749 0 l 422 0 m 422 117 l 589 117 q 706 134 663 117 q 766 194 748 152 q 783 311 783 237 l 783 631 q 766 747 783 704 q 706 807 748 789 q 589 825 663 825 l 422 825 q 306 808 349 826 q 246 749 264 791 q 228 632 228 706 l 228 311 q 245 194 228 237 q 306 134 263 152 q 422 117 348 117 m 338 999 q 300 1014 316 999 q 285 1051 285 1030 q 310 1097 285 1081 l 438 1203 q 503 1228 467 1228 l 507 1228 q 572 1203 543 1228 l 701 1097 q 726 1051 726 1080 q 710 1014 726 1030 q 674 999 694 999 q 635 1015 651 999 l 506 1122 l 504 1122 l 376 1015 q 338 999 360 999 z "},"Ồ":{"ha":1011,"x_min":111,"x_max":900,"o":"m 422 0 q 187 76 263 0 q 111 311 111 152 l 111 632 q 188 868 111 792 q 422 942 264 943 l 589 942 q 824 866 749 942 q 900 631 900 790 l 900 311 q 824 76 900 152 q 589 0 749 0 l 422 0 m 422 117 l 589 117 q 706 134 663 117 q 766 194 748 152 q 783 311 783 237 l 783 631 q 766 747 783 704 q 706 807 748 789 q 589 825 663 825 l 422 825 q 306 808 349 826 q 246 749 264 791 q 228 632 228 706 l 228 311 q 245 194 228 237 q 306 134 263 152 q 422 117 348 117 m 293 1144 q 253 1165 272 1144 l 190 1239 q 174 1276 174 1253 q 193 1313 174 1294 q 231 1331 212 1331 q 269 1310 251 1331 l 332 1236 q 349 1199 349 1217 q 330 1163 349 1181 q 293 1144 311 1144 m 338 999 q 300 1014 316 999 q 285 1051 285 1030 q 310 1097 285 1081 l 438 1203 q 503 1228 467 1228 l 507 1228 q 572 1203 543 1228 l 701 1097 q 726 1051 726 1080 q 710 1014 726 1030 q 674 999 694 999 q 635 1015 651 999 l 506 1122 l 504 1122 l 376 1015 q 338 999 360 999 z "},"Ổ":{"ha":1011,"x_min":111,"x_max":900,"o":"m 422 0 q 187 76 263 0 q 111 311 111 152 l 111 632 q 188 868 111 792 q 422 942 264 943 l 589 942 q 824 866 749 942 q 900 631 900 790 l 900 311 q 824 76 900 152 q 589 0 749 0 l 422 0 m 422 117 l 589 117 q 706 134 663 117 q 766 194 748 152 q 783 311 783 237 l 783 631 q 766 747 783 704 q 706 807 748 789 q 589 825 663 825 l 422 825 q 306 808 349 826 q 246 749 264 791 q 228 632 228 706 l 228 311 q 245 194 228 237 q 306 134 263 152 q 422 117 348 117 z "},"Ỗ":{"ha":1011,"x_min":111,"x_max":900,"o":"m 422 0 q 187 76 263 0 q 111 311 111 152 l 111 632 q 188 868 111 792 q 422 942 264 943 l 589 942 q 824 866 749 942 q 900 631 900 790 l 900 311 q 824 76 900 152 q 589 0 749 0 l 422 0 m 422 117 l 589 117 q 706 134 663 117 q 766 194 748 152 q 783 311 783 237 l 783 631 q 766 747 783 704 q 706 807 748 789 q 589 825 663 825 l 422 825 q 306 808 349 826 q 246 749 264 791 q 228 632 228 706 l 228 311 q 245 194 228 237 q 306 134 263 152 q 422 117 348 117 z "},"Ȍ":{"ha":1011,"x_min":111,"x_max":900,"o":"m 422 0 q 187 76 263 0 q 111 311 111 152 l 111 632 q 188 868 111 792 q 422 942 264 943 l 589 942 q 824 866 749 942 q 900 631 900 790 l 900 311 q 824 76 900 152 q 589 0 749 0 l 422 0 m 422 117 l 589 117 q 706 134 663 117 q 766 194 748 152 q 783 311 783 237 l 783 631 q 766 747 783 704 q 706 807 748 789 q 589 825 663 825 l 422 825 q 306 808 349 826 q 246 749 264 791 q 228 632 228 706 l 228 311 q 245 194 228 237 q 306 134 263 152 q 422 117 348 117 z "},"Ö":{"ha":1011,"x_min":111,"x_max":900,"o":"m 422 0 q 187 76 263 0 q 111 311 111 152 l 111 632 q 188 868 111 792 q 422 942 264 943 l 589 942 q 824 866 749 942 q 900 631 900 790 l 900 311 q 824 76 900 152 q 589 0 749 0 l 422 0 m 422 117 l 589 117 q 706 134 663 117 q 766 194 748 152 q 783 311 783 237 l 783 631 q 766 747 783 704 q 706 807 748 789 q 589 825 663 825 l 422 825 q 306 808 349 826 q 246 749 264 791 q 228 632 228 706 l 228 311 q 245 194 228 237 q 306 134 263 152 q 422 117 348 117 z "},"Ȫ":{"ha":1011,"x_min":111,"x_max":900,"o":"m 422 0 q 187 76 263 0 q 111 311 111 152 l 111 632 q 188 868 111 792 q 422 942 264 943 l 589 942 q 824 866 749 942 q 900 631 900 790 l 900 311 q 824 76 900 152 q 589 0 749 0 l 422 0 m 422 117 l 589 117 q 706 134 663 117 q 766 194 748 152 q 783 311 783 237 l 783 631 q 766 747 783 704 q 706 807 748 789 q 589 825 663 825 l 422 825 q 306 808 349 826 q 246 749 264 791 q 228 632 228 706 l 228 311 q 245 194 228 237 q 306 134 263 152 q 422 117 348 117 z "},"Ȱ":{"ha":1011,"x_min":111,"x_max":900,"o":"m 422 0 q 187 76 263 0 q 111 311 111 152 l 111 632 q 188 868 111 792 q 422 942 264 943 l 589 942 q 824 866 749 942 q 900 631 900 790 l 900 311 q 824 76 900 152 q 589 0 749 0 l 422 0 m 422 117 l 589 117 q 706 134 663 117 q 766 194 748 152 q 783 311 783 237 l 783 631 q 766 747 783 704 q 706 807 748 789 q 589 825 663 825 l 422 825 q 306 808 349 826 q 246 749 264 791 q 228 632 228 706 l 228 311 q 245 194 228 237 q 306 134 263 152 q 422 117 348 117 z "},"Ọ":{"ha":1011,"x_min":111,"x_max":900,"o":"m 422 0 q 187 76 263 0 q 111 311 111 152 l 111 632 q 188 868 111 792 q 422 942 264 943 l 589 942 q 824 866 749 942 q 900 631 900 790 l 900 311 q 824 76 900 152 q 589 0 749 0 l 422 0 m 422 117 l 589 117 q 706 134 663 117 q 766 194 748 152 q 783 311 783 237 l 783 631 q 766 747 783 704 q 706 807 748 789 q 589 825 663 825 l 422 825 q 306 808 349 826 q 246 749 264 791 q 228 632 228 706 l 228 311 q 245 194 228 237 q 306 134 263 152 q 422 117 348 117 z "},"Ò":{"ha":1011,"x_min":111,"x_max":900,"o":"m 422 0 q 187 76 263 0 q 111 311 111 152 l 111 632 q 188 868 111 792 q 422 942 264 943 l 589 942 q 824 866 749 942 q 900 631 900 790 l 900 311 q 824 76 900 152 q 589 0 749 0 l 422 0 m 422 117 l 589 117 q 706 134 663 117 q 766 194 748 152 q 783 311 783 237 l 783 631 q 766 747 783 704 q 706 807 748 789 q 589 825 663 825 l 422 825 q 306 808 349 826 q 246 749 264 791 q 228 632 228 706 l 228 311 q 245 194 228 237 q 306 134 263 152 q 422 117 348 117 z "},"Ỏ":{"ha":1011,"x_min":111,"x_max":900,"o":"m 422 0 q 187 76 263 0 q 111 311 111 152 l 111 632 q 188 868 111 792 q 422 942 264 943 l 589 942 q 824 866 749 942 q 900 631 900 790 l 900 311 q 824 76 900 152 q 589 0 749 0 l 422 0 m 422 117 l 589 117 q 706 134 663 117 q 766 194 748 152 q 783 311 783 237 l 783 631 q 766 747 783 704 q 706 807 748 789 q 589 825 663 825 l 422 825 q 306 808 349 826 q 246 749 264 791 q 228 632 228 706 l 228 311 q 245 194 228 237 q 306 134 263 152 q 422 117 348 117 m 506 1015 q 475 1023 484 1015 q 467 1053 467 1031 q 491 1120 467 1098 q 533 1153 515 1142 q 555 1168 550 1163 q 560 1181 560 1172 q 551 1220 560 1211 q 513 1229 542 1229 q 474 1220 483 1229 q 465 1181 465 1211 q 457 1150 465 1159 q 426 1142 449 1142 q 396 1150 405 1142 q 388 1181 388 1159 q 513 1306 388 1306 q 638 1181 638 1306 q 615 1117 638 1138 q 574 1085 592 1095 q 549 1068 554 1074 q 544 1053 544 1063 q 536 1023 544 1031 q 506 1015 528 1015 z "},"Ơ":{"ha":1011,"x_min":111,"x_max":978,"o":"m 422 0 q 187 76 263 0 q 111 311 111 152 l 111 632 q 188 868 111 792 q 422 942 264 943 l 589 942 q 824 866 749 942 q 900 631 900 790 l 900 311 q 824 76 900 152 q 589 0 749 0 l 422 0 m 422 117 l 589 117 q 706 134 663 117 q 766 194 748 152 q 783 311 783 237 l 783 631 q 766 747 783 704 q 706 807 748 789 q 589 825 663 825 l 422 825 q 306 808 349 826 q 246 749 264 791 q 228 632 228 706 l 228 311 q 245 194 228 237 q 306 134 263 152 q 422 117 348 117 m 799 764 l 799 849 q 855 857 840 849 q 869 893 869 866 l 869 929 q 924 965 869 965 q 978 911 978 965 l 978 893 q 950 812 978 840 q 880 774 922 784 q 799 764 839 764 z "},"Ớ":{"ha":1011,"x_min":111,"x_max":978,"o":"m 422 0 q 187 76 263 0 q 111 311 111 152 l 111 632 q 188 868 111 792 q 422 942 264 943 l 589 942 q 824 866 749 942 q 900 631 900 790 l 900 311 q 824 76 900 152 q 589 0 749 0 l 422 0 m 422 117 l 589 117 q 706 134 663 117 q 766 194 748 152 q 783 311 783 237 l 783 631 q 766 747 783 704 q 706 807 748 789 q 589 825 663 825 l 422 825 q 306 808 349 826 q 246 749 264 791 q 228 632 228 706 l 228 311 q 245 194 228 237 q 306 134 263 152 q 422 117 348 117 m 799 764 l 799 849 q 855 857 840 849 q 869 893 869 866 l 869 929 q 924 965 869 965 q 978 911 978 965 l 978 893 q 950 812 978 840 q 880 774 922 784 q 799 764 839 764 z "},"Ợ":{"ha":1011,"x_min":111,"x_max":978,"o":"m 422 0 q 187 76 263 0 q 111 311 111 152 l 111 632 q 188 868 111 792 q 422 942 264 943 l 589 942 q 824 866 749 942 q 900 631 900 790 l 900 311 q 824 76 900 152 q 589 0 749 0 l 422 0 m 422 117 l 589 117 q 706 134 663 117 q 766 194 748 152 q 783 311 783 237 l 783 631 q 766 747 783 704 q 706 807 748 789 q 589 825 663 825 l 422 825 q 306 808 349 826 q 246 749 264 791 q 228 632 228 706 l 228 311 q 245 194 228 237 q 306 134 263 152 q 422 117 348 117 m 799 764 l 799 849 q 855 857 840 849 q 869 893 869 866 l 869 929 q 924 965 869 965 q 978 911 978 965 l 978 893 q 950 812 978 840 q 880 774 922 784 q 799 764 839 764 z "},"Ờ":{"ha":1011,"x_min":111,"x_max":978,"o":"m 422 0 q 187 76 263 0 q 111 311 111 152 l 111 632 q 188 868 111 792 q 422 942 264 943 l 589 942 q 824 866 749 942 q 900 631 900 790 l 900 311 q 824 76 900 152 q 589 0 749 0 l 422 0 m 422 117 l 589 117 q 706 134 663 117 q 766 194 748 152 q 783 311 783 237 l 783 631 q 766 747 783 704 q 706 807 748 789 q 589 825 663 825 l 422 825 q 306 808 349 826 q 246 749 264 791 q 228 632 228 706 l 228 311 q 245 194 228 237 q 306 134 263 152 q 422 117 348 117 m 799 764 l 799 849 q 855 857 840 849 q 869 893 869 866 l 869 929 q 924 965 869 965 q 978 911 978 965 l 978 893 q 950 812 978 840 q 880 774 922 784 q 799 764 839 764 z "},"Ở":{"ha":1011,"x_min":111,"x_max":978,"o":"m 422 0 q 187 76 263 0 q 111 311 111 152 l 111 632 q 188 868 111 792 q 422 942 264 943 l 589 942 q 824 866 749 942 q 900 631 900 790 l 900 311 q 824 76 900 152 q 589 0 749 0 l 422 0 m 422 117 l 589 117 q 706 134 663 117 q 766 194 748 152 q 783 311 783 237 l 783 631 q 766 747 783 704 q 706 807 748 789 q 589 825 663 825 l 422 825 q 306 808 349 826 q 246 749 264 791 q 228 632 228 706 l 228 311 q 245 194 228 237 q 306 134 263 152 q 422 117 348 117 m 799 764 l 799 849 q 855 857 840 849 q 869 893 869 866 l 869 929 q 924 965 869 965 q 978 911 978 965 l 978 893 q 950 812 978 840 q 880 774 922 784 q 799 764 839 764 m 506 1015 q 475 1023 484 1015 q 467 1053 467 1031 q 491 1120 467 1098 q 533 1153 515 1142 q 555 1168 550 1163 q 560 1181 560 1172 q 551 1220 560 1211 q 513 1229 542 1229 q 474 1220 483 1229 q 465 1181 465 1211 q 457 1150 465 1159 q 426 1142 449 1142 q 396 1150 405 1142 q 388 1181 388 1159 q 513 1306 388 1306 q 638 1181 638 1306 q 615 1117 638 1138 q 574 1085 592 1095 q 549 1068 554 1074 q 544 1053 544 1063 q 536 1023 544 1031 q 506 1015 528 1015 z "},"Ỡ":{"ha":1011,"x_min":111,"x_max":978,"o":"m 422 0 q 187 76 263 0 q 111 311 111 152 l 111 632 q 188 868 111 792 q 422 942 264 943 l 589 942 q 824 866 749 942 q 900 631 900 790 l 900 311 q 824 76 900 152 q 589 0 749 0 l 422 0 m 422 117 l 589 117 q 706 134 663 117 q 766 194 748 152 q 783 311 783 237 l 783 631 q 766 747 783 704 q 706 807 748 789 q 589 825 663 825 l 422 825 q 306 808 349 826 q 246 749 264 791 q 228 632 228 706 l 228 311 q 245 194 228 237 q 306 134 263 152 q 422 117 348 117 m 799 764 l 799 849 q 855 857 840 849 q 869 893 869 866 l 869 929 q 924 965 869 965 q 978 911 978 965 l 978 893 q 950 812 978 840 q 880 774 922 784 q 799 764 839 764 z "},"Ő":{"ha":1011,"x_min":111,"x_max":900,"o":"m 422 0 q 187 76 263 0 q 111 311 111 152 l 111 632 q 188 868 111 792 q 422 942 264 943 l 589 942 q 824 866 749 942 q 900 631 900 790 l 900 311 q 824 76 900 152 q 589 0 749 0 l 422 0 m 422 117 l 589 117 q 706 134 663 117 q 766 194 748 152 q 783 311 783 237 l 783 631 q 766 747 783 704 q 706 807 748 789 q 589 825 663 825 l 422 825 q 306 808 349 826 q 246 749 264 791 q 228 632 228 706 l 228 311 q 245 194 228 237 q 306 134 263 152 q 422 117 348 117 z "},"Ȏ":{"ha":1011,"x_min":111,"x_max":900,"o":"m 422 0 q 187 76 263 0 q 111 311 111 152 l 111 632 q 188 868 111 792 q 422 942 264 943 l 589 942 q 824 866 749 942 q 900 631 900 790 l 900 311 q 824 76 900 152 q 589 0 749 0 l 422 0 m 422 117 l 589 117 q 706 134 663 117 q 766 194 748 152 q 783 311 783 237 l 783 631 q 766 747 783 704 q 706 807 748 789 q 589 825 663 825 l 422 825 q 306 808 349 826 q 246 749 264 791 q 228 632 228 706 l 228 311 q 245 194 228 237 q 306 134 263 152 q 422 117 348 117 z "},"Ō":{"ha":1011,"x_min":111,"x_max":900,"o":"m 422 0 q 187 76 263 0 q 111 311 111 152 l 111 632 q 188 868 111 792 q 422 942 264 943 l 589 942 q 824 866 749 942 q 900 631 900 790 l 900 311 q 824 76 900 152 q 589 0 749 0 l 422 0 m 422 117 l 589 117 q 706 134 663 117 q 766 194 748 152 q 783 311 783 237 l 783 631 q 766 747 783 704 q 706 807 748 789 q 589 825 663 825 l 422 825 q 306 808 349 826 q 246 749 264 791 q 228 632 228 706 l 228 311 q 245 194 228 237 q 306 134 263 152 q 422 117 348 117 z "},"Ǫ":{"ha":1011,"x_min":111,"x_max":900,"o":"m 422 0 q 187 76 263 0 q 111 311 111 152 l 111 632 q 188 868 111 792 q 422 942 264 943 l 589 942 q 824 866 749 942 q 900 631 900 790 l 900 311 q 824 76 900 152 q 589 0 749 0 l 422 0 m 422 117 l 589 117 q 706 134 663 117 q 766 194 748 152 q 783 311 783 237 l 783 631 q 766 747 783 704 q 706 807 748 789 q 589 825 663 825 l 422 825 q 306 808 349 826 q 246 749 264 791 q 228 632 228 706 l 228 311 q 245 194 228 237 q 306 134 263 152 q 422 117 348 117 m 689 -243 q 587 -205 628 -243 q 546 -111 546 -167 q 556 -65 546 -89 q 581 -18 565 -40 l 654 89 q 696 110 669 110 q 731 95 717 110 q 746 58 746 81 q 736 29 746 44 l 663 -78 q 647 -111 647 -100 q 659 -133 647 -124 q 689 -142 670 -142 q 722 -132 707 -142 q 756 -108 737 -122 q 772 -99 763 -103 q 792 -94 781 -94 q 828 -109 814 -94 q 843 -144 843 -124 q 829 -181 843 -167 q 689 -243 767 -243 z "},"Ø":{"ha":1011,"x_min":111,"x_max":900,"o":"m 422 0 q 187 76 263 0 q 111 311 111 152 l 111 632 q 188 868 111 792 q 422 942 264 943 l 589 942 q 824 866 749 942 q 900 631 900 790 l 900 311 q 824 76 900 152 q 589 0 749 0 l 422 0 m 422 117 l 589 117 q 706 134 663 117 q 766 194 748 152 q 783 311 783 237 l 783 631 q 766 747 783 704 q 706 807 748 789 q 589 825 663 825 l 422 825 q 306 808 349 826 q 246 749 264 791 q 228 632 228 706 l 228 311 q 245 194 228 237 q 306 134 263 152 q 422 117 348 117 m 178 -32 q 158 43 131 -3 l 721 963 q 796 981 751 1009 q 813 906 842 951 l 253 -14 q 178 -32 223 -60 z "},"Ǿ":{"ha":1011,"x_min":111,"x_max":900,"o":"m 422 0 q 187 76 263 0 q 111 311 111 152 l 111 632 q 188 868 111 792 q 422 942 264 943 l 589 942 q 824 866 749 942 q 900 631 900 790 l 900 311 q 824 76 900 152 q 589 0 749 0 l 422 0 m 422 117 l 589 117 q 706 134 663 117 q 766 194 748 152 q 783 311 783 237 l 783 631 q 766 747 783 704 q 706 807 748 789 q 589 825 663 825 l 422 825 q 306 808 349 826 q 246 749 264 791 q 228 632 228 706 l 228 311 q 245 194 228 237 q 306 134 263 152 q 422 117 348 117 m 178 -32 q 158 43 131 -3 l 721 963 q 796 981 751 1009 q 813 906 842 951 l 253 -14 q 178 -32 223 -60 z "},"Õ":{"ha":1011,"x_min":111,"x_max":900,"o":"m 422 0 q 187 76 263 0 q 111 311 111 152 l 111 632 q 188 868 111 792 q 422 942 264 943 l 589 942 q 824 866 749 942 q 900 631 900 790 l 900 311 q 824 76 900 152 q 589 0 749 0 l 422 0 m 422 117 l 589 117 q 706 134 663 117 q 766 194 748 152 q 783 311 783 237 l 783 631 q 766 747 783 704 q 706 807 748 789 q 589 825 663 825 l 422 825 q 306 808 349 826 q 246 749 264 791 q 228 632 228 706 l 228 311 q 245 194 228 237 q 306 134 263 152 q 422 117 348 117 z "},"Ȭ":{"ha":1011,"x_min":111,"x_max":900,"o":"m 422 0 q 187 76 263 0 q 111 311 111 152 l 111 632 q 188 868 111 792 q 422 942 264 943 l 589 942 q 824 866 749 942 q 900 631 900 790 l 900 311 q 824 76 900 152 q 589 0 749 0 l 422 0 m 422 117 l 589 117 q 706 134 663 117 q 766 194 748 152 q 783 311 783 237 l 783 631 q 766 747 783 704 q 706 807 748 789 q 589 825 663 825 l 422 825 q 306 808 349 826 q 246 749 264 791 q 228 632 228 706 l 228 311 q 245 194 228 237 q 306 134 263 152 q 422 117 348 117 z "},"Œ":{"ha":1238,"x_min":111,"x_max":1160,"o":"m 422 0 q 187 76 263 0 q 111 311 111 152 l 111 632 q 188 867 111 792 q 422 942 264 942 l 1101 942 q 1144 926 1128 942 q 1160 883 1160 910 q 1101 825 1160 825 l 700 825 l 700 533 l 938 533 q 996 475 996 533 q 938 417 996 417 l 700 417 l 700 117 l 1101 117 q 1160 58 1160 117 q 1101 0 1160 0 l 422 0 m 422 117 l 583 117 l 583 825 l 422 825 q 306 808 349 825 q 246 748 264 790 q 228 632 228 706 l 228 311 q 245 194 228 237 q 306 134 263 152 q 422 117 348 117 z "},"P":{"ha":851,"x_min":144,"x_max":790,"o":"m 203 0 q 144 58 144 0 l 144 883 q 203 942 144 942 l 528 942 q 723 874 655 942 q 790 679 790 806 l 790 638 q 723 443 790 510 q 528 375 655 375 l 261 375 l 261 58 q 203 0 261 0 m 261 492 l 528 492 q 640 525 607 492 q 674 638 674 558 l 674 679 q 640 791 674 758 q 528 825 607 825 l 261 825 l 261 492 z "},"Ṗ":{"ha":851,"x_min":144,"x_max":790,"o":"m 203 0 q 144 58 144 0 l 144 883 q 203 942 144 942 l 528 942 q 723 874 655 942 q 790 679 790 806 l 790 638 q 723 443 790 510 q 528 375 655 375 l 261 375 l 261 58 q 203 0 261 0 m 261 492 l 528 492 q 640 525 607 492 q 674 638 674 558 l 674 679 q 640 791 674 758 q 528 825 607 825 l 261 825 l 261 492 z "},"Þ":{"ha":785,"x_min":144,"x_max":724,"o":"m 203 0 q 144 58 144 0 l 144 883 q 203 942 144 942 q 261 883 261 942 l 261 799 l 461 799 q 656 731 588 799 q 724 536 724 663 l 724 494 q 656 300 724 367 q 461 232 588 232 l 261 232 l 261 58 q 203 0 261 0 m 261 349 l 461 349 q 574 382 540 349 q 607 494 607 415 l 607 536 q 574 649 607 615 q 461 682 540 682 l 261 682 l 261 349 z "},"Q":{"ha":1018,"x_min":111,"x_max":908,"o":"m 893 -31 q 907 -64 908 -46 q 889 -99 907 -83 q 819 -97 855 -131 l 581 156 q 565 190 565 172 q 582 224 565 208 q 653 222 617 256 l 893 -31 m 422 0 q 187 76 263 0 q 111 311 111 152 l 111 632 q 188 868 111 792 q 422 942 264 943 l 589 942 q 824 866 749 942 q 900 631 900 790 l 900 311 q 824 76 900 152 q 589 0 749 0 l 422 0 m 422 117 l 589 117 q 706 134 663 117 q 766 194 748 152 q 783 311 783 237 l 783 631 q 766 747 783 704 q 706 807 748 789 q 589 825 663 825 l 422 825 q 306 808 349 826 q 246 749 264 791 q 228 632 228 706 l 228 311 q 245 194 228 237 q 306 134 263 152 q 422 117 348 117 z "},"R":{"ha":868,"x_min":144,"x_max":799,"o":"m 750 -3 q 706 -12 727 -17 q 671 17 685 -6 l 456 375 l 261 375 l 261 58 q 203 0 261 0 q 144 58 144 0 l 144 883 q 203 942 144 942 l 528 942 q 723 874 655 942 q 790 679 790 806 l 790 638 q 739 461 790 527 q 590 380 688 396 l 772 76 q 750 -3 799 28 m 261 492 l 528 492 q 640 525 607 492 q 674 638 674 558 l 674 679 q 640 791 674 758 q 528 825 607 825 l 261 825 l 261 492 z "},"Ŕ":{"ha":868,"x_min":144,"x_max":799,"o":"m 750 -3 q 706 -12 727 -17 q 671 17 685 -6 l 456 375 l 261 375 l 261 58 q 203 0 261 0 q 144 58 144 0 l 144 883 q 203 942 144 942 l 528 942 q 723 874 655 942 q 790 679 790 806 l 790 638 q 739 461 790 527 q 590 380 688 396 l 772 76 q 750 -3 799 28 m 261 492 l 528 492 q 640 525 607 492 q 674 638 674 558 l 674 679 q 640 791 674 758 q 528 825 607 825 l 261 825 l 261 492 z "},"Ř":{"ha":868,"x_min":144,"x_max":799,"o":"m 750 -3 q 706 -12 727 -17 q 671 17 685 -6 l 456 375 l 261 375 l 261 58 q 203 0 261 0 q 144 58 144 0 l 144 883 q 203 942 144 942 l 528 942 q 723 874 655 942 q 790 679 790 806 l 790 638 q 739 461 790 527 q 590 380 688 396 l 772 76 q 750 -3 799 28 m 261 492 l 528 492 q 640 525 607 492 q 674 638 674 558 l 674 679 q 640 791 674 758 q 528 825 607 825 l 261 825 l 261 492 z "},"Ŗ":{"ha":868,"x_min":144,"x_max":799,"o":"m 750 -3 q 706 -12 727 -17 q 671 17 685 -6 l 456 375 l 261 375 l 261 58 q 203 0 261 0 q 144 58 144 0 l 144 883 q 203 942 144 942 l 528 942 q 723 874 655 942 q 790 679 790 806 l 790 638 q 739 461 790 527 q 590 380 688 396 l 772 76 q 750 -3 799 28 m 261 492 l 528 492 q 640 525 607 492 q 674 638 674 558 l 674 679 q 640 791 674 758 q 528 825 607 825 l 261 825 l 261 492 z "},"Ȑ":{"ha":868,"x_min":144,"x_max":799,"o":"m 750 -3 q 706 -12 727 -17 q 671 17 685 -6 l 456 375 l 261 375 l 261 58 q 203 0 261 0 q 144 58 144 0 l 144 883 q 203 942 144 942 l 528 942 q 723 874 655 942 q 790 679 790 806 l 790 638 q 739 461 790 527 q 590 380 688 396 l 772 76 q 750 -3 799 28 m 261 492 l 528 492 q 640 525 607 492 q 674 638 674 558 l 674 679 q 640 791 674 758 q 528 825 607 825 l 261 825 l 261 492 z "},"Ȓ":{"ha":868,"x_min":144,"x_max":799,"o":"m 750 -3 q 706 -12 727 -17 q 671 17 685 -6 l 456 375 l 261 375 l 261 58 q 203 0 261 0 q 144 58 144 0 l 144 883 q 203 942 144 942 l 528 942 q 723 874 655 942 q 790 679 790 806 l 790 638 q 739 461 790 527 q 590 380 688 396 l 772 76 q 750 -3 799 28 m 261 492 l 528 492 q 640 525 607 492 q 674 638 674 558 l 674 679 q 640 791 674 758 q 528 825 607 825 l 261 825 l 261 492 z "},"S":{"ha":962,"x_min":109,"x_max":851,"o":"m 380 0 q 195 48 261 0 q 112 196 128 96 q 124 242 109 226 q 169 257 140 257 q 211 243 198 257 q 230 200 225 229 q 275 134 240 152 q 380 117 309 117 l 580 117 q 702 149 669 117 q 734 269 734 181 q 701 392 734 359 q 580 425 667 425 l 408 425 q 213 489 276 425 q 149 685 149 553 q 212 878 149 815 q 406 942 275 942 l 572 942 q 745 897 682 942 q 824 758 808 851 q 813 713 828 728 q 767 697 798 697 q 726 712 740 697 q 708 754 712 726 q 665 810 697 795 q 572 825 634 825 l 406 825 q 294 795 323 825 q 266 685 266 766 q 295 572 266 603 q 408 542 324 542 l 580 542 q 784 475 717 542 q 851 269 851 408 q 784 66 851 131 q 580 0 717 0 l 380 0 z "},"Ś":{"ha":962,"x_min":109,"x_max":851,"o":"m 380 0 q 195 48 261 0 q 112 196 128 96 q 124 242 109 226 q 169 257 140 257 q 211 243 198 257 q 230 200 225 229 q 275 134 240 152 q 380 117 309 117 l 580 117 q 702 149 669 117 q 734 269 734 181 q 701 392 734 359 q 580 425 667 425 l 408 425 q 213 489 276 425 q 149 685 149 553 q 212 878 149 815 q 406 942 275 942 l 572 942 q 745 897 682 942 q 824 758 808 851 q 813 713 828 728 q 767 697 798 697 q 726 712 740 697 q 708 754 712 726 q 665 810 697 795 q 572 825 634 825 l 406 825 q 294 795 323 825 q 266 685 266 766 q 295 572 266 603 q 408 542 324 542 l 580 542 q 784 475 717 542 q 851 269 851 408 q 784 66 851 131 q 580 0 717 0 l 380 0 z "},"Š":{"ha":962,"x_min":109,"x_max":851,"o":"m 380 0 q 195 48 261 0 q 112 196 128 96 q 124 242 109 226 q 169 257 140 257 q 211 243 198 257 q 230 200 225 229 q 275 134 240 152 q 380 117 309 117 l 580 117 q 702 149 669 117 q 734 269 734 181 q 701 392 734 359 q 580 425 667 425 l 408 425 q 213 489 276 425 q 149 685 149 553 q 212 878 149 815 q 406 942 275 942 l 572 942 q 745 897 682 942 q 824 758 808 851 q 813 713 828 728 q 767 697 798 697 q 726 712 740 697 q 708 754 712 726 q 665 810 697 795 q 572 825 634 825 l 406 825 q 294 795 323 825 q 266 685 266 766 q 295 572 266 603 q 408 542 324 542 l 580 542 q 784 475 717 542 q 851 269 851 408 q 784 66 851 131 q 580 0 717 0 l 380 0 z "},"Ş":{"ha":962,"x_min":109,"x_max":851,"o":"m 380 0 q 195 48 261 0 q 112 196 128 96 q 124 242 109 226 q 169 257 140 257 q 211 243 198 257 q 230 200 225 229 q 275 134 240 152 q 380 117 309 117 l 580 117 q 702 149 669 117 q 734 269 734 181 q 701 392 734 359 q 580 425 667 425 l 408 425 q 213 489 276 425 q 149 685 149 553 q 212 878 149 815 q 406 942 275 942 l 572 942 q 745 897 682 942 q 824 758 808 851 q 813 713 828 728 q 767 697 798 697 q 726 712 740 697 q 708 754 712 726 q 665 810 697 795 q 572 825 634 825 l 406 825 q 294 795 323 825 q 266 685 266 766 q 295 572 266 603 q 408 542 324 542 l 580 542 q 784 475 717 542 q 851 269 851 408 q 784 66 851 131 q 580 0 717 0 l 380 0 z "},"Ŝ":{"ha":962,"x_min":109,"x_max":851,"o":"m 380 0 q 195 48 261 0 q 112 196 128 96 q 124 242 109 226 q 169 257 140 257 q 211 243 198 257 q 230 200 225 229 q 275 134 240 152 q 380 117 309 117 l 580 117 q 702 149 669 117 q 734 269 734 181 q 701 392 734 359 q 580 425 667 425 l 408 425 q 213 489 276 425 q 149 685 149 553 q 212 878 149 815 q 406 942 275 942 l 572 942 q 745 897 682 942 q 824 758 808 851 q 813 713 828 728 q 767 697 798 697 q 726 712 740 697 q 708 754 712 726 q 665 810 697 795 q 572 825 634 825 l 406 825 q 294 795 323 825 q 266 685 266 766 q 295 572 266 603 q 408 542 324 542 l 580 542 q 784 475 717 542 q 851 269 851 408 q 784 66 851 131 q 580 0 717 0 l 380 0 z "},"Ș":{"ha":962,"x_min":109,"x_max":851,"o":"m 380 0 q 195 48 261 0 q 112 196 128 96 q 124 242 109 226 q 169 257 140 257 q 211 243 198 257 q 230 200 225 229 q 275 134 240 152 q 380 117 309 117 l 580 117 q 702 149 669 117 q 734 269 734 181 q 701 392 734 359 q 580 425 667 425 l 408 425 q 213 489 276 425 q 149 685 149 553 q 212 878 149 815 q 406 942 275 942 l 572 942 q 745 897 682 942 q 824 758 808 851 q 813 713 828 728 q 767 697 798 697 q 726 712 740 697 q 708 754 712 726 q 665 810 697 795 q 572 825 634 825 l 406 825 q 294 795 323 825 q 266 685 266 766 q 295 572 266 603 q 408 542 324 542 l 580 542 q 784 475 717 542 q 851 269 851 408 q 784 66 851 131 q 580 0 717 0 l 380 0 z "},"Ṡ":{"ha":962,"x_min":109,"x_max":851,"o":"m 380 0 q 195 48 261 0 q 112 196 128 96 q 124 242 109 226 q 169 257 140 257 q 211 243 198 257 q 230 200 225 229 q 275 134 240 152 q 380 117 309 117 l 580 117 q 702 149 669 117 q 734 269 734 181 q 701 392 734 359 q 580 425 667 425 l 408 425 q 213 489 276 425 q 149 685 149 553 q 212 878 149 815 q 406 942 275 942 l 572 942 q 745 897 682 942 q 824 758 808 851 q 813 713 828 728 q 767 697 798 697 q 726 712 740 697 q 708 754 712 726 q 665 810 697 795 q 572 825 634 825 l 406 825 q 294 795 323 825 q 266 685 266 766 q 295 572 266 603 q 408 542 324 542 l 580 542 q 784 475 717 542 q 851 269 851 408 q 784 66 851 131 q 580 0 717 0 l 380 0 z "},"ẞ":{"ha":846,"x_min":144,"x_max":735,"o":"m 203 -28 q 162 -10 180 -28 q 144 31 144 8 l 144 667 q 208 860 144 797 q 401 924 272 924 l 413 924 q 600 866 538 924 q 668 688 663 808 q 661 648 668 665 q 640 614 655 632 l 569 536 q 695 392 656 467 q 735 224 735 317 q 673 34 735 97 q 483 -28 610 -28 l 386 -28 q 345 -10 363 -28 q 328 31 328 8 q 345 72 328 55 q 386 89 363 89 l 483 89 q 590 117 563 89 q 618 224 618 146 q 580 358 618 300 q 447 479 541 416 l 447 571 l 551 690 q 518 783 549 758 q 413 807 488 807 l 401 807 q 290 778 319 807 q 261 667 261 749 l 261 31 q 243 -10 261 8 q 203 -28 226 -28 z "},"Ə":{"ha":1011,"x_min":111,"x_max":900,"o":"m 422 0 q 187 75 263 0 q 111 311 111 151 l 111 457 l 783 457 l 783 625 q 766 741 783 699 q 706 801 748 783 q 589 819 663 819 l 422 819 q 306 801 348 819 q 245 741 263 783 q 228 625 228 699 q 211 583 228 600 q 169 567 194 567 q 128 583 146 567 q 111 625 111 600 q 187 860 111 785 q 422 936 263 936 l 589 936 q 824 860 749 936 q 900 625 900 785 l 900 311 q 824 75 900 151 q 589 0 749 0 l 422 0 m 422 117 l 589 117 q 706 134 663 117 q 766 194 748 152 q 783 311 783 237 l 783 340 l 228 340 l 228 311 q 245 194 228 237 q 306 134 263 152 q 422 117 348 117 z "},"T":{"ha":853,"x_min":40,"x_max":813,"o":"m 426 0 q 383 15 397 0 q 368 58 368 29 l 368 824 l 99 824 q 55 838 69 824 q 40 882 40 853 q 55 926 40 911 q 99 940 69 940 l 754 940 q 798 926 783 940 q 813 882 813 911 q 798 838 813 853 q 754 824 783 824 l 485 824 l 485 58 q 470 15 485 31 q 426 0 455 0 z "},"Ŧ":{"ha":853,"x_min":40,"x_max":813,"o":"m 426 0 q 383 15 397 0 q 368 58 368 29 l 368 824 l 99 824 q 55 838 69 824 q 40 882 40 853 q 55 926 40 911 q 99 940 69 940 l 754 940 q 798 926 783 940 q 813 882 813 911 q 798 838 813 853 q 754 824 783 824 l 485 824 l 485 58 q 470 15 485 31 q 426 0 455 0 m 246 422 q 197 471 197 422 q 246 519 197 519 l 610 519 q 658 471 658 519 q 610 422 658 422 l 246 422 z "},"Ť":{"ha":853,"x_min":40,"x_max":813,"o":"m 426 0 q 383 15 397 0 q 368 58 368 29 l 368 824 l 99 824 q 55 838 69 824 q 40 882 40 853 q 55 926 40 911 q 99 940 69 940 l 754 940 q 798 926 783 940 q 813 882 813 911 q 798 838 813 853 q 754 824 783 824 l 485 824 l 485 58 q 470 15 485 31 q 426 0 455 0 z "},"Ţ":{"ha":853,"x_min":40,"x_max":813,"o":"m 426 0 q 383 15 397 0 q 368 58 368 29 l 368 824 l 99 824 q 55 838 69 824 q 40 882 40 853 q 55 926 40 911 q 99 940 69 940 l 754 940 q 798 926 783 940 q 813 882 813 911 q 798 838 813 853 q 754 824 783 824 l 485 824 l 485 58 q 470 15 485 31 q 426 0 455 0 z "},"Ț":{"ha":853,"x_min":40,"x_max":813,"o":"m 426 0 q 383 15 397 0 q 368 58 368 29 l 368 824 l 99 824 q 55 838 69 824 q 40 882 40 853 q 55 926 40 911 q 99 940 69 940 l 754 940 q 798 926 783 940 q 813 882 813 911 q 798 838 813 853 q 754 824 783 824 l 485 824 l 485 58 q 470 15 485 31 q 426 0 455 0 z "},"Ṫ":{"ha":853,"x_min":40,"x_max":813,"o":"m 426 0 q 383 15 397 0 q 368 58 368 29 l 368 824 l 99 824 q 55 838 69 824 q 40 882 40 853 q 55 926 40 911 q 99 940 69 940 l 754 940 q 798 926 783 940 q 813 882 813 911 q 798 838 813 853 q 754 824 783 824 l 485 824 l 485 58 q 470 15 485 31 q 426 0 455 0 z "},"U":{"ha":1064,"x_min":138,"x_max":926,"o":"m 449 0 q 214 76 290 0 q 138 311 138 152 l 138 883 q 152 927 138 913 q 196 942 167 942 q 240 927 225 942 q 254 883 254 913 l 254 311 q 272 194 254 237 q 332 134 290 152 q 449 117 374 117 l 615 117 q 732 134 690 117 q 792 194 774 152 q 810 311 810 237 l 810 883 q 824 927 810 913 q 868 942 839 942 q 912 927 897 942 q 926 883 926 913 l 926 311 q 851 76 926 152 q 615 0 775 0 l 449 0 z "},"Ú":{"ha":1064,"x_min":138,"x_max":926,"o":"m 449 0 q 214 76 290 0 q 138 311 138 152 l 138 883 q 152 927 138 913 q 196 942 167 942 q 240 927 225 942 q 254 883 254 913 l 254 311 q 272 194 254 237 q 332 134 290 152 q 449 117 374 117 l 615 117 q 732 134 690 117 q 792 194 774 152 q 810 311 810 237 l 810 883 q 824 927 810 913 q 868 942 839 942 q 912 927 897 942 q 926 883 926 913 l 926 311 q 851 76 926 152 q 615 0 775 0 l 449 0 z "},"Ŭ":{"ha":1064,"x_min":138,"x_max":926,"o":"m 449 0 q 214 76 290 0 q 138 311 138 152 l 138 883 q 152 927 138 913 q 196 942 167 942 q 240 927 225 942 q 254 883 254 913 l 254 311 q 272 194 254 237 q 332 134 290 152 q 449 117 374 117 l 615 117 q 732 134 690 117 q 792 194 774 152 q 810 311 810 237 l 810 883 q 824 927 810 913 q 868 942 839 942 q 912 927 897 942 q 926 883 926 913 l 926 311 q 851 76 926 152 q 615 0 775 0 l 449 0 z "},"Û":{"ha":1064,"x_min":138,"x_max":926,"o":"m 449 0 q 214 76 290 0 q 138 311 138 152 l 138 883 q 152 927 138 913 q 196 942 167 942 q 240 927 225 942 q 254 883 254 913 l 254 311 q 272 194 254 237 q 332 134 290 152 q 449 117 374 117 l 615 117 q 732 134 690 117 q 792 194 774 152 q 810 311 810 237 l 810 883 q 824 927 810 913 q 868 942 839 942 q 912 927 897 942 q 926 883 926 913 l 926 311 q 851 76 926 152 q 615 0 775 0 l 449 0 m 364 999 q 327 1014 342 999 q 311 1051 311 1030 q 336 1097 311 1081 l 464 1203 q 529 1228 493 1228 l 533 1228 q 599 1203 569 1228 l 728 1097 q 753 1051 753 1080 q 737 1014 753 1030 q 700 999 721 999 q 661 1015 678 999 l 532 1122 l 531 1122 l 403 1015 q 364 999 386 999 z "},"Ȕ":{"ha":1064,"x_min":138,"x_max":926,"o":"m 449 0 q 214 76 290 0 q 138 311 138 152 l 138 883 q 152 927 138 913 q 196 942 167 942 q 240 927 225 942 q 254 883 254 913 l 254 311 q 272 194 254 237 q 332 134 290 152 q 449 117 374 117 l 615 117 q 732 134 690 117 q 792 194 774 152 q 810 311 810 237 l 810 883 q 824 927 810 913 q 868 942 839 942 q 912 927 897 942 q 926 883 926 913 l 926 311 q 851 76 926 152 q 615 0 775 0 l 449 0 z "},"Ü":{"ha":1064,"x_min":138,"x_max":926,"o":"m 449 0 q 214 76 290 0 q 138 311 138 152 l 138 883 q 152 927 138 913 q 196 942 167 942 q 240 927 225 942 q 254 883 254 913 l 254 311 q 272 194 254 237 q 332 134 290 152 q 449 117 374 117 l 615 117 q 732 134 690 117 q 792 194 774 152 q 810 311 810 237 l 810 883 q 824 927 810 913 q 868 942 839 942 q 912 927 897 942 q 926 883 926 913 l 926 311 q 851 76 926 152 q 615 0 775 0 l 449 0 z "},"Ụ":{"ha":1064,"x_min":138,"x_max":926,"o":"m 449 0 q 214 76 290 0 q 138 311 138 152 l 138 883 q 152 927 138 913 q 196 942 167 942 q 240 927 225 942 q 254 883 254 913 l 254 311 q 272 194 254 237 q 332 134 290 152 q 449 117 374 117 l 615 117 q 732 134 690 117 q 792 194 774 152 q 810 311 810 237 l 810 883 q 824 927 810 913 q 868 942 839 942 q 912 927 897 942 q 926 883 926 913 l 926 311 q 851 76 926 152 q 615 0 775 0 l 449 0 z "},"Ù":{"ha":1064,"x_min":138,"x_max":926,"o":"m 449 0 q 214 76 290 0 q 138 311 138 152 l 138 883 q 152 927 138 913 q 196 942 167 942 q 240 927 225 942 q 254 883 254 913 l 254 311 q 272 194 254 237 q 332 134 290 152 q 449 117 374 117 l 615 117 q 732 134 690 117 q 792 194 774 152 q 810 311 810 237 l 810 883 q 824 927 810 913 q 868 942 839 942 q 912 927 897 942 q 926 883 926 913 l 926 311 q 851 76 926 152 q 615 0 775 0 l 449 0 z "},"Ủ":{"ha":1064,"x_min":138,"x_max":926,"o":"m 449 0 q 214 76 290 0 q 138 311 138 152 l 138 883 q 152 927 138 913 q 196 942 167 942 q 240 927 225 942 q 254 883 254 913 l 254 311 q 272 194 254 237 q 332 134 290 152 q 449 117 374 117 l 615 117 q 732 134 690 117 q 792 194 774 152 q 810 311 810 237 l 810 883 q 824 927 810 913 q 868 942 839 942 q 912 927 897 942 q 926 883 926 913 l 926 311 q 851 76 926 152 q 615 0 775 0 l 449 0 m 532 1015 q 502 1023 510 1015 q 493 1053 493 1031 q 517 1120 493 1098 q 560 1153 541 1142 q 581 1168 576 1163 q 586 1181 586 1172 q 577 1220 586 1211 q 539 1229 568 1229 q 501 1220 510 1229 q 492 1181 492 1211 q 483 1150 492 1159 q 453 1142 475 1142 q 423 1150 431 1142 q 414 1181 414 1159 q 539 1306 414 1306 q 664 1181 664 1306 q 641 1117 664 1138 q 600 1085 618 1095 q 576 1068 581 1074 q 571 1053 571 1063 q 563 1023 571 1031 q 532 1015 554 1015 z "},"Ư":{"ha":1064,"x_min":138,"x_max":1047,"o":"m 449 0 q 214 76 290 0 q 138 311 138 152 l 138 883 q 152 927 138 913 q 196 942 167 942 q 240 927 225 942 q 254 883 254 913 l 254 311 q 272 194 254 237 q 332 134 290 152 q 449 117 374 117 l 615 117 q 732 134 690 117 q 792 194 774 152 q 810 311 810 237 l 810 883 q 824 927 810 913 q 868 942 839 942 q 912 927 897 942 q 926 883 926 913 l 926 311 q 851 76 926 152 q 615 0 775 0 l 449 0 m 868 857 l 868 942 q 924 950 909 942 q 939 986 939 959 l 939 1022 q 993 1058 939 1058 q 1047 1004 1047 1058 l 1047 986 q 1019 905 1047 933 q 950 867 991 877 q 868 857 908 857 z "},"Ứ":{"ha":1064,"x_min":138,"x_max":1047,"o":"m 449 0 q 214 76 290 0 q 138 311 138 152 l 138 883 q 152 927 138 913 q 196 942 167 942 q 240 927 225 942 q 254 883 254 913 l 254 311 q 272 194 254 237 q 332 134 290 152 q 449 117 374 117 l 615 117 q 732 134 690 117 q 792 194 774 152 q 810 311 810 237 l 810 883 q 824 927 810 913 q 868 942 839 942 q 912 927 897 942 q 926 883 926 913 l 926 311 q 851 76 926 152 q 615 0 775 0 l 449 0 m 868 857 l 868 942 q 924 950 909 942 q 939 986 939 959 l 939 1022 q 993 1058 939 1058 q 1047 1004 1047 1058 l 1047 986 q 1019 905 1047 933 q 950 867 991 877 q 868 857 908 857 z "},"Ự":{"ha":1064,"x_min":138,"x_max":1047,"o":"m 449 0 q 214 76 290 0 q 138 311 138 152 l 138 883 q 152 927 138 913 q 196 942 167 942 q 240 927 225 942 q 254 883 254 913 l 254 311 q 272 194 254 237 q 332 134 290 152 q 449 117 374 117 l 615 117 q 732 134 690 117 q 792 194 774 152 q 810 311 810 237 l 810 883 q 824 927 810 913 q 868 942 839 942 q 912 927 897 942 q 926 883 926 913 l 926 311 q 851 76 926 152 q 615 0 775 0 l 449 0 m 868 857 l 868 942 q 924 950 909 942 q 939 986 939 959 l 939 1022 q 993 1058 939 1058 q 1047 1004 1047 1058 l 1047 986 q 1019 905 1047 933 q 950 867 991 877 q 868 857 908 857 z "},"Ừ":{"ha":1064,"x_min":138,"x_max":1047,"o":"m 449 0 q 214 76 290 0 q 138 311 138 152 l 138 883 q 152 927 138 913 q 196 942 167 942 q 240 927 225 942 q 254 883 254 913 l 254 311 q 272 194 254 237 q 332 134 290 152 q 449 117 374 117 l 615 117 q 732 134 690 117 q 792 194 774 152 q 810 311 810 237 l 810 883 q 824 927 810 913 q 868 942 839 942 q 912 927 897 942 q 926 883 926 913 l 926 311 q 851 76 926 152 q 615 0 775 0 l 449 0 m 868 857 l 868 942 q 924 950 909 942 q 939 986 939 959 l 939 1022 q 993 1058 939 1058 q 1047 1004 1047 1058 l 1047 986 q 1019 905 1047 933 q 950 867 991 877 q 868 857 908 857 z "},"Ử":{"ha":1064,"x_min":138,"x_max":1047,"o":"m 449 0 q 214 76 290 0 q 138 311 138 152 l 138 883 q 152 927 138 913 q 196 942 167 942 q 240 927 225 942 q 254 883 254 913 l 254 311 q 272 194 254 237 q 332 134 290 152 q 449 117 374 117 l 615 117 q 732 134 690 117 q 792 194 774 152 q 810 311 810 237 l 810 883 q 824 927 810 913 q 868 942 839 942 q 912 927 897 942 q 926 883 926 913 l 926 311 q 851 76 926 152 q 615 0 775 0 l 449 0 m 868 857 l 868 942 q 924 950 909 942 q 939 986 939 959 l 939 1022 q 993 1058 939 1058 q 1047 1004 1047 1058 l 1047 986 q 1019 905 1047 933 q 950 867 991 877 q 868 857 908 857 m 532 1015 q 502 1023 510 1015 q 493 1053 493 1031 q 517 1120 493 1098 q 560 1153 541 1142 q 581 1168 576 1163 q 586 1181 586 1172 q 577 1220 586 1211 q 539 1229 568 1229 q 501 1220 510 1229 q 492 1181 492 1211 q 483 1150 492 1159 q 453 1142 475 1142 q 423 1150 431 1142 q 414 1181 414 1159 q 539 1306 414 1306 q 664 1181 664 1306 q 641 1117 664 1138 q 600 1085 618 1095 q 576 1068 581 1074 q 571 1053 571 1063 q 563 1023 571 1031 q 532 1015 554 1015 z "},"Ữ":{"ha":1064,"x_min":138,"x_max":1047,"o":"m 449 0 q 214 76 290 0 q 138 311 138 152 l 138 883 q 152 927 138 913 q 196 942 167 942 q 240 927 225 942 q 254 883 254 913 l 254 311 q 272 194 254 237 q 332 134 290 152 q 449 117 374 117 l 615 117 q 732 134 690 117 q 792 194 774 152 q 810 311 810 237 l 810 883 q 824 927 810 913 q 868 942 839 942 q 912 927 897 942 q 926 883 926 913 l 926 311 q 851 76 926 152 q 615 0 775 0 l 449 0 m 868 857 l 868 942 q 924 950 909 942 q 939 986 939 959 l 939 1022 q 993 1058 939 1058 q 1047 1004 1047 1058 l 1047 986 q 1019 905 1047 933 q 950 867 991 877 q 868 857 908 857 z "},"Ű":{"ha":1064,"x_min":138,"x_max":926,"o":"m 449 0 q 214 76 290 0 q 138 311 138 152 l 138 883 q 152 927 138 913 q 196 942 167 942 q 240 927 225 942 q 254 883 254 913 l 254 311 q 272 194 254 237 q 332 134 290 152 q 449 117 374 117 l 615 117 q 732 134 690 117 q 792 194 774 152 q 810 311 810 237 l 810 883 q 824 927 810 913 q 868 942 839 942 q 912 927 897 942 q 926 883 926 913 l 926 311 q 851 76 926 152 q 615 0 775 0 l 449 0 z "},"Ȗ":{"ha":1064,"x_min":138,"x_max":926,"o":"m 449 0 q 214 76 290 0 q 138 311 138 152 l 138 883 q 152 927 138 913 q 196 942 167 942 q 240 927 225 942 q 254 883 254 913 l 254 311 q 272 194 254 237 q 332 134 290 152 q 449 117 374 117 l 615 117 q 732 134 690 117 q 792 194 774 152 q 810 311 810 237 l 810 883 q 824 927 810 913 q 868 942 839 942 q 912 927 897 942 q 926 883 926 913 l 926 311 q 851 76 926 152 q 615 0 775 0 l 449 0 z "},"Ū":{"ha":1064,"x_min":138,"x_max":926,"o":"m 449 0 q 214 76 290 0 q 138 311 138 152 l 138 883 q 152 927 138 913 q 196 942 167 942 q 240 927 225 942 q 254 883 254 913 l 254 311 q 272 194 254 237 q 332 134 290 152 q 449 117 374 117 l 615 117 q 732 134 690 117 q 792 194 774 152 q 810 311 810 237 l 810 883 q 824 927 810 913 q 868 942 839 942 q 912 927 897 942 q 926 883 926 913 l 926 311 q 851 76 926 152 q 615 0 775 0 l 449 0 z "},"Ų":{"ha":1064,"x_min":138,"x_max":926,"o":"m 449 0 q 214 76 290 0 q 138 311 138 152 l 138 883 q 152 927 138 913 q 196 942 167 942 q 240 927 225 942 q 254 883 254 913 l 254 311 q 272 194 254 237 q 332 134 290 152 q 449 117 374 117 l 615 117 q 732 134 690 117 q 792 194 774 152 q 810 311 810 237 l 810 883 q 824 927 810 913 q 868 942 839 942 q 912 927 897 942 q 926 883 926 913 l 926 311 q 851 76 926 152 q 615 0 775 0 l 449 0 m 775 -229 q 673 -191 715 -229 q 632 -99 632 -153 q 667 -4 632 -50 l 775 139 q 794 156 785 151 q 813 161 804 161 q 849 147 828 161 q 869 111 869 132 q 856 78 869 96 l 749 -64 q 733 -99 733 -85 q 745 -119 733 -111 q 775 -128 756 -128 q 798 -126 790 -128 q 815 -122 807 -124 q 825 -120 821 -121 q 833 -119 829 -119 q 875 -136 864 -119 q 886 -174 886 -153 q 881 -192 886 -183 q 863 -208 876 -202 q 820 -223 843 -217 q 775 -229 798 -229 z "},"Ů":{"ha":1064,"x_min":138,"x_max":926,"o":"m 449 0 q 214 76 290 0 q 138 311 138 152 l 138 883 q 152 927 138 913 q 196 942 167 942 q 240 927 225 942 q 254 883 254 913 l 254 311 q 272 194 254 237 q 332 134 290 152 q 449 117 374 117 l 615 117 q 732 134 690 117 q 792 194 774 152 q 810 311 810 237 l 810 883 q 824 927 810 913 q 868 942 839 942 q 912 927 897 942 q 926 883 926 913 l 926 311 q 851 76 926 152 q 615 0 775 0 l 449 0 z "},"Ũ":{"ha":1064,"x_min":138,"x_max":926,"o":"m 449 0 q 214 76 290 0 q 138 311 138 152 l 138 883 q 152 927 138 913 q 196 942 167 942 q 240 927 225 942 q 254 883 254 913 l 254 311 q 272 194 254 237 q 332 134 290 152 q 449 117 374 117 l 615 117 q 732 134 690 117 q 792 194 774 152 q 810 311 810 237 l 810 883 q 824 927 810 913 q 868 942 839 942 q 912 927 897 942 q 926 883 926 913 l 926 311 q 851 76 926 152 q 615 0 775 0 l 449 0 z "},"V":{"ha":893,"x_min":30,"x_max":864,"o":"m 440 0 q 383 46 404 0 l 40 858 q 35 902 30 883 q 67 933 40 921 q 147 904 124 962 l 472 136 l 431 136 l 747 904 q 828 933 770 961 q 858 902 852 921 q 854 858 864 883 l 508 46 q 446 0 487 0 l 440 0 z "},"W":{"ha":1244,"x_min":27,"x_max":1217,"o":"m 347 0 q 292 50 308 0 l 35 864 q 43 917 27 890 q 91 943 60 943 q 123 932 108 943 q 145 899 138 922 l 372 178 l 341 178 l 556 892 q 582 929 564 917 q 620 942 601 942 q 660 929 641 942 q 687 892 680 917 l 902 178 l 872 178 l 1098 899 q 1120 932 1106 922 q 1151 942 1134 942 q 1199 918 1181 942 q 1208 864 1217 894 l 951 50 q 890 0 934 0 l 887 0 q 826 50 840 0 l 602 774 l 633 774 l 408 50 q 387 13 401 25 q 347 0 374 0 z "},"Ẃ":{"ha":1244,"x_min":27,"x_max":1217,"o":"m 347 0 q 292 50 308 0 l 35 864 q 43 917 27 890 q 91 943 60 943 q 123 932 108 943 q 145 899 138 922 l 372 178 l 341 178 l 556 892 q 582 929 564 917 q 620 942 601 942 q 660 929 641 942 q 687 892 680 917 l 902 178 l 872 178 l 1098 899 q 1120 932 1106 922 q 1151 942 1134 942 q 1199 918 1181 942 q 1208 864 1217 894 l 951 50 q 890 0 934 0 l 887 0 q 826 50 840 0 l 602 774 l 633 774 l 408 50 q 387 13 401 25 q 347 0 374 0 z "},"Ŵ":{"ha":1244,"x_min":27,"x_max":1217,"o":"m 347 0 q 292 50 308 0 l 35 864 q 43 917 27 890 q 91 943 60 943 q 123 932 108 943 q 145 899 138 922 l 372 178 l 341 178 l 556 892 q 582 929 564 917 q 620 942 601 942 q 660 929 641 942 q 687 892 680 917 l 902 178 l 872 178 l 1098 899 q 1120 932 1106 922 q 1151 942 1134 942 q 1199 918 1181 942 q 1208 864 1217 894 l 951 50 q 890 0 934 0 l 887 0 q 826 50 840 0 l 602 774 l 633 774 l 408 50 q 387 13 401 25 q 347 0 374 0 m 455 999 q 418 1014 433 999 q 402 1051 402 1030 q 427 1097 402 1081 l 555 1203 q 620 1228 584 1228 l 624 1228 q 690 1203 660 1228 l 819 1097 q 844 1051 844 1080 q 828 1014 844 1030 q 791 999 812 999 q 752 1015 769 999 l 623 1122 l 622 1122 l 494 1015 q 455 999 477 999 z "},"Ẅ":{"ha":1244,"x_min":27,"x_max":1217,"o":"m 347 0 q 292 50 308 0 l 35 864 q 43 917 27 890 q 91 943 60 943 q 123 932 108 943 q 145 899 138 922 l 372 178 l 341 178 l 556 892 q 582 929 564 917 q 620 942 601 942 q 660 929 641 942 q 687 892 680 917 l 902 178 l 872 178 l 1098 899 q 1120 932 1106 922 q 1151 942 1134 942 q 1199 918 1181 942 q 1208 864 1217 894 l 951 50 q 890 0 934 0 l 887 0 q 826 50 840 0 l 602 774 l 633 774 l 408 50 q 387 13 401 25 q 347 0 374 0 z "},"Ẁ":{"ha":1244,"x_min":27,"x_max":1217,"o":"m 347 0 q 292 50 308 0 l 35 864 q 43 917 27 890 q 91 943 60 943 q 123 932 108 943 q 145 899 138 922 l 372 178 l 341 178 l 556 892 q 582 929 564 917 q 620 942 601 942 q 660 929 641 942 q 687 892 680 917 l 902 178 l 872 178 l 1098 899 q 1120 932 1106 922 q 1151 942 1134 942 q 1199 918 1181 942 q 1208 864 1217 894 l 951 50 q 890 0 934 0 l 887 0 q 826 50 840 0 l 602 774 l 633 774 l 408 50 q 387 13 401 25 q 347 0 374 0 z "},"X":{"ha":869,"x_min":60,"x_max":814,"o":"m 119 13 q 106 94 73 44 l 360 469 l 92 847 q 107 929 60 893 q 188 914 155 962 l 436 565 l 686 914 q 767 926 722 960 q 781 846 814 892 l 507 465 l 769 96 q 754 13 802 48 q 674 28 706 -20 l 432 368 l 201 26 q 119 13 169 -19 z "},"Y":{"ha":854,"x_min":15,"x_max":842,"o":"m 420 0 q 362 58 362 0 l 362 342 l 44 849 q 62 931 15 899 q 142 913 112 961 l 420 467 l 712 913 q 747 940 726 935 q 791 928 768 944 q 809 849 842 897 l 478 342 l 478 58 q 420 0 478 0 z "},"Ý":{"ha":854,"x_min":15,"x_max":842,"o":"m 420 0 q 362 58 362 0 l 362 342 l 44 849 q 62 931 15 899 q 142 913 112 961 l 420 467 l 712 913 q 747 940 726 935 q 791 928 768 944 q 809 849 842 897 l 478 342 l 478 58 q 420 0 478 0 z "},"Ŷ":{"ha":854,"x_min":15,"x_max":842,"o":"m 420 0 q 362 58 362 0 l 362 342 l 44 849 q 62 931 15 899 q 142 913 112 961 l 420 467 l 712 913 q 747 940 726 935 q 791 928 768 944 q 809 849 842 897 l 478 342 l 478 58 q 420 0 478 0 m 258 999 q 220 1014 236 999 q 205 1051 205 1030 q 230 1097 205 1081 l 358 1203 q 423 1228 387 1228 l 427 1228 q 492 1203 463 1228 l 622 1097 q 647 1051 647 1080 q 631 1014 647 1030 q 594 999 615 999 q 555 1015 572 999 l 426 1122 l 424 1122 l 297 1015 q 258 999 280 999 z "},"Ÿ":{"ha":854,"x_min":15,"x_max":842,"o":"m 420 0 q 362 58 362 0 l 362 342 l 44 849 q 62 931 15 899 q 142 913 112 961 l 420 467 l 712 913 q 747 940 726 935 q 791 928 768 944 q 809 849 842 897 l 478 342 l 478 58 q 420 0 478 0 z "},"Ỵ":{"ha":854,"x_min":15,"x_max":842,"o":"m 420 0 q 362 58 362 0 l 362 342 l 44 849 q 62 931 15 899 q 142 913 112 961 l 420 467 l 712 913 q 747 940 726 935 q 791 928 768 944 q 809 849 842 897 l 478 342 l 478 58 q 420 0 478 0 z "},"Ỳ":{"ha":854,"x_min":15,"x_max":842,"o":"m 420 0 q 362 58 362 0 l 362 342 l 44 849 q 62 931 15 899 q 142 913 112 961 l 420 467 l 712 913 q 747 940 726 935 q 791 928 768 944 q 809 849 842 897 l 478 342 l 478 58 q 420 0 478 0 z "},"Ỷ":{"ha":854,"x_min":15,"x_max":842,"o":"m 420 0 q 362 58 362 0 l 362 342 l 44 849 q 62 931 15 899 q 142 913 112 961 l 420 467 l 712 913 q 747 940 726 935 q 791 928 768 944 q 809 849 842 897 l 478 342 l 478 58 q 420 0 478 0 m 426 1015 q 395 1023 404 1015 q 387 1053 387 1031 q 411 1120 387 1098 q 453 1153 435 1142 q 475 1168 470 1163 q 480 1181 480 1172 q 471 1220 480 1211 q 433 1229 462 1229 q 394 1220 403 1229 q 385 1181 385 1211 q 377 1150 385 1159 q 347 1142 369 1142 q 316 1150 325 1142 q 308 1181 308 1159 q 433 1306 308 1306 q 558 1181 558 1306 q 535 1117 558 1138 q 494 1085 512 1095 q 469 1068 474 1074 q 465 1053 465 1063 q 456 1023 465 1031 q 426 1015 448 1015 z "},"Ȳ":{"ha":854,"x_min":15,"x_max":842,"o":"m 420 0 q 362 58 362 0 l 362 342 l 44 849 q 62 931 15 899 q 142 913 112 961 l 420 467 l 712 913 q 747 940 726 935 q 791 928 768 944 q 809 849 842 897 l 478 342 l 478 58 q 420 0 478 0 z "},"Ỹ":{"ha":854,"x_min":15,"x_max":842,"o":"m 420 0 q 362 58 362 0 l 362 342 l 44 849 q 62 931 15 899 q 142 913 112 961 l 420 467 l 712 913 q 747 940 726 935 q 791 928 768 944 q 809 849 842 897 l 478 342 l 478 58 q 420 0 478 0 z "},"Z":{"ha":957,"x_min":70,"x_max":886,"o":"m 144 0 q 88 58 88 0 q 93 80 88 68 q 110 108 99 92 l 668 839 l 668 825 l 297 825 q 228 812 253 825 q 193 768 203 799 q 174 728 187 742 q 132 714 160 714 q 86 730 103 714 q 75 775 70 746 q 148 899 92 856 q 297 942 203 942 l 761 942 q 819 883 819 942 q 815 860 819 872 q 797 831 810 847 l 246 111 l 246 117 l 657 117 q 729 130 704 117 q 763 174 754 142 q 784 214 770 200 q 825 228 797 228 q 870 212 854 228 q 882 167 886 196 q 657 0 848 0 l 144 0 z "},"Ź":{"ha":957,"x_min":70,"x_max":886,"o":"m 144 0 q 88 58 88 0 q 93 80 88 68 q 110 108 99 92 l 668 839 l 668 825 l 297 825 q 228 812 253 825 q 193 768 203 799 q 174 728 187 742 q 132 714 160 714 q 86 730 103 714 q 75 775 70 746 q 148 899 92 856 q 297 942 203 942 l 761 942 q 819 883 819 942 q 815 860 819 872 q 797 831 810 847 l 246 111 l 246 117 l 657 117 q 729 130 704 117 q 763 174 754 142 q 784 214 770 200 q 825 228 797 228 q 870 212 854 228 q 882 167 886 196 q 657 0 848 0 l 144 0 z "},"Ž":{"ha":957,"x_min":70,"x_max":886,"o":"m 144 0 q 88 58 88 0 q 93 80 88 68 q 110 108 99 92 l 668 839 l 668 825 l 297 825 q 228 812 253 825 q 193 768 203 799 q 174 728 187 742 q 132 714 160 714 q 86 730 103 714 q 75 775 70 746 q 148 899 92 856 q 297 942 203 942 l 761 942 q 819 883 819 942 q 815 860 819 872 q 797 831 810 847 l 246 111 l 246 117 l 657 117 q 729 130 704 117 q 763 174 754 142 q 784 214 770 200 q 825 228 797 228 q 870 212 854 228 q 882 167 886 196 q 657 0 848 0 l 144 0 z "},"Ż":{"ha":957,"x_min":70,"x_max":886,"o":"m 144 0 q 88 58 88 0 q 93 80 88 68 q 110 108 99 92 l 668 839 l 668 825 l 297 825 q 228 812 253 825 q 193 768 203 799 q 174 728 187 742 q 132 714 160 714 q 86 730 103 714 q 75 775 70 746 q 148 899 92 856 q 297 942 203 942 l 761 942 q 819 883 819 942 q 815 860 819 872 q 797 831 810 847 l 246 111 l 246 117 l 657 117 q 729 130 704 117 q 763 174 754 142 q 784 214 770 200 q 825 228 797 228 q 870 212 854 228 q 882 167 886 196 q 657 0 848 0 l 144 0 z "},"a":{"ha":903,"x_min":131,"x_max":772,"o":"m 361 0 q 188 57 244 0 q 131 231 131 114 q 187 404 131 347 q 361 461 244 461 l 655 461 q 617 561 651 534 q 500 588 583 588 l 419 588 q 316 578 350 588 q 268 544 282 569 q 242 504 256 515 q 203 493 229 493 q 157 509 174 493 q 147 553 140 526 q 234 668 168 631 q 419 704 301 704 l 500 704 q 706 638 639 704 q 772 432 772 571 l 772 58 q 714 0 772 0 q 656 58 656 0 l 656 90 q 439 0 581 0 l 361 0 m 361 117 l 439 117 q 535 126 490 117 q 613 160 581 135 q 656 232 645 185 l 656 344 l 361 344 q 270 322 292 344 q 247 231 247 299 q 270 139 247 162 q 361 117 292 117 z "},"á":{"ha":903,"x_min":131,"x_max":772,"o":"m 361 0 q 188 57 244 0 q 131 231 131 114 q 187 404 131 347 q 361 461 244 461 l 655 461 q 617 561 651 534 q 500 588 583 588 l 419 588 q 316 578 350 588 q 268 544 282 569 q 242 504 256 515 q 203 493 229 493 q 157 509 174 493 q 147 553 140 526 q 234 668 168 631 q 419 704 301 704 l 500 704 q 706 638 639 704 q 772 432 772 571 l 772 58 q 714 0 772 0 q 656 58 656 0 l 656 90 q 439 0 581 0 l 361 0 m 361 117 l 439 117 q 535 126 490 117 q 613 160 581 135 q 656 232 645 185 l 656 344 l 361 344 q 270 322 292 344 q 247 231 247 299 q 270 139 247 162 q 361 117 292 117 z "},"ă":{"ha":903,"x_min":131,"x_max":772,"o":"m 361 0 q 188 57 244 0 q 131 231 131 114 q 187 404 131 347 q 361 461 244 461 l 655 461 q 617 561 651 534 q 500 588 583 588 l 419 588 q 316 578 350 588 q 268 544 282 569 q 242 504 256 515 q 203 493 229 493 q 157 509 174 493 q 147 553 140 526 q 234 668 168 631 q 419 704 301 704 l 500 704 q 706 638 639 704 q 772 432 772 571 l 772 58 q 714 0 772 0 q 656 58 656 0 l 656 90 q 439 0 581 0 l 361 0 m 361 117 l 439 117 q 535 126 490 117 q 613 160 581 135 q 656 232 645 185 l 656 344 l 361 344 q 270 322 292 344 q 247 231 247 299 q 270 139 247 162 q 361 117 292 117 z "},"ắ":{"ha":903,"x_min":131,"x_max":772,"o":"m 361 0 q 188 57 244 0 q 131 231 131 114 q 187 404 131 347 q 361 461 244 461 l 655 461 q 617 561 651 534 q 500 588 583 588 l 419 588 q 316 578 350 588 q 268 544 282 569 q 242 504 256 515 q 203 493 229 493 q 157 509 174 493 q 147 553 140 526 q 234 668 168 631 q 419 704 301 704 l 500 704 q 706 638 639 704 q 772 432 772 571 l 772 58 q 714 0 772 0 q 656 58 656 0 l 656 90 q 439 0 581 0 l 361 0 m 361 117 l 439 117 q 535 126 490 117 q 613 160 581 135 q 656 232 645 185 l 656 344 l 361 344 q 270 322 292 344 q 247 231 247 299 q 270 139 247 162 q 361 117 292 117 z "},"ặ":{"ha":903,"x_min":131,"x_max":772,"o":"m 361 0 q 188 57 244 0 q 131 231 131 114 q 187 404 131 347 q 361 461 244 461 l 655 461 q 617 561 651 534 q 500 588 583 588 l 419 588 q 316 578 350 588 q 268 544 282 569 q 242 504 256 515 q 203 493 229 493 q 157 509 174 493 q 147 553 140 526 q 234 668 168 631 q 419 704 301 704 l 500 704 q 706 638 639 704 q 772 432 772 571 l 772 58 q 714 0 772 0 q 656 58 656 0 l 656 90 q 439 0 581 0 l 361 0 m 361 117 l 439 117 q 535 126 490 117 q 613 160 581 135 q 656 232 645 185 l 656 344 l 361 344 q 270 322 292 344 q 247 231 247 299 q 270 139 247 162 q 361 117 292 117 z "},"ằ":{"ha":903,"x_min":131,"x_max":772,"o":"m 361 0 q 188 57 244 0 q 131 231 131 114 q 187 404 131 347 q 361 461 244 461 l 655 461 q 617 561 651 534 q 500 588 583 588 l 419 588 q 316 578 350 588 q 268 544 282 569 q 242 504 256 515 q 203 493 229 493 q 157 509 174 493 q 147 553 140 526 q 234 668 168 631 q 419 704 301 704 l 500 704 q 706 638 639 704 q 772 432 772 571 l 772 58 q 714 0 772 0 q 656 58 656 0 l 656 90 q 439 0 581 0 l 361 0 m 361 117 l 439 117 q 535 126 490 117 q 613 160 581 135 q 656 232 645 185 l 656 344 l 361 344 q 270 322 292 344 q 247 231 247 299 q 270 139 247 162 q 361 117 292 117 z "},"ẳ":{"ha":903,"x_min":131,"x_max":772,"o":"m 361 0 q 188 57 244 0 q 131 231 131 114 q 187 404 131 347 q 361 461 244 461 l 655 461 q 617 561 651 534 q 500 588 583 588 l 419 588 q 316 578 350 588 q 268 544 282 569 q 242 504 256 515 q 203 493 229 493 q 157 509 174 493 q 147 553 140 526 q 234 668 168 631 q 419 704 301 704 l 500 704 q 706 638 639 704 q 772 432 772 571 l 772 58 q 714 0 772 0 q 656 58 656 0 l 656 90 q 439 0 581 0 l 361 0 m 361 117 l 439 117 q 535 126 490 117 q 613 160 581 135 q 656 232 645 185 l 656 344 l 361 344 q 270 322 292 344 q 247 231 247 299 q 270 139 247 162 q 361 117 292 117 z "},"ẵ":{"ha":903,"x_min":131,"x_max":772,"o":"m 361 0 q 188 57 244 0 q 131 231 131 114 q 187 404 131 347 q 361 461 244 461 l 655 461 q 617 561 651 534 q 500 588 583 588 l 419 588 q 316 578 350 588 q 268 544 282 569 q 242 504 256 515 q 203 493 229 493 q 157 509 174 493 q 147 553 140 526 q 234 668 168 631 q 419 704 301 704 l 500 704 q 706 638 639 704 q 772 432 772 571 l 772 58 q 714 0 772 0 q 656 58 656 0 l 656 90 q 439 0 581 0 l 361 0 m 361 117 l 439 117 q 535 126 490 117 q 613 160 581 135 q 656 232 645 185 l 656 344 l 361 344 q 270 322 292 344 q 247 231 247 299 q 270 139 247 162 q 361 117 292 117 z "},"â":{"ha":903,"x_min":131,"x_max":772,"o":"m 361 0 q 188 57 244 0 q 131 231 131 114 q 187 404 131 347 q 361 461 244 461 l 655 461 q 617 561 651 534 q 500 588 583 588 l 419 588 q 316 578 350 588 q 268 544 282 569 q 242 504 256 515 q 203 493 229 493 q 157 509 174 493 q 147 553 140 526 q 234 668 168 631 q 419 704 301 704 l 500 704 q 706 638 639 704 q 772 432 772 571 l 772 58 q 714 0 772 0 q 656 58 656 0 l 656 90 q 439 0 581 0 l 361 0 m 361 117 l 439 117 q 535 126 490 117 q 613 160 581 135 q 656 232 645 185 l 656 344 l 361 344 q 270 322 292 344 q 247 231 247 299 q 270 139 247 162 q 361 117 292 117 z "},"ấ":{"ha":903,"x_min":131,"x_max":795,"o":"m 361 0 q 188 57 244 0 q 131 231 131 114 q 187 404 131 347 q 361 461 244 461 l 655 461 q 617 561 651 534 q 500 588 583 588 l 419 588 q 316 578 350 588 q 268 544 282 569 q 242 504 256 515 q 203 493 229 493 q 157 509 174 493 q 147 553 140 526 q 234 668 168 631 q 419 704 301 704 l 500 704 q 706 638 639 704 q 772 432 772 571 l 772 58 q 714 0 772 0 q 656 58 656 0 l 656 90 q 439 0 581 0 l 361 0 m 361 117 l 439 117 q 535 126 490 117 q 613 160 581 135 q 656 232 645 185 l 656 344 l 361 344 q 270 322 292 344 q 247 231 247 299 q 270 139 247 162 q 361 117 292 117 m 613 885 q 591 918 594 899 q 607 956 588 937 l 682 1033 q 753 1039 717 1069 q 760 968 795 1006 l 683 890 q 613 885 648 855 m 314 778 q 280 792 294 778 q 265 826 265 807 q 269 844 265 836 q 279 860 272 853 l 381 961 q 442 988 405 988 l 450 988 q 511 961 487 988 l 613 860 q 623 844 620 853 q 626 826 626 836 q 612 792 626 807 q 578 778 598 778 q 543 792 555 778 l 454 890 l 438 890 l 349 792 q 314 778 335 778 z "},"ậ":{"ha":903,"x_min":131,"x_max":772,"o":"m 361 0 q 188 57 244 0 q 131 231 131 114 q 187 404 131 347 q 361 461 244 461 l 655 461 q 617 561 651 534 q 500 588 583 588 l 419 588 q 316 578 350 588 q 268 544 282 569 q 242 504 256 515 q 203 493 229 493 q 157 509 174 493 q 147 553 140 526 q 234 668 168 631 q 419 704 301 704 l 500 704 q 706 638 639 704 q 772 432 772 571 l 772 58 q 714 0 772 0 q 656 58 656 0 l 656 90 q 439 0 581 0 l 361 0 m 361 117 l 439 117 q 535 126 490 117 q 613 160 581 135 q 656 232 645 185 l 656 344 l 361 344 q 270 322 292 344 q 247 231 247 299 q 270 139 247 162 q 361 117 292 117 z "},"ầ":{"ha":903,"x_min":105,"x_max":772,"o":"m 361 0 q 188 57 244 0 q 131 231 131 114 q 187 404 131 347 q 361 461 244 461 l 655 461 q 617 561 651 534 q 500 588 583 588 l 419 588 q 316 578 350 588 q 268 544 282 569 q 242 504 256 515 q 203 493 229 493 q 157 509 174 493 q 147 553 140 526 q 234 668 168 631 q 419 704 301 704 l 500 704 q 706 638 639 704 q 772 432 772 571 l 772 58 q 714 0 772 0 q 656 58 656 0 l 656 90 q 439 0 581 0 l 361 0 m 361 117 l 439 117 q 535 126 490 117 q 613 160 581 135 q 656 232 645 185 l 656 344 l 361 344 q 270 322 292 344 q 247 231 247 299 q 270 139 247 162 q 361 117 292 117 m 268 885 q 197 890 233 855 l 122 968 q 107 1005 105 986 q 128 1039 109 1024 q 199 1033 163 1069 l 275 956 q 291 918 293 937 q 268 885 288 899 m 313 778 q 278 792 293 778 q 264 826 264 807 q 267 844 264 836 q 278 860 271 853 l 379 961 q 440 988 403 988 l 449 988 q 510 961 485 988 l 611 860 q 622 844 619 853 q 625 826 625 836 q 611 792 625 807 q 576 778 597 778 q 542 792 553 778 l 453 890 l 436 890 l 347 792 q 313 778 333 778 z "},"ẩ":{"ha":903,"x_min":131,"x_max":772,"o":"m 361 0 q 188 57 244 0 q 131 231 131 114 q 187 404 131 347 q 361 461 244 461 l 655 461 q 617 561 651 534 q 500 588 583 588 l 419 588 q 316 578 350 588 q 268 544 282 569 q 242 504 256 515 q 203 493 229 493 q 157 509 174 493 q 147 553 140 526 q 234 668 168 631 q 419 704 301 704 l 500 704 q 706 638 639 704 q 772 432 772 571 l 772 58 q 714 0 772 0 q 656 58 656 0 l 656 90 q 439 0 581 0 l 361 0 m 361 117 l 439 117 q 535 126 490 117 q 613 160 581 135 q 656 232 645 185 l 656 344 l 361 344 q 270 322 292 344 q 247 231 247 299 q 270 139 247 162 q 361 117 292 117 z "},"ẫ":{"ha":903,"x_min":131,"x_max":772,"o":"m 361 0 q 188 57 244 0 q 131 231 131 114 q 187 404 131 347 q 361 461 244 461 l 655 461 q 617 561 651 534 q 500 588 583 588 l 419 588 q 316 578 350 588 q 268 544 282 569 q 242 504 256 515 q 203 493 229 493 q 157 509 174 493 q 147 553 140 526 q 234 668 168 631 q 419 704 301 704 l 500 704 q 706 638 639 704 q 772 432 772 571 l 772 58 q 714 0 772 0 q 656 58 656 0 l 656 90 q 439 0 581 0 l 361 0 m 361 117 l 439 117 q 535 126 490 117 q 613 160 581 135 q 656 232 645 185 l 656 344 l 361 344 q 270 322 292 344 q 247 231 247 299 q 270 139 247 162 q 361 117 292 117 z "},"ȁ":{"ha":903,"x_min":131,"x_max":772,"o":"m 361 0 q 188 57 244 0 q 131 231 131 114 q 187 404 131 347 q 361 461 244 461 l 655 461 q 617 561 651 534 q 500 588 583 588 l 419 588 q 316 578 350 588 q 268 544 282 569 q 242 504 256 515 q 203 493 229 493 q 157 509 174 493 q 147 553 140 526 q 234 668 168 631 q 419 704 301 704 l 500 704 q 706 638 639 704 q 772 432 772 571 l 772 58 q 714 0 772 0 q 656 58 656 0 l 656 90 q 439 0 581 0 l 361 0 m 361 117 l 439 117 q 535 126 490 117 q 613 160 581 135 q 656 232 645 185 l 656 344 l 361 344 q 270 322 292 344 q 247 231 247 299 q 270 139 247 162 q 361 117 292 117 z "},"ä":{"ha":903,"x_min":131,"x_max":772,"o":"m 361 0 q 188 57 244 0 q 131 231 131 114 q 187 404 131 347 q 361 461 244 461 l 655 461 q 617 561 651 534 q 500 588 583 588 l 419 588 q 316 578 350 588 q 268 544 282 569 q 242 504 256 515 q 203 493 229 493 q 157 509 174 493 q 147 553 140 526 q 234 668 168 631 q 419 704 301 704 l 500 704 q 706 638 639 704 q 772 432 772 571 l 772 58 q 714 0 772 0 q 656 58 656 0 l 656 90 q 439 0 581 0 l 361 0 m 361 117 l 439 117 q 535 126 490 117 q 613 160 581 135 q 656 232 645 185 l 656 344 l 361 344 q 270 322 292 344 q 247 231 247 299 q 270 139 247 162 q 361 117 292 117 z "},"ạ":{"ha":903,"x_min":131,"x_max":772,"o":"m 361 0 q 188 57 244 0 q 131 231 131 114 q 187 404 131 347 q 361 461 244 461 l 655 461 q 617 561 651 534 q 500 588 583 588 l 419 588 q 316 578 350 588 q 268 544 282 569 q 242 504 256 515 q 203 493 229 493 q 157 509 174 493 q 147 553 140 526 q 234 668 168 631 q 419 704 301 704 l 500 704 q 706 638 639 704 q 772 432 772 571 l 772 58 q 714 0 772 0 q 656 58 656 0 l 656 90 q 439 0 581 0 l 361 0 m 361 117 l 439 117 q 535 126 490 117 q 613 160 581 135 q 656 232 645 185 l 656 344 l 361 344 q 270 322 292 344 q 247 231 247 299 q 270 139 247 162 q 361 117 292 117 z "},"à":{"ha":903,"x_min":131,"x_max":772,"o":"m 361 0 q 188 57 244 0 q 131 231 131 114 q 187 404 131 347 q 361 461 244 461 l 655 461 q 617 561 651 534 q 500 588 583 588 l 419 588 q 316 578 350 588 q 268 544 282 569 q 242 504 256 515 q 203 493 229 493 q 157 509 174 493 q 147 553 140 526 q 234 668 168 631 q 419 704 301 704 l 500 704 q 706 638 639 704 q 772 432 772 571 l 772 58 q 714 0 772 0 q 656 58 656 0 l 656 90 q 439 0 581 0 l 361 0 m 361 117 l 439 117 q 535 126 490 117 q 613 160 581 135 q 656 232 645 185 l 656 344 l 361 344 q 270 322 292 344 q 247 231 247 299 q 270 139 247 162 q 361 117 292 117 z "},"ả":{"ha":903,"x_min":131,"x_max":772,"o":"m 361 0 q 188 57 244 0 q 131 231 131 114 q 187 404 131 347 q 361 461 244 461 l 655 461 q 617 561 651 534 q 500 588 583 588 l 419 588 q 316 578 350 588 q 268 544 282 569 q 242 504 256 515 q 203 493 229 493 q 157 509 174 493 q 147 553 140 526 q 234 668 168 631 q 419 704 301 704 l 500 704 q 706 638 639 704 q 772 432 772 571 l 772 58 q 714 0 772 0 q 656 58 656 0 l 656 90 q 439 0 581 0 l 361 0 m 361 117 l 439 117 q 535 126 490 117 q 613 160 581 135 q 656 232 645 185 l 656 344 l 361 344 q 270 322 292 344 q 247 231 247 299 q 270 139 247 162 q 361 117 292 117 m 446 778 q 416 786 424 778 q 407 815 407 794 q 431 882 407 860 q 474 915 455 904 q 495 930 490 926 q 500 943 500 935 q 491 983 500 974 q 453 992 482 992 q 415 983 424 992 q 406 943 406 974 q 397 913 406 922 q 367 904 389 904 q 336 913 345 904 q 328 943 328 922 q 453 1068 328 1068 q 578 943 578 1068 q 555 879 578 901 q 514 847 532 858 q 490 831 494 836 q 485 815 485 825 q 476 786 485 794 q 446 778 468 778 z "},"ȃ":{"ha":903,"x_min":131,"x_max":772,"o":"m 361 0 q 188 57 244 0 q 131 231 131 114 q 187 404 131 347 q 361 461 244 461 l 655 461 q 617 561 651 534 q 500 588 583 588 l 419 588 q 316 578 350 588 q 268 544 282 569 q 242 504 256 515 q 203 493 229 493 q 157 509 174 493 q 147 553 140 526 q 234 668 168 631 q 419 704 301 704 l 500 704 q 706 638 639 704 q 772 432 772 571 l 772 58 q 714 0 772 0 q 656 58 656 0 l 656 90 q 439 0 581 0 l 361 0 m 361 117 l 439 117 q 535 126 490 117 q 613 160 581 135 q 656 232 645 185 l 656 344 l 361 344 q 270 322 292 344 q 247 231 247 299 q 270 139 247 162 q 361 117 292 117 z "},"ā":{"ha":903,"x_min":131,"x_max":772,"o":"m 361 0 q 188 57 244 0 q 131 231 131 114 q 187 404 131 347 q 361 461 244 461 l 655 461 q 617 561 651 534 q 500 588 583 588 l 419 588 q 316 578 350 588 q 268 544 282 569 q 242 504 256 515 q 203 493 229 493 q 157 509 174 493 q 147 553 140 526 q 234 668 168 631 q 419 704 301 704 l 500 704 q 706 638 639 704 q 772 432 772 571 l 772 58 q 714 0 772 0 q 656 58 656 0 l 656 90 q 439 0 581 0 l 361 0 m 361 117 l 439 117 q 535 126 490 117 q 613 160 581 135 q 656 232 645 185 l 656 344 l 361 344 q 270 322 292 344 q 247 231 247 299 q 270 139 247 162 q 361 117 292 117 z "},"ą":{"ha":903,"x_min":131,"x_max":863,"o":"m 361 0 q 188 57 244 0 q 131 231 131 114 q 187 404 131 347 q 361 461 244 461 l 655 461 q 617 561 651 534 q 500 588 583 588 l 419 588 q 316 578 350 588 q 268 544 282 569 q 242 504 256 515 q 203 493 229 493 q 157 509 174 493 q 147 553 140 526 q 234 668 168 631 q 419 704 301 704 l 500 704 q 706 638 639 704 q 772 432 772 571 l 772 58 q 714 0 772 0 q 656 58 656 0 l 656 90 q 439 0 581 0 l 361 0 m 361 117 l 439 117 q 535 126 490 117 q 613 160 581 135 q 656 232 645 185 l 656 344 l 361 344 q 270 322 292 344 q 247 231 247 299 q 270 139 247 162 q 361 117 292 117 m 708 -261 q 607 -223 648 -261 q 565 -129 565 -185 q 575 -83 565 -107 q 600 -36 585 -58 l 674 71 q 715 92 688 92 q 751 77 736 92 q 765 40 765 63 q 756 11 765 26 l 682 -96 q 667 -129 667 -118 q 678 -151 667 -142 q 708 -160 690 -160 q 741 -150 726 -160 q 775 -126 756 -140 q 792 -117 783 -121 q 811 -112 801 -112 q 848 -127 833 -112 q 863 -162 863 -142 q 849 -199 863 -185 q 708 -261 786 -261 z "},"å":{"ha":903,"x_min":131,"x_max":772,"o":"m 361 0 q 188 57 244 0 q 131 231 131 114 q 187 404 131 347 q 361 461 244 461 l 655 461 q 617 561 651 534 q 500 588 583 588 l 419 588 q 316 578 350 588 q 268 544 282 569 q 242 504 256 515 q 203 493 229 493 q 157 509 174 493 q 147 553 140 526 q 234 668 168 631 q 419 704 301 704 l 500 704 q 706 638 639 704 q 772 432 772 571 l 772 58 q 714 0 772 0 q 656 58 656 0 l 656 90 q 439 0 581 0 l 361 0 m 361 117 l 439 117 q 535 126 490 117 q 613 160 581 135 q 656 232 645 185 l 656 344 l 361 344 q 270 322 292 344 q 247 231 247 299 q 270 139 247 162 q 361 117 292 117 z "},"ǻ":{"ha":903,"x_min":131,"x_max":772,"o":"m 361 0 q 188 57 244 0 q 131 231 131 114 q 187 404 131 347 q 361 461 244 461 l 655 461 q 617 561 651 534 q 500 588 583 588 l 419 588 q 316 578 350 588 q 268 544 282 569 q 242 504 256 515 q 203 493 229 493 q 157 509 174 493 q 147 553 140 526 q 234 668 168 631 q 419 704 301 704 l 500 704 q 706 638 639 704 q 772 432 772 571 l 772 58 q 714 0 772 0 q 656 58 656 0 l 656 90 q 439 0 581 0 l 361 0 m 361 117 l 439 117 q 535 126 490 117 q 613 160 581 135 q 656 232 645 185 l 656 344 l 361 344 q 270 322 292 344 q 247 231 247 299 q 270 139 247 162 q 361 117 292 117 z "},"ã":{"ha":903,"x_min":131,"x_max":772,"o":"m 361 0 q 188 57 244 0 q 131 231 131 114 q 187 404 131 347 q 361 461 244 461 l 655 461 q 617 561 651 534 q 500 588 583 588 l 419 588 q 316 578 350 588 q 268 544 282 569 q 242 504 256 515 q 203 493 229 493 q 157 509 174 493 q 147 553 140 526 q 234 668 168 631 q 419 704 301 704 l 500 704 q 706 638 639 704 q 772 432 772 571 l 772 58 q 714 0 772 0 q 656 58 656 0 l 656 90 q 439 0 581 0 l 361 0 m 361 117 l 439 117 q 535 126 490 117 q 613 160 581 135 q 656 232 645 185 l 656 344 l 361 344 q 270 322 292 344 q 247 231 247 299 q 270 139 247 162 q 361 117 292 117 z "},"æ":{"ha":1356,"x_min":131,"x_max":1244,"o":"m 893 -31 q 675 89 743 -31 q 411 -28 588 -28 l 361 -28 q 188 29 244 -28 q 131 203 131 86 q 188 364 131 309 q 361 419 244 419 l 628 419 q 587 527 621 500 q 472 554 553 554 l 419 554 q 296 542 329 554 q 258 508 263 531 q 239 467 253 485 q 200 450 224 450 q 159 467 176 450 q 142 508 142 485 q 216 626 142 581 q 419 671 290 671 l 472 671 q 686 564 618 671 q 894 669 752 672 l 978 669 q 1180 595 1115 669 q 1244 361 1244 521 q 1185 303 1244 303 l 744 303 l 744 244 q 777 119 744 152 q 893 86 809 86 l 978 86 q 1098 105 1067 86 q 1128 181 1128 124 q 1145 222 1128 205 q 1186 239 1163 239 q 1227 222 1210 239 q 1244 181 1244 205 q 1178 19 1244 68 q 978 -31 1113 -31 l 893 -31 m 361 89 l 411 89 q 576 126 525 89 q 628 239 628 163 l 628 303 l 361 303 q 270 282 292 303 q 247 203 247 261 q 270 111 247 134 q 361 89 292 89 m 746 419 l 1124 419 q 1082 525 1115 498 q 978 553 1049 553 l 894 553 q 785 527 817 554 q 746 419 752 500 z "},"ǽ":{"ha":1356,"x_min":131,"x_max":1244,"o":"m 893 -31 q 675 89 743 -31 q 411 -28 588 -28 l 361 -28 q 188 29 244 -28 q 131 203 131 86 q 188 364 131 309 q 361 419 244 419 l 628 419 q 587 527 621 500 q 472 554 553 554 l 419 554 q 296 542 329 554 q 258 508 263 531 q 239 467 253 485 q 200 450 224 450 q 159 467 176 450 q 142 508 142 485 q 216 626 142 581 q 419 671 290 671 l 472 671 q 686 564 618 671 q 894 669 752 672 l 978 669 q 1180 595 1115 669 q 1244 361 1244 521 q 1185 303 1244 303 l 744 303 l 744 244 q 777 119 744 152 q 893 86 809 86 l 978 86 q 1098 105 1067 86 q 1128 181 1128 124 q 1145 222 1128 205 q 1186 239 1163 239 q 1227 222 1210 239 q 1244 181 1244 205 q 1178 19 1244 68 q 978 -31 1113 -31 l 893 -31 m 361 89 l 411 89 q 576 126 525 89 q 628 239 628 163 l 628 303 l 361 303 q 270 282 292 303 q 247 203 247 261 q 270 111 247 134 q 361 89 292 89 m 746 419 l 1124 419 q 1082 525 1115 498 q 978 553 1049 553 l 894 553 q 785 527 817 554 q 746 419 752 500 z "},"b":{"ha":914,"x_min":144,"x_max":803,"o":"m 203 0 q 144 58 144 0 l 144 919 q 203 978 144 978 q 261 919 261 978 l 261 630 q 351 685 297 667 q 478 704 406 704 l 531 704 q 736 638 669 704 q 803 432 803 571 l 803 272 q 736 67 803 134 q 531 0 669 0 l 478 0 q 351 19 406 0 q 261 74 297 38 l 261 58 q 203 0 261 0 m 478 117 l 531 117 q 654 150 622 117 q 686 272 686 183 l 686 432 q 653 555 686 523 q 531 588 620 588 l 478 588 q 324 564 386 588 q 261 492 261 541 l 261 213 q 324 140 261 164 q 478 117 386 117 z "},"ḃ":{"ha":914,"x_min":144,"x_max":803,"o":"m 203 0 q 144 58 144 0 l 144 919 q 203 978 144 978 q 261 919 261 978 l 261 630 q 351 685 297 667 q 478 704 406 704 l 531 704 q 736 638 669 704 q 803 432 803 571 l 803 272 q 736 67 803 134 q 531 0 669 0 l 478 0 q 351 19 406 0 q 261 74 297 38 l 261 58 q 203 0 261 0 m 478 117 l 531 117 q 654 150 622 117 q 686 272 686 183 l 686 432 q 653 555 686 523 q 531 588 620 588 l 478 588 q 324 564 386 588 q 261 492 261 541 l 261 213 q 324 140 261 164 q 478 117 386 117 z "},"c":{"ha":835,"x_min":111,"x_max":742,"o":"m 383 0 q 178 67 245 0 q 111 272 111 134 l 111 433 q 177 639 111 572 q 383 704 244 706 l 497 704 q 660 669 601 704 q 736 563 719 635 q 726 517 742 533 q 679 501 710 501 q 640 515 652 501 q 617 554 627 529 q 578 580 606 573 q 497 588 551 588 l 383 588 q 261 557 294 589 q 228 433 228 524 l 228 272 q 261 149 228 182 q 383 117 294 117 l 497 117 q 578 124 551 117 q 617 150 606 131 q 640 190 627 176 q 681 203 653 203 q 726 187 710 203 q 736 142 742 171 q 660 35 719 70 q 497 0 601 0 l 383 0 z "},"ć":{"ha":835,"x_min":111,"x_max":742,"o":"m 383 0 q 178 67 245 0 q 111 272 111 134 l 111 433 q 177 639 111 572 q 383 704 244 706 l 497 704 q 660 669 601 704 q 736 563 719 635 q 726 517 742 533 q 679 501 710 501 q 640 515 652 501 q 617 554 627 529 q 578 580 606 573 q 497 588 551 588 l 383 588 q 261 557 294 589 q 228 433 228 524 l 228 272 q 261 149 228 182 q 383 117 294 117 l 497 117 q 578 124 551 117 q 617 150 606 131 q 640 190 627 176 q 681 203 653 203 q 726 187 710 203 q 736 142 742 171 q 660 35 719 70 q 497 0 601 0 l 383 0 z "},"č":{"ha":835,"x_min":111,"x_max":742,"o":"m 383 0 q 178 67 245 0 q 111 272 111 134 l 111 433 q 177 639 111 572 q 383 704 244 706 l 497 704 q 660 669 601 704 q 736 563 719 635 q 726 517 742 533 q 679 501 710 501 q 640 515 652 501 q 617 554 627 529 q 578 580 606 573 q 497 588 551 588 l 383 588 q 261 557 294 589 q 228 433 228 524 l 228 272 q 261 149 228 182 q 383 117 294 117 l 497 117 q 578 124 551 117 q 617 150 606 131 q 640 190 627 176 q 681 203 653 203 q 726 187 710 203 q 736 142 742 171 q 660 35 719 70 q 497 0 601 0 l 383 0 z "},"ç":{"ha":835,"x_min":111,"x_max":742,"o":"m 383 0 q 178 67 245 0 q 111 272 111 134 l 111 433 q 177 639 111 572 q 383 704 244 706 l 497 704 q 660 669 601 704 q 736 563 719 635 q 726 517 742 533 q 679 501 710 501 q 640 515 652 501 q 617 554 627 529 q 578 580 606 573 q 497 588 551 588 l 383 588 q 261 557 294 589 q 228 433 228 524 l 228 272 q 261 149 228 182 q 383 117 294 117 l 497 117 q 578 124 551 117 q 617 150 606 131 q 640 190 627 176 q 681 203 653 203 q 726 187 710 203 q 736 142 742 171 q 660 35 719 70 q 497 0 601 0 l 383 0 z "},"ĉ":{"ha":835,"x_min":111,"x_max":742,"o":"m 383 0 q 178 67 245 0 q 111 272 111 134 l 111 433 q 177 639 111 572 q 383 704 244 706 l 497 704 q 660 669 601 704 q 736 563 719 635 q 726 517 742 533 q 679 501 710 501 q 640 515 652 501 q 617 554 627 529 q 578 580 606 573 q 497 588 551 588 l 383 588 q 261 557 294 589 q 228 433 228 524 l 228 272 q 261 149 228 182 q 383 117 294 117 l 497 117 q 578 124 551 117 q 617 150 606 131 q 640 190 627 176 q 681 203 653 203 q 726 187 710 203 q 736 142 742 171 q 660 35 719 70 q 497 0 601 0 l 383 0 z "},"ċ":{"ha":835,"x_min":111,"x_max":742,"o":"m 383 0 q 178 67 245 0 q 111 272 111 134 l 111 433 q 177 639 111 572 q 383 704 244 706 l 497 704 q 660 669 601 704 q 736 563 719 635 q 726 517 742 533 q 679 501 710 501 q 640 515 652 501 q 617 554 627 529 q 578 580 606 573 q 497 588 551 588 l 383 588 q 261 557 294 589 q 228 433 228 524 l 228 272 q 261 149 228 182 q 383 117 294 117 l 497 117 q 578 124 551 117 q 617 150 606 131 q 640 190 627 176 q 681 203 653 203 q 726 187 710 203 q 736 142 742 171 q 660 35 719 70 q 497 0 601 0 l 383 0 z "},"d":{"ha":900,"x_min":111,"x_max":769,"o":"m 383 0 q 178 67 245 0 q 111 272 111 134 l 111 432 q 178 638 111 571 q 383 704 245 704 l 653 704 l 653 919 q 711 978 653 978 q 769 919 769 978 l 769 58 q 711 0 769 0 q 653 58 653 0 l 653 68 q 567 17 620 35 q 436 0 515 0 l 383 0 m 383 117 l 436 117 q 590 140 528 117 q 653 213 653 164 l 653 588 l 383 588 q 260 555 293 588 q 228 432 228 522 l 228 272 q 261 149 228 182 q 383 117 294 117 z "},"ð":{"ha":881,"x_min":111,"x_max":769,"o":"m 383 0 q 178 66 245 0 q 111 271 111 133 l 111 432 q 178 638 111 572 q 383 704 245 703 l 497 704 q 576 689 540 704 q 642 643 612 674 q 620 748 634 711 q 586 801 606 785 q 539 822 565 817 l 215 904 q 172 976 158 919 q 243 1018 187 1033 l 569 936 q 718 803 672 913 q 769 471 765 694 l 769 272 q 703 66 769 133 q 497 0 636 0 l 383 0 m 383 117 l 497 117 q 620 149 588 117 q 653 272 653 182 l 653 418 q 641 519 653 483 q 596 572 629 556 q 497 588 563 588 l 383 588 q 289 574 323 587 q 242 527 256 560 q 228 432 228 493 l 228 271 q 260 149 228 181 q 383 117 293 117 m 361 775 q 290 776 325 739 q 292 847 254 815 l 496 1040 q 567 1039 532 1076 q 565 968 601 1002 l 361 775 z "},"ď":{"ha":964,"x_min":111,"x_max":1038,"o":"m 383 0 q 178 67 245 0 q 111 272 111 134 l 111 432 q 178 638 111 571 q 383 704 245 704 l 653 704 l 653 919 q 711 978 653 978 q 769 919 769 978 l 769 58 q 711 0 769 0 q 653 58 653 0 l 653 68 q 567 17 620 35 q 436 0 515 0 l 383 0 m 383 117 l 436 117 q 590 140 528 117 q 653 213 653 164 l 653 588 l 383 588 q 260 555 293 588 q 228 432 228 522 l 228 272 q 261 149 228 182 q 383 117 294 117 z "},"đ":{"ha":900,"x_min":111,"x_max":882,"o":"m 383 0 q 178 67 245 0 q 111 272 111 134 l 111 432 q 178 638 111 571 q 383 704 245 704 l 653 704 l 653 919 q 711 978 653 978 q 769 919 769 978 l 769 58 q 711 0 769 0 q 653 58 653 0 l 653 68 q 567 17 620 35 q 436 0 515 0 l 383 0 m 383 117 l 436 117 q 590 140 528 117 q 653 213 653 164 l 653 588 l 383 588 q 260 555 293 588 q 228 432 228 522 l 228 272 q 261 149 228 182 q 383 117 294 117 m 469 778 q 421 826 421 778 q 469 875 421 875 l 833 875 q 882 826 882 875 q 833 778 882 778 l 469 778 z "},"ḋ":{"ha":900,"x_min":111,"x_max":769,"o":"m 383 0 q 178 67 245 0 q 111 272 111 134 l 111 432 q 178 638 111 571 q 383 704 245 704 l 653 704 l 653 919 q 711 978 653 978 q 769 919 769 978 l 769 58 q 711 0 769 0 q 653 58 653 0 l 653 68 q 567 17 620 35 q 436 0 515 0 l 383 0 m 383 117 l 436 117 q 590 140 528 117 q 653 213 653 164 l 653 588 l 383 588 q 260 555 293 588 q 228 432 228 522 l 228 272 q 261 149 228 182 q 383 117 294 117 z "},"ǳ":{"ha":1589,"x_min":111,"x_max":1544,"o":"m 383 0 q 178 67 245 0 q 111 272 111 134 l 111 432 q 178 638 111 571 q 383 704 245 704 l 653 704 l 653 919 q 711 978 653 978 q 769 919 769 978 l 769 58 q 711 0 769 0 q 653 58 653 0 l 653 68 q 567 17 620 35 q 436 0 515 0 l 383 0 m 383 117 l 436 117 q 590 140 528 117 q 653 213 653 164 l 653 588 l 383 588 q 260 555 293 588 q 228 432 228 522 l 228 272 q 261 149 228 182 q 383 117 294 117 m 983 0 q 925 58 925 0 q 950 115 925 85 l 1350 615 l 1353 588 l 1090 588 q 1039 582 1056 588 q 1013 560 1021 576 q 993 518 1006 533 q 953 504 980 504 q 907 520 923 504 q 896 565 891 536 q 958 670 910 635 q 1090 704 1006 704 l 1431 704 q 1489 646 1489 704 q 1464 588 1489 618 l 1071 94 l 1056 118 l 1343 117 q 1393 123 1376 117 q 1419 146 1411 129 q 1441 186 1429 172 q 1481 200 1453 200 q 1527 184 1511 200 q 1538 139 1544 168 q 1343 0 1508 0 l 983 0 z "},"ǆ":{"ha":1589,"x_min":111,"x_max":1544,"o":"m 383 0 q 178 67 245 0 q 111 272 111 134 l 111 432 q 178 638 111 571 q 383 704 245 704 l 653 704 l 653 919 q 711 978 653 978 q 769 919 769 978 l 769 58 q 711 0 769 0 q 653 58 653 0 l 653 68 q 567 17 620 35 q 436 0 515 0 l 383 0 m 383 117 l 436 117 q 590 140 528 117 q 653 213 653 164 l 653 588 l 383 588 q 260 555 293 588 q 228 432 228 522 l 228 272 q 261 149 228 182 q 383 117 294 117 m 983 0 q 925 58 925 0 q 950 115 925 85 l 1350 615 l 1353 588 l 1090 588 q 1039 582 1056 588 q 1013 560 1021 576 q 993 518 1006 533 q 953 504 980 504 q 907 520 923 504 q 896 565 891 536 q 958 670 910 635 q 1090 704 1006 704 l 1431 704 q 1489 646 1489 704 q 1464 588 1489 618 l 1071 94 l 1056 118 l 1343 117 q 1393 123 1376 117 q 1419 146 1411 129 q 1441 186 1429 172 q 1481 200 1453 200 q 1527 184 1511 200 q 1538 139 1544 168 q 1343 0 1508 0 l 983 0 z "},"e":{"ha":881,"x_min":111,"x_max":769,"o":"m 228 304 l 228 271 q 260 149 228 181 q 383 117 293 117 l 497 117 q 602 130 568 117 q 647 176 636 143 q 668 217 655 203 q 710 231 682 231 q 754 215 739 231 q 764 171 769 200 q 682 42 749 85 q 497 0 615 0 l 383 0 q 178 67 245 0 q 111 271 111 133 l 111 432 q 178 639 111 573 q 383 704 245 706 l 497 704 q 703 638 636 704 q 769 432 769 572 l 769 363 q 711 304 769 304 l 228 304 m 383 588 q 260 556 293 589 q 228 432 228 524 l 228 421 l 653 421 l 653 432 q 620 555 653 523 q 497 588 588 588 l 383 588 z "},"é":{"ha":881,"x_min":111,"x_max":769,"o":"m 228 304 l 228 271 q 260 149 228 181 q 383 117 293 117 l 497 117 q 602 130 568 117 q 647 176 636 143 q 668 217 655 203 q 710 231 682 231 q 754 215 739 231 q 764 171 769 200 q 682 42 749 85 q 497 0 615 0 l 383 0 q 178 67 245 0 q 111 271 111 133 l 111 432 q 178 639 111 573 q 383 704 245 706 l 497 704 q 703 638 636 704 q 769 432 769 572 l 769 363 q 711 304 769 304 l 228 304 m 383 588 q 260 556 293 589 q 228 432 228 524 l 228 421 l 653 421 l 653 432 q 620 555 653 523 q 497 588 588 588 l 383 588 z "},"ĕ":{"ha":881,"x_min":111,"x_max":769,"o":"m 228 304 l 228 271 q 260 149 228 181 q 383 117 293 117 l 497 117 q 602 130 568 117 q 647 176 636 143 q 668 217 655 203 q 710 231 682 231 q 754 215 739 231 q 764 171 769 200 q 682 42 749 85 q 497 0 615 0 l 383 0 q 178 67 245 0 q 111 271 111 133 l 111 432 q 178 639 111 573 q 383 704 245 706 l 497 704 q 703 638 636 704 q 769 432 769 572 l 769 363 q 711 304 769 304 l 228 304 m 383 588 q 260 556 293 589 q 228 432 228 524 l 228 421 l 653 421 l 653 432 q 620 555 653 523 q 497 588 588 588 l 383 588 z "},"ě":{"ha":881,"x_min":111,"x_max":769,"o":"m 228 304 l 228 271 q 260 149 228 181 q 383 117 293 117 l 497 117 q 602 130 568 117 q 647 176 636 143 q 668 217 655 203 q 710 231 682 231 q 754 215 739 231 q 764 171 769 200 q 682 42 749 85 q 497 0 615 0 l 383 0 q 178 67 245 0 q 111 271 111 133 l 111 432 q 178 639 111 573 q 383 704 245 706 l 497 704 q 703 638 636 704 q 769 432 769 572 l 769 363 q 711 304 769 304 l 228 304 m 383 588 q 260 556 293 589 q 228 432 228 524 l 228 421 l 653 421 l 653 432 q 620 555 653 523 q 497 588 588 588 l 383 588 z "},"ê":{"ha":881,"x_min":111,"x_max":769,"o":"m 228 304 l 228 271 q 260 149 228 181 q 383 117 293 117 l 497 117 q 602 130 568 117 q 647 176 636 143 q 668 217 655 203 q 710 231 682 231 q 754 215 739 231 q 764 171 769 200 q 682 42 749 85 q 497 0 615 0 l 383 0 q 178 67 245 0 q 111 271 111 133 l 111 432 q 178 639 111 573 q 383 704 245 706 l 497 704 q 703 638 636 704 q 769 432 769 572 l 769 363 q 711 304 769 304 l 228 304 m 383 588 q 260 556 293 589 q 228 432 228 524 l 228 421 l 653 421 l 653 432 q 620 555 653 523 q 497 588 588 588 l 383 588 z "},"ế":{"ha":881,"x_min":111,"x_max":791,"o":"m 228 304 l 228 271 q 260 149 228 181 q 383 117 293 117 l 497 117 q 602 130 568 117 q 647 176 636 143 q 668 217 655 203 q 710 231 682 231 q 754 215 739 231 q 764 171 769 200 q 682 42 749 85 q 497 0 615 0 l 383 0 q 178 67 245 0 q 111 271 111 133 l 111 432 q 178 639 111 573 q 383 704 245 706 l 497 704 q 703 638 636 704 q 769 432 769 572 l 769 363 q 711 304 769 304 l 228 304 m 383 588 q 260 556 293 589 q 228 432 228 524 l 228 421 l 653 421 l 653 432 q 620 555 653 523 q 497 588 588 588 l 383 588 m 608 885 q 587 918 590 899 q 603 956 584 937 l 678 1033 q 749 1039 713 1069 q 756 968 791 1006 l 679 890 q 608 885 644 855 m 310 778 q 276 792 290 778 q 261 826 261 807 q 265 844 261 836 q 275 860 268 853 l 376 961 q 438 988 401 988 l 446 988 q 507 961 483 988 l 608 860 q 619 844 616 853 q 622 826 622 836 q 608 792 622 807 q 574 778 594 778 q 539 792 551 778 l 450 890 l 433 890 l 344 792 q 310 778 331 778 z "},"ệ":{"ha":881,"x_min":111,"x_max":769,"o":"m 228 304 l 228 271 q 260 149 228 181 q 383 117 293 117 l 497 117 q 602 130 568 117 q 647 176 636 143 q 668 217 655 203 q 710 231 682 231 q 754 215 739 231 q 764 171 769 200 q 682 42 749 85 q 497 0 615 0 l 383 0 q 178 67 245 0 q 111 271 111 133 l 111 432 q 178 639 111 573 q 383 704 245 706 l 497 704 q 703 638 636 704 q 769 432 769 572 l 769 363 q 711 304 769 304 l 228 304 m 383 588 q 260 556 293 589 q 228 432 228 524 l 228 421 l 653 421 l 653 432 q 620 555 653 523 q 497 588 588 588 l 383 588 z "},"ề":{"ha":881,"x_min":101,"x_max":769,"o":"m 228 304 l 228 271 q 260 149 228 181 q 383 117 293 117 l 497 117 q 602 130 568 117 q 647 176 636 143 q 668 217 655 203 q 710 231 682 231 q 754 215 739 231 q 764 171 769 200 q 682 42 749 85 q 497 0 615 0 l 383 0 q 178 67 245 0 q 111 271 111 133 l 111 432 q 178 639 111 573 q 383 704 245 706 l 497 704 q 703 638 636 704 q 769 432 769 572 l 769 363 q 711 304 769 304 l 228 304 m 383 588 q 260 556 293 589 q 228 432 228 524 l 228 421 l 653 421 l 653 432 q 620 555 653 523 q 497 588 588 588 l 383 588 m 264 885 q 193 890 228 855 l 118 968 q 103 1005 101 986 q 124 1039 105 1024 q 194 1033 159 1069 l 271 956 q 286 918 289 937 q 264 885 284 899 m 308 778 q 274 792 289 778 q 260 826 260 807 q 263 844 260 836 q 274 860 267 853 l 375 961 q 436 988 399 988 l 444 988 q 506 961 481 988 l 607 860 q 618 844 615 853 q 621 826 621 836 q 607 792 621 807 q 572 778 592 778 q 538 792 549 778 l 449 890 l 432 890 l 343 792 q 308 778 329 778 z "},"ể":{"ha":881,"x_min":111,"x_max":769,"o":"m 228 304 l 228 271 q 260 149 228 181 q 383 117 293 117 l 497 117 q 602 130 568 117 q 647 176 636 143 q 668 217 655 203 q 710 231 682 231 q 754 215 739 231 q 764 171 769 200 q 682 42 749 85 q 497 0 615 0 l 383 0 q 178 67 245 0 q 111 271 111 133 l 111 432 q 178 639 111 573 q 383 704 245 706 l 497 704 q 703 638 636 704 q 769 432 769 572 l 769 363 q 711 304 769 304 l 228 304 m 383 588 q 260 556 293 589 q 228 432 228 524 l 228 421 l 653 421 l 653 432 q 620 555 653 523 q 497 588 588 588 l 383 588 z "},"ễ":{"ha":881,"x_min":111,"x_max":769,"o":"m 228 304 l 228 271 q 260 149 228 181 q 383 117 293 117 l 497 117 q 602 130 568 117 q 647 176 636 143 q 668 217 655 203 q 710 231 682 231 q 754 215 739 231 q 764 171 769 200 q 682 42 749 85 q 497 0 615 0 l 383 0 q 178 67 245 0 q 111 271 111 133 l 111 432 q 178 639 111 573 q 383 704 245 706 l 497 704 q 703 638 636 704 q 769 432 769 572 l 769 363 q 711 304 769 304 l 228 304 m 383 588 q 260 556 293 589 q 228 432 228 524 l 228 421 l 653 421 l 653 432 q 620 555 653 523 q 497 588 588 588 l 383 588 z "},"ȅ":{"ha":881,"x_min":111,"x_max":769,"o":"m 228 304 l 228 271 q 260 149 228 181 q 383 117 293 117 l 497 117 q 602 130 568 117 q 647 176 636 143 q 668 217 655 203 q 710 231 682 231 q 754 215 739 231 q 764 171 769 200 q 682 42 749 85 q 497 0 615 0 l 383 0 q 178 67 245 0 q 111 271 111 133 l 111 432 q 178 639 111 573 q 383 704 245 706 l 497 704 q 703 638 636 704 q 769 432 769 572 l 769 363 q 711 304 769 304 l 228 304 m 383 588 q 260 556 293 589 q 228 432 228 524 l 228 421 l 653 421 l 653 432 q 620 555 653 523 q 497 588 588 588 l 383 588 z "},"ë":{"ha":881,"x_min":111,"x_max":769,"o":"m 228 304 l 228 271 q 260 149 228 181 q 383 117 293 117 l 497 117 q 602 130 568 117 q 647 176 636 143 q 668 217 655 203 q 710 231 682 231 q 754 215 739 231 q 764 171 769 200 q 682 42 749 85 q 497 0 615 0 l 383 0 q 178 67 245 0 q 111 271 111 133 l 111 432 q 178 639 111 573 q 383 704 245 706 l 497 704 q 703 638 636 704 q 769 432 769 572 l 769 363 q 711 304 769 304 l 228 304 m 383 588 q 260 556 293 589 q 228 432 228 524 l 228 421 l 653 421 l 653 432 q 620 555 653 523 q 497 588 588 588 l 383 588 z "},"ė":{"ha":881,"x_min":111,"x_max":769,"o":"m 228 304 l 228 271 q 260 149 228 181 q 383 117 293 117 l 497 117 q 602 130 568 117 q 647 176 636 143 q 668 217 655 203 q 710 231 682 231 q 754 215 739 231 q 764 171 769 200 q 682 42 749 85 q 497 0 615 0 l 383 0 q 178 67 245 0 q 111 271 111 133 l 111 432 q 178 639 111 573 q 383 704 245 706 l 497 704 q 703 638 636 704 q 769 432 769 572 l 769 363 q 711 304 769 304 l 228 304 m 383 588 q 260 556 293 589 q 228 432 228 524 l 228 421 l 653 421 l 653 432 q 620 555 653 523 q 497 588 588 588 l 383 588 z "},"ẹ":{"ha":881,"x_min":111,"x_max":769,"o":"m 228 304 l 228 271 q 260 149 228 181 q 383 117 293 117 l 497 117 q 602 130 568 117 q 647 176 636 143 q 668 217 655 203 q 710 231 682 231 q 754 215 739 231 q 764 171 769 200 q 682 42 749 85 q 497 0 615 0 l 383 0 q 178 67 245 0 q 111 271 111 133 l 111 432 q 178 639 111 573 q 383 704 245 706 l 497 704 q 703 638 636 704 q 769 432 769 572 l 769 363 q 711 304 769 304 l 228 304 m 383 588 q 260 556 293 589 q 228 432 228 524 l 228 421 l 653 421 l 653 432 q 620 555 653 523 q 497 588 588 588 l 383 588 z "},"è":{"ha":881,"x_min":111,"x_max":769,"o":"m 228 304 l 228 271 q 260 149 228 181 q 383 117 293 117 l 497 117 q 602 130 568 117 q 647 176 636 143 q 668 217 655 203 q 710 231 682 231 q 754 215 739 231 q 764 171 769 200 q 682 42 749 85 q 497 0 615 0 l 383 0 q 178 67 245 0 q 111 271 111 133 l 111 432 q 178 639 111 573 q 383 704 245 706 l 497 704 q 703 638 636 704 q 769 432 769 572 l 769 363 q 711 304 769 304 l 228 304 m 383 588 q 260 556 293 589 q 228 432 228 524 l 228 421 l 653 421 l 653 432 q 620 555 653 523 q 497 588 588 588 l 383 588 z "},"ẻ":{"ha":881,"x_min":111,"x_max":769,"o":"m 228 304 l 228 271 q 260 149 228 181 q 383 117 293 117 l 497 117 q 602 130 568 117 q 647 176 636 143 q 668 217 655 203 q 710 231 682 231 q 754 215 739 231 q 764 171 769 200 q 682 42 749 85 q 497 0 615 0 l 383 0 q 178 67 245 0 q 111 271 111 133 l 111 432 q 178 639 111 573 q 383 704 245 706 l 497 704 q 703 638 636 704 q 769 432 769 572 l 769 363 q 711 304 769 304 l 228 304 m 383 588 q 260 556 293 589 q 228 432 228 524 l 228 421 l 653 421 l 653 432 q 620 555 653 523 q 497 588 588 588 l 383 588 m 442 778 q 411 786 420 778 q 403 815 403 794 q 427 882 403 860 q 469 915 451 904 q 491 930 486 926 q 496 943 496 935 q 487 983 496 974 q 449 992 478 992 q 410 983 419 992 q 401 943 401 974 q 393 913 401 922 q 363 904 385 904 q 332 913 341 904 q 324 943 324 922 q 449 1068 324 1068 q 574 943 574 1068 q 551 879 574 901 q 510 847 528 858 q 485 831 490 836 q 481 815 481 825 q 472 786 481 794 q 442 778 464 778 z "},"ȇ":{"ha":881,"x_min":111,"x_max":769,"o":"m 228 304 l 228 271 q 260 149 228 181 q 383 117 293 117 l 497 117 q 602 130 568 117 q 647 176 636 143 q 668 217 655 203 q 710 231 682 231 q 754 215 739 231 q 764 171 769 200 q 682 42 749 85 q 497 0 615 0 l 383 0 q 178 67 245 0 q 111 271 111 133 l 111 432 q 178 639 111 573 q 383 704 245 706 l 497 704 q 703 638 636 704 q 769 432 769 572 l 769 363 q 711 304 769 304 l 228 304 m 383 588 q 260 556 293 589 q 228 432 228 524 l 228 421 l 653 421 l 653 432 q 620 555 653 523 q 497 588 588 588 l 383 588 z "},"ē":{"ha":881,"x_min":111,"x_max":769,"o":"m 228 304 l 228 271 q 260 149 228 181 q 383 117 293 117 l 497 117 q 602 130 568 117 q 647 176 636 143 q 668 217 655 203 q 710 231 682 231 q 754 215 739 231 q 764 171 769 200 q 682 42 749 85 q 497 0 615 0 l 383 0 q 178 67 245 0 q 111 271 111 133 l 111 432 q 178 639 111 573 q 383 704 245 706 l 497 704 q 703 638 636 704 q 769 432 769 572 l 769 363 q 711 304 769 304 l 228 304 m 383 588 q 260 556 293 589 q 228 432 228 524 l 228 421 l 653 421 l 653 432 q 620 555 653 523 q 497 588 588 588 l 383 588 z "},"ę":{"ha":881,"x_min":111,"x_max":769,"o":"m 228 304 l 228 271 q 260 149 228 181 q 383 117 293 117 l 497 117 q 602 130 568 117 q 647 176 636 143 q 668 217 655 203 q 710 231 682 231 q 754 215 739 231 q 764 171 769 200 q 682 42 749 85 q 497 0 615 0 l 383 0 q 178 67 245 0 q 111 271 111 133 l 111 432 q 178 639 111 573 q 383 704 245 706 l 497 704 q 703 638 636 704 q 769 432 769 572 l 769 363 q 711 304 769 304 l 228 304 m 383 588 q 260 556 293 589 q 228 432 228 524 l 228 421 l 653 421 l 653 432 q 620 555 653 523 q 497 588 588 588 l 383 588 m 651 -217 q 550 -179 591 -217 q 508 -86 508 -141 q 543 8 508 -37 l 651 151 q 671 169 661 164 q 689 174 681 174 q 725 159 705 174 q 746 124 746 144 q 732 90 746 108 l 625 -51 q 610 -86 610 -72 q 621 -107 610 -99 q 651 -115 633 -115 q 675 -113 666 -115 q 692 -110 683 -111 q 701 -108 697 -108 q 710 -107 706 -107 q 751 -124 740 -107 q 763 -161 763 -140 q 757 -180 763 -170 q 739 -196 752 -190 q 697 -211 719 -205 q 651 -217 674 -217 z "},"ẽ":{"ha":881,"x_min":111,"x_max":769,"o":"m 228 304 l 228 271 q 260 149 228 181 q 383 117 293 117 l 497 117 q 602 130 568 117 q 647 176 636 143 q 668 217 655 203 q 710 231 682 231 q 754 215 739 231 q 764 171 769 200 q 682 42 749 85 q 497 0 615 0 l 383 0 q 178 67 245 0 q 111 271 111 133 l 111 432 q 178 639 111 573 q 383 704 245 706 l 497 704 q 703 638 636 704 q 769 432 769 572 l 769 363 q 711 304 769 304 l 228 304 m 383 588 q 260 556 293 589 q 228 432 228 524 l 228 421 l 653 421 l 653 432 q 620 555 653 523 q 497 588 588 588 l 383 588 z "},"ə":{"ha":881,"x_min":111,"x_max":769,"o":"m 653 400 l 653 433 q 620 555 653 523 q 497 588 588 588 l 383 588 q 278 574 313 588 q 233 528 244 561 q 212 488 226 501 q 171 474 199 474 q 126 489 142 474 q 117 533 111 504 q 199 662 132 619 q 383 704 265 704 l 497 704 q 702 638 635 704 q 769 433 769 571 l 769 272 q 702 65 769 131 q 497 0 635 -1 l 383 0 q 178 66 244 0 q 111 272 111 133 l 111 342 q 169 400 111 400 l 653 400 m 497 117 q 620 148 588 115 q 653 272 653 181 l 653 283 l 228 283 l 228 272 q 260 149 228 181 q 383 117 292 117 l 497 117 z "},"f":{"ha":536,"x_min":61,"x_max":489,"o":"m 229 0 q 171 58 171 0 l 171 588 l 119 588 q 61 646 61 588 q 119 704 61 704 l 171 704 l 171 710 q 237 912 171 847 q 439 978 303 978 q 489 919 489 978 q 439 861 489 861 q 319 830 351 861 q 288 710 288 799 l 288 704 l 431 704 q 489 646 489 704 q 431 588 489 588 l 288 588 l 288 58 q 229 0 288 0 z "},"ḟ":{"ha":536,"x_min":61,"x_max":489,"o":"m 229 0 q 171 58 171 0 l 171 588 l 119 588 q 61 646 61 588 q 119 704 61 704 l 171 704 l 171 710 q 237 912 171 847 q 439 978 303 978 q 489 919 489 978 q 439 861 489 861 q 319 830 351 861 q 288 710 288 799 l 288 704 l 431 704 q 489 646 489 704 q 431 588 489 588 l 288 588 l 288 58 q 229 0 288 0 z "},"g":{"ha":900,"x_min":111,"x_max":769,"o":"m 311 -278 q 179 -244 227 -278 q 117 -140 131 -210 q 127 -94 112 -111 q 174 -78 142 -78 q 212 -92 200 -78 q 233 -135 224 -106 q 259 -156 242 -150 q 311 -161 277 -161 l 569 -161 q 637 -145 622 -161 q 653 -78 653 -128 l 653 84 q 560 22 615 43 q 436 0 505 0 l 383 0 q 178 67 245 0 q 111 271 111 133 l 111 432 q 177 638 111 572 q 383 704 244 704 l 497 704 q 586 690 547 704 q 653 645 625 675 l 653 646 q 711 704 653 704 q 769 646 769 704 l 769 -78 q 720 -229 769 -180 q 569 -278 672 -278 l 311 -278 m 383 117 l 436 117 q 590 140 528 117 q 653 213 653 163 l 653 490 q 612 567 653 547 q 497 588 572 588 l 383 588 q 261 556 294 588 q 228 432 228 524 l 228 271 q 260 150 228 183 q 383 117 293 117 z "},"ğ":{"ha":900,"x_min":111,"x_max":769,"o":"m 311 -278 q 179 -244 227 -278 q 117 -140 131 -210 q 127 -94 112 -111 q 174 -78 142 -78 q 212 -92 200 -78 q 233 -135 224 -106 q 259 -156 242 -150 q 311 -161 277 -161 l 569 -161 q 637 -145 622 -161 q 653 -78 653 -128 l 653 84 q 560 22 615 43 q 436 0 505 0 l 383 0 q 178 67 245 0 q 111 271 111 133 l 111 432 q 177 638 111 572 q 383 704 244 704 l 497 704 q 586 690 547 704 q 653 645 625 675 l 653 646 q 711 704 653 704 q 769 646 769 704 l 769 -78 q 720 -229 769 -180 q 569 -278 672 -278 l 311 -278 m 383 117 l 436 117 q 590 140 528 117 q 653 213 653 163 l 653 490 q 612 567 653 547 q 497 588 572 588 l 383 588 q 261 556 294 588 q 228 432 228 524 l 228 271 q 260 150 228 183 q 383 117 293 117 z "},"ǧ":{"ha":900,"x_min":111,"x_max":769,"o":"m 311 -278 q 179 -244 227 -278 q 117 -140 131 -210 q 127 -94 112 -111 q 174 -78 142 -78 q 212 -92 200 -78 q 233 -135 224 -106 q 259 -156 242 -150 q 311 -161 277 -161 l 569 -161 q 637 -145 622 -161 q 653 -78 653 -128 l 653 84 q 560 22 615 43 q 436 0 505 0 l 383 0 q 178 67 245 0 q 111 271 111 133 l 111 432 q 177 638 111 572 q 383 704 244 704 l 497 704 q 586 690 547 704 q 653 645 625 675 l 653 646 q 711 704 653 704 q 769 646 769 704 l 769 -78 q 720 -229 769 -180 q 569 -278 672 -278 l 311 -278 m 383 117 l 436 117 q 590 140 528 117 q 653 213 653 163 l 653 490 q 612 567 653 547 q 497 588 572 588 l 383 588 q 261 556 294 588 q 228 432 228 524 l 228 271 q 260 150 228 183 q 383 117 293 117 z "},"ĝ":{"ha":900,"x_min":111,"x_max":769,"o":"m 311 -278 q 179 -244 227 -278 q 117 -140 131 -210 q 127 -94 112 -111 q 174 -78 142 -78 q 212 -92 200 -78 q 233 -135 224 -106 q 259 -156 242 -150 q 311 -161 277 -161 l 569 -161 q 637 -145 622 -161 q 653 -78 653 -128 l 653 84 q 560 22 615 43 q 436 0 505 0 l 383 0 q 178 67 245 0 q 111 271 111 133 l 111 432 q 177 638 111 572 q 383 704 244 704 l 497 704 q 586 690 547 704 q 653 645 625 675 l 653 646 q 711 704 653 704 q 769 646 769 704 l 769 -78 q 720 -229 769 -180 q 569 -278 672 -278 l 311 -278 m 383 117 l 436 117 q 590 140 528 117 q 653 213 653 163 l 653 490 q 612 567 653 547 q 497 588 572 588 l 383 588 q 261 556 294 588 q 228 432 228 524 l 228 271 q 260 150 228 183 q 383 117 293 117 z "},"ģ":{"ha":900,"x_min":111,"x_max":769,"o":"m 311 -278 q 179 -244 227 -278 q 117 -140 131 -210 q 127 -94 112 -111 q 174 -78 142 -78 q 212 -92 200 -78 q 233 -135 224 -106 q 259 -156 242 -150 q 311 -161 277 -161 l 569 -161 q 637 -145 622 -161 q 653 -78 653 -128 l 653 84 q 560 22 615 43 q 436 0 505 0 l 383 0 q 178 67 245 0 q 111 271 111 133 l 111 432 q 177 638 111 572 q 383 704 244 704 l 497 704 q 586 690 547 704 q 653 645 625 675 l 653 646 q 711 704 653 704 q 769 646 769 704 l 769 -78 q 720 -229 769 -180 q 569 -278 672 -278 l 311 -278 m 383 117 l 436 117 q 590 140 528 117 q 653 213 653 163 l 653 490 q 612 567 653 547 q 497 588 572 588 l 383 588 q 261 556 294 588 q 228 432 228 524 l 228 271 q 260 150 228 183 q 383 117 293 117 z "},"ġ":{"ha":900,"x_min":111,"x_max":769,"o":"m 311 -278 q 179 -244 227 -278 q 117 -140 131 -210 q 127 -94 112 -111 q 174 -78 142 -78 q 212 -92 200 -78 q 233 -135 224 -106 q 259 -156 242 -150 q 311 -161 277 -161 l 569 -161 q 637 -145 622 -161 q 653 -78 653 -128 l 653 84 q 560 22 615 43 q 436 0 505 0 l 383 0 q 178 67 245 0 q 111 271 111 133 l 111 432 q 177 638 111 572 q 383 704 244 704 l 497 704 q 586 690 547 704 q 653 645 625 675 l 653 646 q 711 704 653 704 q 769 646 769 704 l 769 -78 q 720 -229 769 -180 q 569 -278 672 -278 l 311 -278 m 383 117 l 436 117 q 590 140 528 117 q 653 213 653 163 l 653 490 q 612 567 653 547 q 497 588 572 588 l 383 588 q 261 556 294 588 q 228 432 228 524 l 228 271 q 260 150 228 183 q 383 117 293 117 z "},"h":{"ha":919,"x_min":144,"x_max":789,"o":"m 203 0 q 144 58 144 0 l 144 919 q 203 978 144 978 q 261 919 261 978 l 261 623 q 478 704 335 704 l 517 704 q 722 638 656 704 q 789 432 789 571 l 789 58 q 731 0 789 0 q 672 58 672 0 l 672 432 q 639 555 672 523 q 517 588 606 588 l 478 588 q 333 568 394 588 q 261 508 271 549 l 261 58 q 203 0 261 0 z "},"ħ":{"ha":919,"x_min":49,"x_max":789,"o":"m 203 0 q 144 58 144 0 l 144 919 q 203 978 144 978 q 261 919 261 978 l 261 623 q 478 704 335 704 l 517 704 q 722 638 656 704 q 789 432 789 571 l 789 58 q 731 0 789 0 q 672 58 672 0 l 672 432 q 639 555 672 523 q 517 588 606 588 l 478 588 q 333 568 394 588 q 261 508 271 549 l 261 58 q 203 0 261 0 m 97 761 q 49 810 49 761 q 97 858 49 858 l 461 858 q 510 810 510 858 q 461 761 510 761 l 97 761 z "},"ĥ":{"ha":919,"x_min":24,"x_max":789,"o":"m 203 0 q 144 58 144 0 l 144 919 q 203 978 144 978 q 261 919 261 978 l 261 623 q 478 704 335 704 l 517 704 q 722 638 656 704 q 789 432 789 571 l 789 58 q 731 0 789 0 q 672 58 672 0 l 672 432 q 639 555 672 523 q 517 588 606 588 l 478 588 q 333 568 394 588 q 261 508 271 549 l 261 58 q 203 0 261 0 z "},"i":{"ha":406,"x_min":117,"x_max":287,"o":"m 203 0 q 144 58 144 0 l 144 646 q 203 704 144 704 q 261 646 261 704 l 261 58 q 203 0 261 0 z "},"ı":{"ha":406,"x_min":144,"x_max":261,"o":"m 203 0 q 144 58 144 0 l 144 646 q 203 704 144 704 q 261 646 261 704 l 261 58 q 203 0 261 0 z "},"í":{"ha":406,"x_min":133,"x_max":376,"o":"m 203 0 q 144 58 144 0 l 144 646 q 203 704 144 704 q 261 646 261 704 l 261 58 q 203 0 261 0 z "},"ĭ":{"ha":406,"x_min":32,"x_max":414,"o":"m 203 0 q 144 58 144 0 l 144 646 q 203 704 144 704 q 261 646 261 704 l 261 58 q 203 0 261 0 z "},"î":{"ha":406,"x_min":22,"x_max":383,"o":"m 203 0 q 144 58 144 0 l 144 646 q 203 704 144 704 q 261 646 261 704 l 261 58 q 203 0 261 0 z "},"ȉ":{"ha":406,"x_min":-7,"x_max":374,"o":"m 203 0 q 144 58 144 0 l 144 646 q 203 704 144 704 q 261 646 261 704 l 261 58 q 203 0 261 0 z "},"ï":{"ha":406,"x_min":15,"x_max":389,"o":"m 203 0 q 144 58 144 0 l 144 646 q 203 704 144 704 q 261 646 261 704 l 261 58 q 203 0 261 0 z "},"ị":{"ha":406,"x_min":117,"x_max":287,"o":"m 203 0 q 144 58 144 0 l 144 646 q 203 704 144 704 q 261 646 261 704 l 261 58 q 203 0 261 0 z "},"ì":{"ha":406,"x_min":57,"x_max":301,"o":"m 203 0 q 144 58 144 0 l 144 646 q 203 704 144 704 q 261 646 261 704 l 261 58 q 203 0 261 0 z "},"ỉ":{"ha":406,"x_min":83,"x_max":333,"o":"m 203 0 q 144 58 144 0 l 144 646 q 203 704 144 704 q 261 646 261 704 l 261 58 q 203 0 261 0 m 201 778 q 171 786 180 778 q 163 815 163 794 q 186 882 163 860 q 229 915 210 904 q 251 930 246 926 q 256 943 256 935 q 247 983 256 974 q 208 992 238 992 q 170 983 179 992 q 161 943 161 974 q 153 913 161 922 q 122 904 144 904 q 92 913 101 904 q 83 943 83 922 q 208 1068 83 1068 q 333 943 333 1068 q 310 879 333 901 q 269 847 288 858 q 245 831 250 836 q 240 815 240 825 q 232 786 240 794 q 201 778 224 778 z "},"ȋ":{"ha":406,"x_min":39,"x_max":365,"o":"m 203 0 q 144 58 144 0 l 144 646 q 203 704 144 704 q 261 646 261 704 l 261 58 q 203 0 261 0 z "},"ī":{"ha":406,"x_min":43,"x_max":363,"o":"m 203 0 q 144 58 144 0 l 144 646 q 203 704 144 704 q 261 646 261 704 l 261 58 q 203 0 261 0 m 100 825 q 43 881 43 825 q 100 938 43 938 l 306 938 q 363 881 363 938 q 306 825 363 825 l 100 825 z "},"į":{"ha":406,"x_min":54,"x_max":351,"o":"m 203 0 q 144 58 144 0 l 144 646 q 203 704 144 704 q 261 646 261 704 l 261 58 q 203 0 261 0 m 197 -261 q 95 -223 137 -261 q 54 -129 54 -185 q 64 -83 54 -107 q 89 -36 74 -58 l 163 71 q 204 92 177 92 q 240 77 225 92 q 254 40 254 63 q 244 11 254 26 l 171 -96 q 156 -129 156 -118 q 167 -151 156 -142 q 197 -160 178 -160 q 230 -150 215 -160 q 264 -126 245 -140 q 281 -117 272 -121 q 300 -112 290 -112 q 337 -127 322 -112 q 351 -162 351 -142 q 338 -199 351 -185 q 197 -261 275 -261 z "},"ĩ":{"ha":406,"x_min":14,"x_max":397,"o":"m 203 0 q 144 58 144 0 l 144 646 q 203 704 144 704 q 261 646 261 704 l 261 58 q 203 0 261 0 m 280 788 q 238 799 256 788 q 203 825 219 810 q 174 851 188 840 q 146 863 160 863 q 123 850 131 863 q 108 825 115 838 q 83 794 97 803 q 44 794 69 784 q 16 821 19 806 q 19 853 14 836 q 66 927 37 903 q 129 951 95 951 q 178 940 156 951 q 218 913 200 928 q 250 886 235 898 q 276 875 265 875 q 287 879 283 875 q 294 888 291 883 q 299 897 297 893 q 324 931 310 924 q 360 932 337 938 q 391 912 385 925 q 389 875 397 899 q 363 830 380 849 q 323 799 345 810 q 280 788 301 788 z "},"j":{"ha":406,"x_min":-7,"x_max":288,"o":"m 50 -278 q 7 -262 20 -278 q -7 -219 -7 -247 q 8 -176 -7 -191 q 50 -161 22 -161 q 125 -142 106 -161 q 144 -67 144 -123 l 144 646 q 203 704 144 704 q 261 646 261 704 l 261 -67 q 209 -226 261 -174 q 50 -278 158 -278 z "},"ȷ":{"ha":406,"x_min":-7,"x_max":261,"o":"m 50 -278 q 7 -262 20 -278 q -7 -219 -7 -247 q 8 -176 -7 -191 q 50 -161 22 -161 q 125 -142 106 -161 q 144 -67 144 -123 l 144 646 q 203 704 144 704 q 261 646 261 704 l 261 -67 q 209 -226 261 -174 q 50 -278 158 -278 z "},"ĵ":{"ha":406,"x_min":-7,"x_max":385,"o":"m 50 -278 q 7 -262 20 -278 q -7 -219 -7 -247 q 8 -176 -7 -191 q 50 -161 22 -161 q 125 -142 106 -161 q 144 -67 144 -123 l 144 646 q 203 704 144 704 q 261 646 261 704 l 261 -67 q 209 -226 261 -174 q 50 -278 158 -278 z "},"k":{"ha":706,"x_min":144,"x_max":712,"o":"m 203 0 q 144 58 144 0 l 144 919 q 203 978 144 978 q 261 919 261 978 l 261 398 l 592 682 q 674 676 636 720 q 668 594 712 632 l 415 376 l 657 100 q 653 18 696 55 q 569 24 608 -20 l 326 299 l 261 243 l 261 58 q 203 0 261 0 z "},"ķ":{"ha":706,"x_min":144,"x_max":712,"o":"m 203 0 q 144 58 144 0 l 144 919 q 203 978 144 978 q 261 919 261 978 l 261 398 l 592 682 q 674 676 636 720 q 668 594 712 632 l 415 376 l 657 100 q 653 18 696 55 q 569 24 608 -20 l 326 299 l 261 243 l 261 58 q 203 0 261 0 z "},"ĸ":{"ha":706,"x_min":144,"x_max":695,"o":"m 203 0 q 144 58 144 0 l 144 646 q 203 704 144 704 q 261 646 261 704 l 261 398 l 592 682 q 675 675 634 720 q 691 634 693 656 q 668 594 689 613 l 415 376 l 657 100 q 651 18 695 58 q 610 1 632 -1 q 569 22 588 3 l 326 299 l 261 243 l 261 58 q 203 0 261 0 z "},"l":{"ha":476,"x_min":144,"x_max":416,"o":"m 354 0 q 196 52 248 0 q 144 211 144 105 l 144 919 q 203 978 144 978 q 261 919 261 978 l 261 211 q 280 136 261 155 q 354 117 298 117 q 414 58 414 117 q 354 0 416 0 z "},"ĺ":{"ha":476,"x_min":144,"x_max":416,"o":"m 354 0 q 196 52 248 0 q 144 211 144 105 l 144 919 q 203 978 144 978 q 261 919 261 978 l 261 211 q 280 136 261 155 q 354 117 298 117 q 414 58 414 117 q 354 0 416 0 z "},"ľ":{"ha":582,"x_min":144,"x_max":519,"o":"m 354 0 q 196 52 248 0 q 144 211 144 105 l 144 919 q 203 978 144 978 q 261 919 261 978 l 261 211 q 280 136 261 155 q 354 117 298 117 q 414 58 414 117 q 354 0 416 0 z "},"ļ":{"ha":476,"x_min":144,"x_max":416,"o":"m 354 0 q 196 52 248 0 q 144 211 144 105 l 144 919 q 203 978 144 978 q 261 919 261 978 l 261 211 q 280 136 261 155 q 354 117 298 117 q 414 58 414 117 q 354 0 416 0 z "},"ŀ":{"ha":556,"x_min":144,"x_max":493,"o":"m 354 0 q 196 52 248 0 q 144 211 144 105 l 144 919 q 203 978 144 978 q 261 919 261 978 l 261 211 q 280 136 261 155 q 354 117 298 117 q 414 58 414 117 q 354 0 416 0 z "},"ǉ":{"ha":882,"x_min":144,"x_max":765,"o":"m 354 0 q 196 52 248 0 q 144 211 144 105 l 144 919 q 203 978 144 978 q 261 919 261 978 l 261 211 q 280 136 261 155 q 354 117 298 117 q 414 58 414 117 q 354 0 416 0 m 526 -278 q 483 -262 497 -278 q 469 -219 469 -247 q 484 -176 469 -191 q 526 -161 499 -161 q 602 -142 583 -161 q 621 -67 621 -123 l 621 646 q 679 704 621 704 q 738 646 738 704 l 738 -67 q 686 -226 738 -174 q 526 -278 634 -278 z "},"ł":{"ha":494,"x_min":6,"x_max":439,"o":"m 44 326 q 17 339 29 326 q 6 365 6 351 q 22 397 6 385 l 376 661 q 400 669 385 669 q 427 658 416 669 q 439 631 439 647 q 422 599 439 609 l 68 335 q 44 326 60 326 m 354 0 q 196 52 248 0 q 144 211 144 105 l 144 919 q 203 978 144 978 q 261 919 261 978 l 261 211 q 280 136 261 155 q 354 117 298 117 q 414 58 414 117 q 354 0 416 0 z "},"m":{"ha":1292,"x_min":144,"x_max":1161,"o":"m 915 704 q 1104 642 1047 704 q 1161 438 1161 581 l 1161 58 q 1103 0 1161 0 q 1044 58 1044 0 l 1044 438 q 1014 552 1044 517 q 915 588 984 588 l 858 588 q 745 552 779 588 q 711 438 711 517 l 711 58 q 653 0 711 0 q 594 58 594 0 l 594 438 q 564 552 594 517 q 465 588 534 588 l 408 588 q 295 552 329 588 q 261 438 261 517 l 261 58 q 203 0 261 0 q 144 58 144 0 l 144 646 q 203 704 144 704 q 261 646 261 704 l 261 614 q 342 683 298 662 q 447 704 386 704 l 465 704 q 601 680 551 704 q 676 603 650 656 q 754 681 713 658 q 858 704 795 704 l 915 704 z "},"ṁ":{"ha":1292,"x_min":144,"x_max":1161,"o":"m 915 704 q 1104 642 1047 704 q 1161 438 1161 581 l 1161 58 q 1103 0 1161 0 q 1044 58 1044 0 l 1044 438 q 1014 552 1044 517 q 915 588 984 588 l 858 588 q 745 552 779 588 q 711 438 711 517 l 711 58 q 653 0 711 0 q 594 58 594 0 l 594 438 q 564 552 594 517 q 465 588 534 588 l 408 588 q 295 552 329 588 q 261 438 261 517 l 261 58 q 203 0 261 0 q 144 58 144 0 l 144 646 q 203 704 144 704 q 261 646 261 704 l 261 614 q 342 683 298 662 q 447 704 386 704 l 465 704 q 601 680 551 704 q 676 603 650 656 q 754 681 713 658 q 858 704 795 704 l 915 704 z "},"n":{"ha":919,"x_min":144,"x_max":789,"o":"m 203 0 q 144 58 144 0 l 144 646 q 203 704 144 704 q 261 646 261 704 l 261 623 q 478 704 335 704 l 517 704 q 722 638 656 704 q 789 432 789 571 l 789 58 q 731 0 789 0 q 672 58 672 0 l 672 432 q 639 555 672 523 q 517 588 606 588 l 478 588 q 333 568 394 588 q 261 508 271 549 l 261 58 q 203 0 261 0 z "},"ń":{"ha":919,"x_min":144,"x_max":789,"o":"m 203 0 q 144 58 144 0 l 144 646 q 203 704 144 704 q 261 646 261 704 l 261 623 q 478 704 335 704 l 517 704 q 722 638 656 704 q 789 432 789 571 l 789 58 q 731 0 789 0 q 672 58 672 0 l 672 432 q 639 555 672 523 q 517 588 606 588 l 478 588 q 333 568 394 588 q 261 508 271 549 l 261 58 q 203 0 261 0 z "},"ň":{"ha":919,"x_min":144,"x_max":789,"o":"m 203 0 q 144 58 144 0 l 144 646 q 203 704 144 704 q 261 646 261 704 l 261 623 q 478 704 335 704 l 517 704 q 722 638 656 704 q 789 432 789 571 l 789 58 q 731 0 789 0 q 672 58 672 0 l 672 432 q 639 555 672 523 q 517 588 606 588 l 478 588 q 333 568 394 588 q 261 508 271 549 l 261 58 q 203 0 261 0 z "},"ņ":{"ha":919,"x_min":144,"x_max":789,"o":"m 203 0 q 144 58 144 0 l 144 646 q 203 704 144 704 q 261 646 261 704 l 261 623 q 478 704 335 704 l 517 704 q 722 638 656 704 q 789 432 789 571 l 789 58 q 731 0 789 0 q 672 58 672 0 l 672 432 q 639 555 672 523 q 517 588 606 588 l 478 588 q 333 568 394 588 q 261 508 271 549 l 261 58 q 203 0 261 0 z "},"ŋ":{"ha":919,"x_min":144,"x_max":789,"o":"m 456 -276 q 323 -244 375 -276 q 261 -150 270 -212 q 304 -89 253 -89 q 344 -101 328 -89 q 367 -132 360 -112 q 391 -153 373 -147 q 456 -160 409 -160 l 589 -160 q 657 -143 641 -160 q 672 -76 672 -127 l 672 432 q 639 555 672 523 q 517 588 606 588 l 478 588 q 333 568 394 588 q 261 508 271 549 l 261 58 q 203 0 261 0 q 144 58 144 0 l 144 646 q 203 704 144 704 q 261 646 261 704 l 261 623 q 478 704 335 704 l 517 704 q 722 638 656 704 q 789 432 789 571 l 789 -76 q 740 -227 789 -177 q 589 -276 691 -276 l 456 -276 z "},"ǌ":{"ha":1325,"x_min":144,"x_max":1208,"o":"m 203 0 q 144 58 144 0 l 144 646 q 203 704 144 704 q 261 646 261 704 l 261 623 q 478 704 335 704 l 517 704 q 722 638 656 704 q 789 432 789 571 l 789 58 q 731 0 789 0 q 672 58 672 0 l 672 432 q 639 555 672 523 q 517 588 606 588 l 478 588 q 333 568 394 588 q 261 508 271 549 l 261 58 q 203 0 261 0 m 969 -278 q 926 -262 940 -278 q 913 -219 913 -247 q 927 -176 913 -191 q 969 -161 942 -161 q 1045 -142 1026 -161 q 1064 -67 1064 -123 l 1064 646 q 1122 704 1064 704 q 1181 646 1181 704 l 1181 -67 q 1129 -226 1181 -174 q 969 -278 1077 -278 z "},"ñ":{"ha":919,"x_min":144,"x_max":789,"o":"m 203 0 q 144 58 144 0 l 144 646 q 203 704 144 704 q 261 646 261 704 l 261 623 q 478 704 335 704 l 517 704 q 722 638 656 704 q 789 432 789 571 l 789 58 q 731 0 789 0 q 672 58 672 0 l 672 432 q 639 555 672 523 q 517 588 606 588 l 478 588 q 333 568 394 588 q 261 508 271 549 l 261 58 q 203 0 261 0 z "},"o":{"ha":881,"x_min":111,"x_max":769,"o":"m 383 0 q 178 67 245 0 q 111 271 111 133 l 111 432 q 178 638 111 572 q 383 704 245 704 l 497 704 q 703 638 636 704 q 769 432 769 571 l 769 272 q 703 67 769 134 q 497 0 636 0 l 383 0 m 228 271 q 260 149 228 181 q 383 117 293 117 l 497 117 q 620 149 588 117 q 653 272 653 182 l 653 432 q 620 555 653 523 q 497 588 588 588 l 383 588 q 289 574 323 588 q 242 527 256 560 q 228 432 228 493 l 228 271 z "},"ó":{"ha":881,"x_min":111,"x_max":769,"o":"m 383 0 q 178 67 245 0 q 111 271 111 133 l 111 432 q 178 638 111 572 q 383 704 245 704 l 497 704 q 703 638 636 704 q 769 432 769 571 l 769 272 q 703 67 769 134 q 497 0 636 0 l 383 0 m 228 271 q 260 149 228 181 q 383 117 293 117 l 497 117 q 620 149 588 117 q 653 272 653 182 l 653 432 q 620 555 653 523 q 497 588 588 588 l 383 588 q 289 574 323 588 q 242 527 256 560 q 228 432 228 493 l 228 271 z "},"ŏ":{"ha":881,"x_min":111,"x_max":769,"o":"m 383 0 q 178 67 245 0 q 111 271 111 133 l 111 432 q 178 638 111 572 q 383 704 245 704 l 497 704 q 703 638 636 704 q 769 432 769 571 l 769 272 q 703 67 769 134 q 497 0 636 0 l 383 0 m 228 271 q 260 149 228 181 q 383 117 293 117 l 497 117 q 620 149 588 117 q 653 272 653 182 l 653 432 q 620 555 653 523 q 497 588 588 588 l 383 588 q 289 574 323 588 q 242 527 256 560 q 228 432 228 493 l 228 271 z "},"ô":{"ha":881,"x_min":111,"x_max":769,"o":"m 383 0 q 178 67 245 0 q 111 271 111 133 l 111 432 q 178 638 111 572 q 383 704 245 704 l 497 704 q 703 638 636 704 q 769 432 769 571 l 769 272 q 703 67 769 134 q 497 0 636 0 l 383 0 m 228 271 q 260 149 228 181 q 383 117 293 117 l 497 117 q 620 149 588 117 q 653 272 653 182 l 653 432 q 620 555 653 523 q 497 588 588 588 l 383 588 q 289 574 323 588 q 242 527 256 560 q 228 432 228 493 l 228 271 z "},"ố":{"ha":881,"x_min":111,"x_max":790,"o":"m 383 0 q 178 67 245 0 q 111 271 111 133 l 111 432 q 178 638 111 572 q 383 704 245 704 l 497 704 q 703 638 636 704 q 769 432 769 571 l 769 272 q 703 67 769 134 q 497 0 636 0 l 383 0 m 228 271 q 260 149 228 181 q 383 117 293 117 l 497 117 q 620 149 588 117 q 653 272 653 182 l 653 432 q 620 555 653 523 q 497 588 588 588 l 383 588 q 289 574 323 588 q 242 527 256 560 q 228 432 228 493 l 228 271 m 607 885 q 585 918 588 899 q 601 956 583 937 l 676 1033 q 747 1039 712 1069 q 754 968 790 1006 l 678 890 q 607 885 642 855 m 308 778 q 274 792 289 778 q 260 826 260 807 q 263 844 260 836 q 274 860 267 853 l 375 961 q 436 988 399 988 l 444 988 q 506 961 481 988 l 607 860 q 618 844 615 853 q 621 826 621 836 q 607 792 621 807 q 572 778 592 778 q 538 792 549 778 l 449 890 l 432 890 l 343 792 q 308 778 329 778 z "},"ộ":{"ha":881,"x_min":111,"x_max":769,"o":"m 383 0 q 178 67 245 0 q 111 271 111 133 l 111 432 q 178 638 111 572 q 383 704 245 704 l 497 704 q 703 638 636 704 q 769 432 769 571 l 769 272 q 703 67 769 134 q 497 0 636 0 l 383 0 m 228 271 q 260 149 228 181 q 383 117 293 117 l 497 117 q 620 149 588 117 q 653 272 653 182 l 653 432 q 620 555 653 523 q 497 588 588 588 l 383 588 q 289 574 323 588 q 242 527 256 560 q 228 432 228 493 l 228 271 z "},"ồ":{"ha":881,"x_min":99,"x_max":769,"o":"m 383 0 q 178 67 245 0 q 111 271 111 133 l 111 432 q 178 638 111 572 q 383 704 245 704 l 497 704 q 703 638 636 704 q 769 432 769 571 l 769 272 q 703 67 769 134 q 497 0 636 0 l 383 0 m 228 271 q 260 149 228 181 q 383 117 293 117 l 497 117 q 620 149 588 117 q 653 272 653 182 l 653 432 q 620 555 653 523 q 497 588 588 588 l 383 588 q 289 574 323 588 q 242 527 256 560 q 228 432 228 493 l 228 271 m 263 885 q 192 890 227 855 l 117 968 q 101 1005 99 986 q 122 1039 103 1024 q 193 1033 158 1069 l 269 956 q 285 918 288 937 q 263 885 283 899 m 307 778 q 273 792 288 778 q 258 826 258 807 q 262 844 258 836 q 272 860 265 853 l 374 961 q 435 988 398 988 l 443 988 q 504 961 480 988 l 606 860 q 616 844 613 853 q 619 826 619 836 q 605 792 619 807 q 571 778 591 778 q 536 792 548 778 l 447 890 l 431 890 l 342 792 q 307 778 328 778 z "},"ổ":{"ha":881,"x_min":111,"x_max":769,"o":"m 383 0 q 178 67 245 0 q 111 271 111 133 l 111 432 q 178 638 111 572 q 383 704 245 704 l 497 704 q 703 638 636 704 q 769 432 769 571 l 769 272 q 703 67 769 134 q 497 0 636 0 l 383 0 m 228 271 q 260 149 228 181 q 383 117 293 117 l 497 117 q 620 149 588 117 q 653 272 653 182 l 653 432 q 620 555 653 523 q 497 588 588 588 l 383 588 q 289 574 323 588 q 242 527 256 560 q 228 432 228 493 l 228 271 z "},"ỗ":{"ha":881,"x_min":111,"x_max":769,"o":"m 383 0 q 178 67 245 0 q 111 271 111 133 l 111 432 q 178 638 111 572 q 383 704 245 704 l 497 704 q 703 638 636 704 q 769 432 769 571 l 769 272 q 703 67 769 134 q 497 0 636 0 l 383 0 m 228 271 q 260 149 228 181 q 383 117 293 117 l 497 117 q 620 149 588 117 q 653 272 653 182 l 653 432 q 620 555 653 523 q 497 588 588 588 l 383 588 q 289 574 323 588 q 242 527 256 560 q 228 432 228 493 l 228 271 z "},"ȍ":{"ha":881,"x_min":111,"x_max":769,"o":"m 383 0 q 178 67 245 0 q 111 271 111 133 l 111 432 q 178 638 111 572 q 383 704 245 704 l 497 704 q 703 638 636 704 q 769 432 769 571 l 769 272 q 703 67 769 134 q 497 0 636 0 l 383 0 m 228 271 q 260 149 228 181 q 383 117 293 117 l 497 117 q 620 149 588 117 q 653 272 653 182 l 653 432 q 620 555 653 523 q 497 588 588 588 l 383 588 q 289 574 323 588 q 242 527 256 560 q 228 432 228 493 l 228 271 z "},"ö":{"ha":881,"x_min":111,"x_max":769,"o":"m 383 0 q 178 67 245 0 q 111 271 111 133 l 111 432 q 178 638 111 572 q 383 704 245 704 l 497 704 q 703 638 636 704 q 769 432 769 571 l 769 272 q 703 67 769 134 q 497 0 636 0 l 383 0 m 228 271 q 260 149 228 181 q 383 117 293 117 l 497 117 q 620 149 588 117 q 653 272 653 182 l 653 432 q 620 555 653 523 q 497 588 588 588 l 383 588 q 289 574 323 588 q 242 527 256 560 q 228 432 228 493 l 228 271 z "},"ȫ":{"ha":881,"x_min":111,"x_max":769,"o":"m 383 0 q 178 67 245 0 q 111 271 111 133 l 111 432 q 178 638 111 572 q 383 704 245 704 l 497 704 q 703 638 636 704 q 769 432 769 571 l 769 272 q 703 67 769 134 q 497 0 636 0 l 383 0 m 228 271 q 260 149 228 181 q 383 117 293 117 l 497 117 q 620 149 588 117 q 653 272 653 182 l 653 432 q 620 555 653 523 q 497 588 588 588 l 383 588 q 289 574 323 588 q 242 527 256 560 q 228 432 228 493 l 228 271 z "},"ȱ":{"ha":881,"x_min":111,"x_max":769,"o":"m 383 0 q 178 67 245 0 q 111 271 111 133 l 111 432 q 178 638 111 572 q 383 704 245 704 l 497 704 q 703 638 636 704 q 769 432 769 571 l 769 272 q 703 67 769 134 q 497 0 636 0 l 383 0 m 228 271 q 260 149 228 181 q 383 117 293 117 l 497 117 q 620 149 588 117 q 653 272 653 182 l 653 432 q 620 555 653 523 q 497 588 588 588 l 383 588 q 289 574 323 588 q 242 527 256 560 q 228 432 228 493 l 228 271 z "},"ọ":{"ha":881,"x_min":111,"x_max":769,"o":"m 383 0 q 178 67 245 0 q 111 271 111 133 l 111 432 q 178 638 111 572 q 383 704 245 704 l 497 704 q 703 638 636 704 q 769 432 769 571 l 769 272 q 703 67 769 134 q 497 0 636 0 l 383 0 m 228 271 q 260 149 228 181 q 383 117 293 117 l 497 117 q 620 149 588 117 q 653 272 653 182 l 653 432 q 620 555 653 523 q 497 588 588 588 l 383 588 q 289 574 323 588 q 242 527 256 560 q 228 432 228 493 l 228 271 z "},"ò":{"ha":881,"x_min":111,"x_max":769,"o":"m 383 0 q 178 67 245 0 q 111 271 111 133 l 111 432 q 178 638 111 572 q 383 704 245 704 l 497 704 q 703 638 636 704 q 769 432 769 571 l 769 272 q 703 67 769 134 q 497 0 636 0 l 383 0 m 228 271 q 260 149 228 181 q 383 117 293 117 l 497 117 q 620 149 588 117 q 653 272 653 182 l 653 432 q 620 555 653 523 q 497 588 588 588 l 383 588 q 289 574 323 588 q 242 527 256 560 q 228 432 228 493 l 228 271 z "},"ỏ":{"ha":881,"x_min":111,"x_max":769,"o":"m 383 0 q 178 67 245 0 q 111 271 111 133 l 111 432 q 178 638 111 572 q 383 704 245 704 l 497 704 q 703 638 636 704 q 769 432 769 571 l 769 272 q 703 67 769 134 q 497 0 636 0 l 383 0 m 228 271 q 260 149 228 181 q 383 117 293 117 l 497 117 q 620 149 588 117 q 653 272 653 182 l 653 432 q 620 555 653 523 q 497 588 588 588 l 383 588 q 289 574 323 588 q 242 527 256 560 q 228 432 228 493 l 228 271 m 440 778 q 410 786 419 778 q 401 815 401 794 q 425 882 401 860 q 468 915 449 904 q 490 930 485 926 q 494 943 494 935 q 485 983 494 974 q 447 992 476 992 q 409 983 418 992 q 400 943 400 974 q 392 913 400 922 q 361 904 383 904 q 331 913 340 904 q 322 943 322 922 q 447 1068 322 1068 q 572 943 572 1068 q 549 879 572 901 q 508 847 526 858 q 484 831 489 836 q 479 815 479 825 q 471 786 479 794 q 440 778 463 778 z "},"ơ":{"ha":881,"x_min":111,"x_max":847,"o":"m 383 0 q 178 67 245 0 q 111 271 111 133 l 111 432 q 178 638 111 572 q 383 704 245 704 l 497 704 q 703 638 636 704 q 769 432 769 571 l 769 272 q 703 67 769 134 q 497 0 636 0 l 383 0 m 228 271 q 260 149 228 181 q 383 117 293 117 l 497 117 q 620 149 588 117 q 653 272 653 182 l 653 432 q 620 555 653 523 q 497 588 588 588 l 383 588 q 289 574 323 588 q 242 527 256 560 q 228 432 228 493 l 228 271 m 668 542 l 668 626 q 724 635 709 626 q 739 671 739 644 l 739 707 q 793 743 739 743 q 847 689 847 743 l 847 671 q 819 590 847 617 q 750 552 791 562 q 668 542 708 542 z "},"ớ":{"ha":881,"x_min":111,"x_max":847,"o":"m 383 0 q 178 67 245 0 q 111 271 111 133 l 111 432 q 178 638 111 572 q 383 704 245 704 l 497 704 q 703 638 636 704 q 769 432 769 571 l 769 272 q 703 67 769 134 q 497 0 636 0 l 383 0 m 228 271 q 260 149 228 181 q 383 117 293 117 l 497 117 q 620 149 588 117 q 653 272 653 182 l 653 432 q 620 555 653 523 q 497 588 588 588 l 383 588 q 289 574 323 588 q 242 527 256 560 q 228 432 228 493 l 228 271 m 668 542 l 668 626 q 724 635 709 626 q 739 671 739 644 l 739 707 q 793 743 739 743 q 847 689 847 743 l 847 671 q 819 590 847 617 q 750 552 791 562 q 668 542 708 542 z "},"ợ":{"ha":881,"x_min":111,"x_max":847,"o":"m 383 0 q 178 67 245 0 q 111 271 111 133 l 111 432 q 178 638 111 572 q 383 704 245 704 l 497 704 q 703 638 636 704 q 769 432 769 571 l 769 272 q 703 67 769 134 q 497 0 636 0 l 383 0 m 228 271 q 260 149 228 181 q 383 117 293 117 l 497 117 q 620 149 588 117 q 653 272 653 182 l 653 432 q 620 555 653 523 q 497 588 588 588 l 383 588 q 289 574 323 588 q 242 527 256 560 q 228 432 228 493 l 228 271 m 668 542 l 668 626 q 724 635 709 626 q 739 671 739 644 l 739 707 q 793 743 739 743 q 847 689 847 743 l 847 671 q 819 590 847 617 q 750 552 791 562 q 668 542 708 542 z "},"ờ":{"ha":881,"x_min":111,"x_max":847,"o":"m 383 0 q 178 67 245 0 q 111 271 111 133 l 111 432 q 178 638 111 572 q 383 704 245 704 l 497 704 q 703 638 636 704 q 769 432 769 571 l 769 272 q 703 67 769 134 q 497 0 636 0 l 383 0 m 228 271 q 260 149 228 181 q 383 117 293 117 l 497 117 q 620 149 588 117 q 653 272 653 182 l 653 432 q 620 555 653 523 q 497 588 588 588 l 383 588 q 289 574 323 588 q 242 527 256 560 q 228 432 228 493 l 228 271 m 668 542 l 668 626 q 724 635 709 626 q 739 671 739 644 l 739 707 q 793 743 739 743 q 847 689 847 743 l 847 671 q 819 590 847 617 q 750 552 791 562 q 668 542 708 542 z "},"ở":{"ha":881,"x_min":111,"x_max":847,"o":"m 383 0 q 178 67 245 0 q 111 271 111 133 l 111 432 q 178 638 111 572 q 383 704 245 704 l 497 704 q 703 638 636 704 q 769 432 769 571 l 769 272 q 703 67 769 134 q 497 0 636 0 l 383 0 m 228 271 q 260 149 228 181 q 383 117 293 117 l 497 117 q 620 149 588 117 q 653 272 653 182 l 653 432 q 620 555 653 523 q 497 588 588 588 l 383 588 q 289 574 323 588 q 242 527 256 560 q 228 432 228 493 l 228 271 m 668 542 l 668 626 q 724 635 709 626 q 739 671 739 644 l 739 707 q 793 743 739 743 q 847 689 847 743 l 847 671 q 819 590 847 617 q 750 552 791 562 q 668 542 708 542 m 440 778 q 410 786 419 778 q 401 815 401 794 q 425 882 401 860 q 468 915 449 904 q 490 930 485 926 q 494 943 494 935 q 485 983 494 974 q 447 992 476 992 q 409 983 418 992 q 400 943 400 974 q 392 913 400 922 q 361 904 383 904 q 331 913 340 904 q 322 943 322 922 q 447 1068 322 1068 q 572 943 572 1068 q 549 879 572 901 q 508 847 526 858 q 484 831 489 836 q 479 815 479 825 q 471 786 479 794 q 440 778 463 778 z "},"ỡ":{"ha":881,"x_min":111,"x_max":847,"o":"m 383 0 q 178 67 245 0 q 111 271 111 133 l 111 432 q 178 638 111 572 q 383 704 245 704 l 497 704 q 703 638 636 704 q 769 432 769 571 l 769 272 q 703 67 769 134 q 497 0 636 0 l 383 0 m 228 271 q 260 149 228 181 q 383 117 293 117 l 497 117 q 620 149 588 117 q 653 272 653 182 l 653 432 q 620 555 653 523 q 497 588 588 588 l 383 588 q 289 574 323 588 q 242 527 256 560 q 228 432 228 493 l 228 271 m 668 542 l 668 626 q 724 635 709 626 q 739 671 739 644 l 739 707 q 793 743 739 743 q 847 689 847 743 l 847 671 q 819 590 847 617 q 750 552 791 562 q 668 542 708 542 z "},"ő":{"ha":881,"x_min":111,"x_max":769,"o":"m 383 0 q 178 67 245 0 q 111 271 111 133 l 111 432 q 178 638 111 572 q 383 704 245 704 l 497 704 q 703 638 636 704 q 769 432 769 571 l 769 272 q 703 67 769 134 q 497 0 636 0 l 383 0 m 228 271 q 260 149 228 181 q 383 117 293 117 l 497 117 q 620 149 588 117 q 653 272 653 182 l 653 432 q 620 555 653 523 q 497 588 588 588 l 383 588 q 289 574 323 588 q 242 527 256 560 q 228 432 228 493 l 228 271 z "},"ȏ":{"ha":881,"x_min":111,"x_max":769,"o":"m 383 0 q 178 67 245 0 q 111 271 111 133 l 111 432 q 178 638 111 572 q 383 704 245 704 l 497 704 q 703 638 636 704 q 769 432 769 571 l 769 272 q 703 67 769 134 q 497 0 636 0 l 383 0 m 228 271 q 260 149 228 181 q 383 117 293 117 l 497 117 q 620 149 588 117 q 653 272 653 182 l 653 432 q 620 555 653 523 q 497 588 588 588 l 383 588 q 289 574 323 588 q 242 527 256 560 q 228 432 228 493 l 228 271 z "},"ō":{"ha":881,"x_min":111,"x_max":769,"o":"m 383 0 q 178 67 245 0 q 111 271 111 133 l 111 432 q 178 638 111 572 q 383 704 245 704 l 497 704 q 703 638 636 704 q 769 432 769 571 l 769 272 q 703 67 769 134 q 497 0 636 0 l 383 0 m 228 271 q 260 149 228 181 q 383 117 293 117 l 497 117 q 620 149 588 117 q 653 272 653 182 l 653 432 q 620 555 653 523 q 497 588 588 588 l 383 588 q 289 574 323 588 q 242 527 256 560 q 228 432 228 493 l 228 271 z "},"ǫ":{"ha":881,"x_min":111,"x_max":769,"o":"m 383 0 q 178 67 245 0 q 111 271 111 133 l 111 432 q 178 638 111 572 q 383 704 245 704 l 497 704 q 703 638 636 704 q 769 432 769 571 l 769 272 q 703 67 769 134 q 497 0 636 0 l 383 0 m 228 271 q 260 149 228 181 q 383 117 293 117 l 497 117 q 620 149 588 117 q 653 272 653 182 l 653 432 q 620 555 653 523 q 497 588 588 588 l 383 588 q 289 574 323 588 q 242 527 256 560 q 228 432 228 493 l 228 271 m 626 -235 q 525 -197 566 -235 q 484 -104 484 -159 q 518 -10 484 -56 l 626 133 q 645 151 635 146 q 663 156 655 156 q 699 141 679 156 q 719 106 719 126 q 705 72 719 90 l 600 -69 q 584 -104 584 -90 q 596 -125 584 -117 q 626 -133 607 -133 q 649 -131 640 -133 q 666 -128 657 -129 q 675 -126 671 -126 q 683 -125 679 -125 q 725 -142 714 -125 q 736 -179 736 -158 q 730 -198 736 -188 q 712 -214 725 -208 q 671 -229 693 -223 q 626 -235 648 -235 z "},"ø":{"ha":881,"x_min":111,"x_max":769,"o":"m 163 -85 q 139 -54 143 -70 q 147 -17 135 -37 l 207 79 l 228 99 l 565 635 l 572 654 l 624 738 q 696 753 652 782 q 708 685 733 724 l 661 608 l 640 585 l 317 69 l 303 42 l 235 -68 q 163 -85 207 -115 m 383 0 q 178 67 245 0 q 111 271 111 133 l 111 432 q 178 638 111 572 q 383 704 245 704 l 497 704 q 703 638 636 704 q 769 432 769 571 l 769 272 q 703 67 769 134 q 497 0 636 0 l 383 0 m 228 271 q 260 149 228 181 q 383 117 293 117 l 497 117 q 620 149 588 117 q 653 272 653 182 l 653 432 q 620 555 653 523 q 497 588 588 588 l 383 588 q 289 574 323 588 q 242 527 256 560 q 228 432 228 493 l 228 271 z "},"ǿ":{"ha":881,"x_min":111,"x_max":769,"o":"m 163 -85 q 139 -54 143 -70 q 147 -17 135 -37 l 207 79 l 228 99 l 565 635 l 572 654 l 624 738 q 696 753 652 782 q 708 685 733 724 l 661 608 l 640 585 l 317 69 l 303 42 l 235 -68 q 163 -85 207 -115 m 383 0 q 178 67 245 0 q 111 271 111 133 l 111 432 q 178 638 111 572 q 383 704 245 704 l 497 704 q 703 638 636 704 q 769 432 769 571 l 769 272 q 703 67 769 134 q 497 0 636 0 l 383 0 m 228 271 q 260 149 228 181 q 383 117 293 117 l 497 117 q 620 149 588 117 q 653 272 653 182 l 653 432 q 620 555 653 523 q 497 588 588 588 l 383 588 q 289 574 323 588 q 242 527 256 560 q 228 432 228 493 l 228 271 z "},"õ":{"ha":881,"x_min":111,"x_max":769,"o":"m 383 0 q 178 67 245 0 q 111 271 111 133 l 111 432 q 178 638 111 572 q 383 704 245 704 l 497 704 q 703 638 636 704 q 769 432 769 571 l 769 272 q 703 67 769 134 q 497 0 636 0 l 383 0 m 228 271 q 260 149 228 181 q 383 117 293 117 l 497 117 q 620 149 588 117 q 653 272 653 182 l 653 432 q 620 555 653 523 q 497 588 588 588 l 383 588 q 289 574 323 588 q 242 527 256 560 q 228 432 228 493 l 228 271 z "},"ȭ":{"ha":881,"x_min":111,"x_max":769,"o":"m 383 0 q 178 67 245 0 q 111 271 111 133 l 111 432 q 178 638 111 572 q 383 704 245 704 l 497 704 q 703 638 636 704 q 769 432 769 571 l 769 272 q 703 67 769 134 q 497 0 636 0 l 383 0 m 228 271 q 260 149 228 181 q 383 117 293 117 l 497 117 q 620 149 588 117 q 653 272 653 182 l 653 432 q 620 555 653 523 q 497 588 588 588 l 383 588 q 289 574 323 588 q 242 527 256 560 q 228 432 228 493 l 228 271 z "},"œ":{"ha":1339,"x_min":111,"x_max":1228,"o":"m 383 -28 q 178 39 245 -28 q 111 243 111 106 l 111 399 q 178 605 111 538 q 383 672 245 672 l 456 672 q 582 649 528 672 q 668 560 635 626 q 754 649 701 626 q 878 672 806 672 l 961 672 q 1163 594 1099 672 q 1228 395 1228 517 q 1220 332 1228 351 q 1199 309 1212 313 q 1168 306 1185 306 l 728 306 l 728 247 q 760 122 728 155 q 876 89 792 89 l 961 89 q 1034 91 1008 89 q 1074 101 1060 92 q 1094 131 1087 110 q 1111 190 1101 152 q 1126 231 1117 213 q 1169 249 1136 249 q 1211 233 1194 249 q 1228 168 1228 217 q 1204 72 1228 109 q 1144 15 1181 35 q 1070 -15 1108 -6 q 1002 -26 1032 -24 q 961 -28 972 -28 l 876 -28 q 754 -4 806 -28 q 669 85 703 19 q 582 -4 635 19 q 456 -28 528 -28 l 383 -28 m 383 89 l 456 89 q 579 122 547 89 q 611 244 611 154 l 611 399 q 579 522 611 490 q 456 555 547 555 l 383 555 q 260 523 293 555 q 228 399 228 490 l 228 243 q 260 121 228 153 q 383 89 293 89 m 728 422 l 1110 422 q 1067 527 1101 499 q 961 555 1033 555 l 878 555 q 765 528 798 555 q 728 422 731 501 z "},"p":{"ha":914,"x_min":144,"x_max":803,"o":"m 203 -278 q 144 -219 144 -278 l 144 646 q 203 704 144 704 q 261 646 261 704 l 261 628 q 354 685 299 666 q 478 704 409 704 l 531 704 q 736 638 669 704 q 803 432 803 571 l 803 272 q 736 67 803 134 q 531 0 669 0 l 261 0 l 261 -219 q 203 -278 261 -278 m 261 117 l 531 117 q 654 149 622 117 q 686 272 686 182 l 686 432 q 654 555 686 523 q 531 588 622 588 l 478 588 q 328 567 391 588 q 261 501 265 546 l 261 117 z "},"ṗ":{"ha":914,"x_min":144,"x_max":803,"o":"m 203 -278 q 144 -219 144 -278 l 144 646 q 203 704 144 704 q 261 646 261 704 l 261 628 q 354 685 299 666 q 478 704 409 704 l 531 704 q 736 638 669 704 q 803 432 803 571 l 803 272 q 736 67 803 134 q 531 0 669 0 l 261 0 l 261 -219 q 203 -278 261 -278 m 261 117 l 531 117 q 654 149 622 117 q 686 272 686 182 l 686 432 q 654 555 686 523 q 531 588 622 588 l 478 588 q 328 567 391 588 q 261 501 265 546 l 261 117 z "},"þ":{"ha":914,"x_min":144,"x_max":803,"o":"m 203 -278 q 158 -265 171 -278 q 144 -219 144 -251 l 144 894 q 158 940 144 927 q 203 953 171 953 q 248 940 235 953 q 261 894 261 927 l 261 606 q 478 700 345 700 l 531 700 q 736 633 669 700 q 803 428 803 567 l 803 274 q 736 68 803 135 q 531 1 669 1 l 261 1 l 261 -219 q 248 -265 261 -251 q 203 -278 235 -278 m 261 118 l 531 118 q 654 151 622 118 q 686 274 686 183 l 686 428 q 654 551 686 519 q 531 583 622 583 l 478 583 q 313 547 365 583 q 261 433 261 510 l 261 118 z "},"q":{"ha":900,"x_min":111,"x_max":769,"o":"m 711 -278 q 653 -219 653 -278 l 653 0 l 383 0 q 178 67 245 0 q 111 272 111 134 l 111 432 q 178 638 111 571 q 383 704 245 704 l 436 704 q 568 684 514 704 q 653 626 622 663 l 653 646 q 711 704 653 704 q 769 646 769 704 l 769 -219 q 711 -278 769 -278 m 383 117 l 653 117 l 653 490 q 590 564 653 540 q 436 588 528 588 l 383 588 q 260 555 293 588 q 228 432 228 523 l 228 272 q 260 149 228 182 q 383 117 293 117 z "},"r":{"ha":593,"x_min":144,"x_max":569,"o":"m 203 0 q 144 58 144 0 l 144 646 q 203 704 144 704 q 261 646 261 704 l 261 592 q 366 676 302 647 q 511 704 429 704 q 569 646 569 704 q 511 588 569 588 q 328 543 391 588 q 261 426 265 499 l 261 58 q 203 0 261 0 z "},"ŕ":{"ha":593,"x_min":144,"x_max":569,"o":"m 203 0 q 144 58 144 0 l 144 646 q 203 704 144 704 q 261 646 261 704 l 261 592 q 366 676 302 647 q 511 704 429 704 q 569 646 569 704 q 511 588 569 588 q 328 543 391 588 q 261 426 265 499 l 261 58 q 203 0 261 0 z "},"ř":{"ha":593,"x_min":144,"x_max":569,"o":"m 203 0 q 144 58 144 0 l 144 646 q 203 704 144 704 q 261 646 261 704 l 261 592 q 366 676 302 647 q 511 704 429 704 q 569 646 569 704 q 511 588 569 588 q 328 543 391 588 q 261 426 265 499 l 261 58 q 203 0 261 0 z "},"ŗ":{"ha":593,"x_min":144,"x_max":569,"o":"m 203 0 q 144 58 144 0 l 144 646 q 203 704 144 704 q 261 646 261 704 l 261 592 q 366 676 302 647 q 511 704 429 704 q 569 646 569 704 q 511 588 569 588 q 328 543 391 588 q 261 426 265 499 l 261 58 q 203 0 261 0 z "},"ȑ":{"ha":593,"x_min":139,"x_max":569,"o":"m 203 0 q 144 58 144 0 l 144 646 q 203 704 144 704 q 261 646 261 704 l 261 592 q 366 676 302 647 q 511 704 429 704 q 569 646 569 704 q 511 588 569 588 q 328 543 391 588 q 261 426 265 499 l 261 58 q 203 0 261 0 z "},"ȓ":{"ha":593,"x_min":144,"x_max":569,"o":"m 203 0 q 144 58 144 0 l 144 646 q 203 704 144 704 q 261 646 261 704 l 261 592 q 366 676 302 647 q 511 704 429 704 q 569 646 569 704 q 511 588 569 588 q 328 543 391 588 q 261 426 265 499 l 261 58 q 203 0 261 0 z "},"s":{"ha":849,"x_min":99,"x_max":746,"o":"m 310 0 q 170 36 222 0 q 104 146 119 73 q 116 192 99 175 q 161 208 132 208 q 202 194 190 208 q 224 151 215 180 q 252 124 232 131 q 310 117 272 117 l 538 117 q 610 134 592 117 q 629 208 629 152 q 610 282 629 264 q 538 300 592 300 l 314 300 q 163 351 214 300 q 113 501 113 401 q 162 654 113 603 q 314 704 212 704 l 531 704 q 724 567 694 704 q 713 522 729 538 q 667 506 696 506 q 626 520 640 506 q 606 560 613 534 q 580 582 597 576 q 531 588 563 588 l 314 588 q 245 572 261 588 q 229 501 229 556 q 246 434 229 451 q 314 417 263 417 l 538 417 q 694 365 642 417 q 746 208 746 313 q 694 52 746 103 q 538 0 642 0 l 310 0 z "},"ś":{"ha":849,"x_min":99,"x_max":746,"o":"m 310 0 q 170 36 222 0 q 104 146 119 73 q 116 192 99 175 q 161 208 132 208 q 202 194 190 208 q 224 151 215 180 q 252 124 232 131 q 310 117 272 117 l 538 117 q 610 134 592 117 q 629 208 629 152 q 610 282 629 264 q 538 300 592 300 l 314 300 q 163 351 214 300 q 113 501 113 401 q 162 654 113 603 q 314 704 212 704 l 531 704 q 724 567 694 704 q 713 522 729 538 q 667 506 696 506 q 626 520 640 506 q 606 560 613 534 q 580 582 597 576 q 531 588 563 588 l 314 588 q 245 572 261 588 q 229 501 229 556 q 246 434 229 451 q 314 417 263 417 l 538 417 q 694 365 642 417 q 746 208 746 313 q 694 52 746 103 q 538 0 642 0 l 310 0 z "},"š":{"ha":849,"x_min":99,"x_max":746,"o":"m 310 0 q 170 36 222 0 q 104 146 119 73 q 116 192 99 175 q 161 208 132 208 q 202 194 190 208 q 224 151 215 180 q 252 124 232 131 q 310 117 272 117 l 538 117 q 610 134 592 117 q 629 208 629 152 q 610 282 629 264 q 538 300 592 300 l 314 300 q 163 351 214 300 q 113 501 113 401 q 162 654 113 603 q 314 704 212 704 l 531 704 q 724 567 694 704 q 713 522 729 538 q 667 506 696 506 q 626 520 640 506 q 606 560 613 534 q 580 582 597 576 q 531 588 563 588 l 314 588 q 245 572 261 588 q 229 501 229 556 q 246 434 229 451 q 314 417 263 417 l 538 417 q 694 365 642 417 q 746 208 746 313 q 694 52 746 103 q 538 0 642 0 l 310 0 z "},"ş":{"ha":849,"x_min":99,"x_max":746,"o":"m 310 0 q 170 36 222 0 q 104 146 119 73 q 116 192 99 175 q 161 208 132 208 q 202 194 190 208 q 224 151 215 180 q 252 124 232 131 q 310 117 272 117 l 538 117 q 610 134 592 117 q 629 208 629 152 q 610 282 629 264 q 538 300 592 300 l 314 300 q 163 351 214 300 q 113 501 113 401 q 162 654 113 603 q 314 704 212 704 l 531 704 q 724 567 694 704 q 713 522 729 538 q 667 506 696 506 q 626 520 640 506 q 606 560 613 534 q 580 582 597 576 q 531 588 563 588 l 314 588 q 245 572 261 588 q 229 501 229 556 q 246 434 229 451 q 314 417 263 417 l 538 417 q 694 365 642 417 q 746 208 746 313 q 694 52 746 103 q 538 0 642 0 l 310 0 z "},"ŝ":{"ha":849,"x_min":99,"x_max":746,"o":"m 310 0 q 170 36 222 0 q 104 146 119 73 q 116 192 99 175 q 161 208 132 208 q 202 194 190 208 q 224 151 215 180 q 252 124 232 131 q 310 117 272 117 l 538 117 q 610 134 592 117 q 629 208 629 152 q 610 282 629 264 q 538 300 592 300 l 314 300 q 163 351 214 300 q 113 501 113 401 q 162 654 113 603 q 314 704 212 704 l 531 704 q 724 567 694 704 q 713 522 729 538 q 667 506 696 506 q 626 520 640 506 q 606 560 613 534 q 580 582 597 576 q 531 588 563 588 l 314 588 q 245 572 261 588 q 229 501 229 556 q 246 434 229 451 q 314 417 263 417 l 538 417 q 694 365 642 417 q 746 208 746 313 q 694 52 746 103 q 538 0 642 0 l 310 0 z "},"ș":{"ha":849,"x_min":99,"x_max":746,"o":"m 310 0 q 170 36 222 0 q 104 146 119 73 q 116 192 99 175 q 161 208 132 208 q 202 194 190 208 q 224 151 215 180 q 252 124 232 131 q 310 117 272 117 l 538 117 q 610 134 592 117 q 629 208 629 152 q 610 282 629 264 q 538 300 592 300 l 314 300 q 163 351 214 300 q 113 501 113 401 q 162 654 113 603 q 314 704 212 704 l 531 704 q 724 567 694 704 q 713 522 729 538 q 667 506 696 506 q 626 520 640 506 q 606 560 613 534 q 580 582 597 576 q 531 588 563 588 l 314 588 q 245 572 261 588 q 229 501 229 556 q 246 434 229 451 q 314 417 263 417 l 538 417 q 694 365 642 417 q 746 208 746 313 q 694 52 746 103 q 538 0 642 0 l 310 0 z "},"ṡ":{"ha":849,"x_min":99,"x_max":746,"o":"m 310 0 q 170 36 222 0 q 104 146 119 73 q 116 192 99 175 q 161 208 132 208 q 202 194 190 208 q 224 151 215 180 q 252 124 232 131 q 310 117 272 117 l 538 117 q 610 134 592 117 q 629 208 629 152 q 610 282 629 264 q 538 300 592 300 l 314 300 q 163 351 214 300 q 113 501 113 401 q 162 654 113 603 q 314 704 212 704 l 531 704 q 724 567 694 704 q 713 522 729 538 q 667 506 696 506 q 626 520 640 506 q 606 560 613 534 q 580 582 597 576 q 531 588 563 588 l 314 588 q 245 572 261 588 q 229 501 229 556 q 246 434 229 451 q 314 417 263 417 l 538 417 q 694 365 642 417 q 746 208 746 313 q 694 52 746 103 q 538 0 642 0 l 310 0 z "},"ß":{"ha":815,"x_min":144,"x_max":740,"o":"m 203 0 q 144 58 144 0 l 144 721 q 208 915 144 851 q 401 978 272 978 q 594 915 531 978 q 657 722 657 851 q 636 626 657 672 q 553 549 615 580 q 699 466 657 525 q 740 314 740 407 l 740 269 q 674 66 740 131 q 471 0 608 0 l 386 0 q 328 58 328 0 q 386 117 328 117 l 471 117 q 592 148 560 117 q 624 269 624 180 l 624 314 q 592 435 624 403 q 471 467 560 467 l 460 467 q 401 526 401 467 q 458 586 401 580 q 523 626 506 594 q 540 722 540 658 q 511 832 540 803 q 401 861 483 861 q 290 832 319 861 q 261 721 261 803 l 261 58 q 203 0 261 0 z "},"t":{"ha":582,"x_min":47,"x_max":508,"o":"m 442 0 q 239 65 304 0 q 174 267 174 131 l 174 588 l 106 588 q 47 646 47 588 q 106 704 47 704 l 174 704 l 174 806 q 232 864 174 864 q 290 806 290 864 l 290 704 l 450 704 q 508 646 508 704 q 450 588 508 588 l 290 588 l 290 267 q 322 148 290 178 q 442 117 354 117 q 484 103 469 117 q 500 58 500 89 q 442 0 500 0 z "},"ŧ":{"ha":568,"x_min":47,"x_max":508,"o":"m 96 383 q 47 432 47 383 q 96 481 47 481 l 460 481 q 508 432 508 481 q 460 383 508 383 l 96 383 m 442 0 q 239 65 304 0 q 174 267 174 131 l 174 588 l 106 588 q 47 646 47 588 q 106 704 47 704 l 174 704 l 174 806 q 232 864 174 864 q 290 806 290 864 l 290 704 l 450 704 q 508 646 508 704 q 450 588 508 588 l 290 588 l 290 267 q 322 148 290 178 q 442 117 354 117 q 484 103 469 117 q 500 58 500 89 q 442 0 500 0 z "},"ť":{"ha":582,"x_min":47,"x_max":538,"o":"m 442 0 q 239 65 304 0 q 174 267 174 131 l 174 588 l 106 588 q 47 646 47 588 q 106 704 47 704 l 174 704 l 174 806 q 232 864 174 864 q 290 806 290 864 l 290 704 l 450 704 q 508 646 508 704 q 450 588 508 588 l 290 588 l 290 267 q 322 148 290 178 q 442 117 354 117 q 484 103 469 117 q 500 58 500 89 q 442 0 500 0 z "},"ţ":{"ha":582,"x_min":47,"x_max":508,"o":"m 442 0 q 239 65 304 0 q 174 267 174 131 l 174 588 l 106 588 q 47 646 47 588 q 106 704 47 704 l 174 704 l 174 806 q 232 864 174 864 q 290 806 290 864 l 290 704 l 450 704 q 508 646 508 704 q 450 588 508 588 l 290 588 l 290 267 q 322 148 290 178 q 442 117 354 117 q 484 103 469 117 q 500 58 500 89 q 442 0 500 0 z "},"ț":{"ha":582,"x_min":47,"x_max":508,"o":"m 442 0 q 239 65 304 0 q 174 267 174 131 l 174 588 l 106 588 q 47 646 47 588 q 106 704 47 704 l 174 704 l 174 806 q 232 864 174 864 q 290 806 290 864 l 290 704 l 450 704 q 508 646 508 704 q 450 588 508 588 l 290 588 l 290 267 q 322 148 290 178 q 442 117 354 117 q 484 103 469 117 q 500 58 500 89 q 442 0 500 0 z "},"ṫ":{"ha":582,"x_min":47,"x_max":508,"o":"m 442 0 q 239 65 304 0 q 174 267 174 131 l 174 588 l 106 588 q 47 646 47 588 q 106 704 47 704 l 174 704 l 174 806 q 232 864 174 864 q 290 806 290 864 l 290 704 l 450 704 q 508 646 508 704 q 450 588 508 588 l 290 588 l 290 267 q 322 148 290 178 q 442 117 354 117 q 484 103 469 117 q 500 58 500 89 q 442 0 500 0 z "},"u":{"ha":919,"x_min":131,"x_max":775,"o":"m 717 704 q 775 646 775 704 l 775 58 q 717 0 775 0 q 658 58 658 0 l 658 81 q 442 0 585 0 l 403 0 q 197 67 264 0 q 131 272 131 133 l 131 646 q 189 704 131 704 q 247 646 247 704 l 247 272 q 280 149 247 181 q 403 117 313 117 l 442 117 q 587 136 525 117 q 658 196 649 155 l 658 646 q 717 704 658 704 z "},"ú":{"ha":919,"x_min":131,"x_max":775,"o":"m 717 704 q 775 646 775 704 l 775 58 q 717 0 775 0 q 658 58 658 0 l 658 81 q 442 0 585 0 l 403 0 q 197 67 264 0 q 131 272 131 133 l 131 646 q 189 704 131 704 q 247 646 247 704 l 247 272 q 280 149 247 181 q 403 117 313 117 l 442 117 q 587 136 525 117 q 658 196 649 155 l 658 646 q 717 704 658 704 z "},"ŭ":{"ha":919,"x_min":131,"x_max":775,"o":"m 717 704 q 775 646 775 704 l 775 58 q 717 0 775 0 q 658 58 658 0 l 658 81 q 442 0 585 0 l 403 0 q 197 67 264 0 q 131 272 131 133 l 131 646 q 189 704 131 704 q 247 646 247 704 l 247 272 q 280 149 247 181 q 403 117 313 117 l 442 117 q 587 136 525 117 q 658 196 649 155 l 658 646 q 717 704 658 704 z "},"û":{"ha":919,"x_min":131,"x_max":775,"o":"m 717 704 q 775 646 775 704 l 775 58 q 717 0 775 0 q 658 58 658 0 l 658 81 q 442 0 585 0 l 403 0 q 197 67 264 0 q 131 272 131 133 l 131 646 q 189 704 131 704 q 247 646 247 704 l 247 272 q 280 149 247 181 q 403 117 313 117 l 442 117 q 587 136 525 117 q 658 196 649 155 l 658 646 q 717 704 658 704 z "},"ȕ":{"ha":919,"x_min":131,"x_max":775,"o":"m 717 704 q 775 646 775 704 l 775 58 q 717 0 775 0 q 658 58 658 0 l 658 81 q 442 0 585 0 l 403 0 q 197 67 264 0 q 131 272 131 133 l 131 646 q 189 704 131 704 q 247 646 247 704 l 247 272 q 280 149 247 181 q 403 117 313 117 l 442 117 q 587 136 525 117 q 658 196 649 155 l 658 646 q 717 704 658 704 z "},"ü":{"ha":919,"x_min":131,"x_max":775,"o":"m 717 704 q 775 646 775 704 l 775 58 q 717 0 775 0 q 658 58 658 0 l 658 81 q 442 0 585 0 l 403 0 q 197 67 264 0 q 131 272 131 133 l 131 646 q 189 704 131 704 q 247 646 247 704 l 247 272 q 280 149 247 181 q 403 117 313 117 l 442 117 q 587 136 525 117 q 658 196 649 155 l 658 646 q 717 704 658 704 z "},"ụ":{"ha":919,"x_min":131,"x_max":775,"o":"m 717 704 q 775 646 775 704 l 775 58 q 717 0 775 0 q 658 58 658 0 l 658 81 q 442 0 585 0 l 403 0 q 197 67 264 0 q 131 272 131 133 l 131 646 q 189 704 131 704 q 247 646 247 704 l 247 272 q 280 149 247 181 q 403 117 313 117 l 442 117 q 587 136 525 117 q 658 196 649 155 l 658 646 q 717 704 658 704 z "},"ù":{"ha":919,"x_min":131,"x_max":775,"o":"m 717 704 q 775 646 775 704 l 775 58 q 717 0 775 0 q 658 58 658 0 l 658 81 q 442 0 585 0 l 403 0 q 197 67 264 0 q 131 272 131 133 l 131 646 q 189 704 131 704 q 247 646 247 704 l 247 272 q 280 149 247 181 q 403 117 313 117 l 442 117 q 587 136 525 117 q 658 196 649 155 l 658 646 q 717 704 658 704 z "},"ủ":{"ha":919,"x_min":131,"x_max":775,"o":"m 717 704 q 775 646 775 704 l 775 58 q 717 0 775 0 q 658 58 658 0 l 658 81 q 442 0 585 0 l 403 0 q 197 67 264 0 q 131 272 131 133 l 131 646 q 189 704 131 704 q 247 646 247 704 l 247 272 q 280 149 247 181 q 403 117 313 117 l 442 117 q 587 136 525 117 q 658 196 649 155 l 658 646 q 717 704 658 704 m 456 778 q 425 786 434 778 q 417 815 417 794 q 441 882 417 860 q 483 915 465 904 q 505 930 500 926 q 510 943 510 935 q 501 983 510 974 q 463 992 492 992 q 424 983 433 992 q 415 943 415 974 q 407 913 415 922 q 376 904 399 904 q 346 913 355 904 q 338 943 338 922 q 463 1068 338 1068 q 588 943 588 1068 q 565 879 588 901 q 524 847 542 858 q 499 831 504 836 q 494 815 494 825 q 486 786 494 794 q 456 778 478 778 z "},"ư":{"ha":919,"x_min":131,"x_max":892,"o":"m 717 704 q 775 646 775 704 l 775 58 q 717 0 775 0 q 658 58 658 0 l 658 81 q 442 0 585 0 l 403 0 q 197 67 264 0 q 131 272 131 133 l 131 646 q 189 704 131 704 q 247 646 247 704 l 247 272 q 280 149 247 181 q 403 117 313 117 l 442 117 q 587 136 525 117 q 658 196 649 155 l 658 646 q 717 704 658 704 m 713 619 l 713 704 q 768 713 753 704 q 783 749 783 722 l 783 785 q 838 821 783 821 q 892 767 892 821 l 892 749 q 864 667 892 695 q 794 630 835 640 q 713 619 753 619 z "},"ứ":{"ha":919,"x_min":131,"x_max":892,"o":"m 717 704 q 775 646 775 704 l 775 58 q 717 0 775 0 q 658 58 658 0 l 658 81 q 442 0 585 0 l 403 0 q 197 67 264 0 q 131 272 131 133 l 131 646 q 189 704 131 704 q 247 646 247 704 l 247 272 q 280 149 247 181 q 403 117 313 117 l 442 117 q 587 136 525 117 q 658 196 649 155 l 658 646 q 717 704 658 704 m 713 619 l 713 704 q 768 713 753 704 q 783 749 783 722 l 783 785 q 838 821 783 821 q 892 767 892 821 l 892 749 q 864 667 892 695 q 794 630 835 640 q 713 619 753 619 z "},"ự":{"ha":919,"x_min":131,"x_max":892,"o":"m 717 704 q 775 646 775 704 l 775 58 q 717 0 775 0 q 658 58 658 0 l 658 81 q 442 0 585 0 l 403 0 q 197 67 264 0 q 131 272 131 133 l 131 646 q 189 704 131 704 q 247 646 247 704 l 247 272 q 280 149 247 181 q 403 117 313 117 l 442 117 q 587 136 525 117 q 658 196 649 155 l 658 646 q 717 704 658 704 m 713 619 l 713 704 q 768 713 753 704 q 783 749 783 722 l 783 785 q 838 821 783 821 q 892 767 892 821 l 892 749 q 864 667 892 695 q 794 630 835 640 q 713 619 753 619 z "},"ừ":{"ha":919,"x_min":131,"x_max":892,"o":"m 717 704 q 775 646 775 704 l 775 58 q 717 0 775 0 q 658 58 658 0 l 658 81 q 442 0 585 0 l 403 0 q 197 67 264 0 q 131 272 131 133 l 131 646 q 189 704 131 704 q 247 646 247 704 l 247 272 q 280 149 247 181 q 403 117 313 117 l 442 117 q 587 136 525 117 q 658 196 649 155 l 658 646 q 717 704 658 704 m 713 619 l 713 704 q 768 713 753 704 q 783 749 783 722 l 783 785 q 838 821 783 821 q 892 767 892 821 l 892 749 q 864 667 892 695 q 794 630 835 640 q 713 619 753 619 z "},"ử":{"ha":919,"x_min":131,"x_max":892,"o":"m 717 704 q 775 646 775 704 l 775 58 q 717 0 775 0 q 658 58 658 0 l 658 81 q 442 0 585 0 l 403 0 q 197 67 264 0 q 131 272 131 133 l 131 646 q 189 704 131 704 q 247 646 247 704 l 247 272 q 280 149 247 181 q 403 117 313 117 l 442 117 q 587 136 525 117 q 658 196 649 155 l 658 646 q 717 704 658 704 m 713 619 l 713 704 q 768 713 753 704 q 783 749 783 722 l 783 785 q 838 821 783 821 q 892 767 892 821 l 892 749 q 864 667 892 695 q 794 630 835 640 q 713 619 753 619 m 456 778 q 425 786 434 778 q 417 815 417 794 q 441 882 417 860 q 483 915 465 904 q 505 930 500 926 q 510 943 510 935 q 501 983 510 974 q 463 992 492 992 q 424 983 433 992 q 415 943 415 974 q 407 913 415 922 q 376 904 399 904 q 346 913 355 904 q 338 943 338 922 q 463 1068 338 1068 q 588 943 588 1068 q 565 879 588 901 q 524 847 542 858 q 499 831 504 836 q 494 815 494 825 q 486 786 494 794 q 456 778 478 778 z "},"ữ":{"ha":919,"x_min":131,"x_max":892,"o":"m 717 704 q 775 646 775 704 l 775 58 q 717 0 775 0 q 658 58 658 0 l 658 81 q 442 0 585 0 l 403 0 q 197 67 264 0 q 131 272 131 133 l 131 646 q 189 704 131 704 q 247 646 247 704 l 247 272 q 280 149 247 181 q 403 117 313 117 l 442 117 q 587 136 525 117 q 658 196 649 155 l 658 646 q 717 704 658 704 m 713 619 l 713 704 q 768 713 753 704 q 783 749 783 722 l 783 785 q 838 821 783 821 q 892 767 892 821 l 892 749 q 864 667 892 695 q 794 630 835 640 q 713 619 753 619 z "},"ű":{"ha":919,"x_min":131,"x_max":775,"o":"m 717 704 q 775 646 775 704 l 775 58 q 717 0 775 0 q 658 58 658 0 l 658 81 q 442 0 585 0 l 403 0 q 197 67 264 0 q 131 272 131 133 l 131 646 q 189 704 131 704 q 247 646 247 704 l 247 272 q 280 149 247 181 q 403 117 313 117 l 442 117 q 587 136 525 117 q 658 196 649 155 l 658 646 q 717 704 658 704 z "},"ȗ":{"ha":919,"x_min":131,"x_max":775,"o":"m 717 704 q 775 646 775 704 l 775 58 q 717 0 775 0 q 658 58 658 0 l 658 81 q 442 0 585 0 l 403 0 q 197 67 264 0 q 131 272 131 133 l 131 646 q 189 704 131 704 q 247 646 247 704 l 247 272 q 280 149 247 181 q 403 117 313 117 l 442 117 q 587 136 525 117 q 658 196 649 155 l 658 646 q 717 704 658 704 z "},"ū":{"ha":919,"x_min":131,"x_max":775,"o":"m 717 704 q 775 646 775 704 l 775 58 q 717 0 775 0 q 658 58 658 0 l 658 81 q 442 0 585 0 l 403 0 q 197 67 264 0 q 131 272 131 133 l 131 646 q 189 704 131 704 q 247 646 247 704 l 247 272 q 280 149 247 181 q 403 117 313 117 l 442 117 q 587 136 525 117 q 658 196 649 155 l 658 646 q 717 704 658 704 z "},"ų":{"ha":919,"x_min":131,"x_max":871,"o":"m 717 704 q 775 646 775 704 l 775 58 q 717 0 775 0 q 658 58 658 0 l 658 81 q 442 0 585 0 l 403 0 q 197 67 264 0 q 131 272 131 133 l 131 646 q 189 704 131 704 q 247 646 247 704 l 247 272 q 280 149 247 181 q 403 117 313 117 l 442 117 q 587 136 525 117 q 658 196 649 155 l 658 646 q 717 704 658 704 m 717 -253 q 615 -216 656 -253 q 574 -122 574 -178 q 583 -75 574 -99 q 608 -28 593 -51 l 682 78 q 724 99 697 99 q 759 85 744 99 q 774 48 774 70 q 764 19 774 33 l 690 -88 q 675 -122 675 -110 q 686 -143 675 -135 q 717 -152 698 -152 q 750 -142 735 -152 q 783 -119 765 -132 q 800 -109 791 -113 q 819 -105 809 -105 q 856 -119 842 -105 q 871 -155 871 -134 q 857 -191 871 -177 q 717 -253 794 -253 z "},"ů":{"ha":919,"x_min":131,"x_max":775,"o":"m 717 704 q 775 646 775 704 l 775 58 q 717 0 775 0 q 658 58 658 0 l 658 81 q 442 0 585 0 l 403 0 q 197 67 264 0 q 131 272 131 133 l 131 646 q 189 704 131 704 q 247 646 247 704 l 247 272 q 280 149 247 181 q 403 117 313 117 l 442 117 q 587 136 525 117 q 658 196 649 155 l 658 646 q 717 704 658 704 z "},"ũ":{"ha":919,"x_min":131,"x_max":775,"o":"m 717 704 q 775 646 775 704 l 775 58 q 717 0 775 0 q 658 58 658 0 l 658 81 q 442 0 585 0 l 403 0 q 197 67 264 0 q 131 272 131 133 l 131 646 q 189 704 131 704 q 247 646 247 704 l 247 272 q 280 149 247 181 q 403 117 313 117 l 442 117 q 587 136 525 117 q 658 196 649 155 l 658 646 q 717 704 658 704 z "},"v":{"ha":731,"x_min":30,"x_max":699,"o":"m 419 43 q 394 11 410 22 q 353 0 378 0 q 290 46 309 0 l 54 621 q 85 697 30 676 q 161 667 137 722 l 382 128 l 328 128 l 569 669 q 602 701 581 692 q 647 697 622 709 q 675 619 699 673 l 419 43 z "},"w":{"ha":1043,"x_min":33,"x_max":1010,"o":"m 306 0 q 244 47 260 0 l 51 628 q 89 700 33 681 q 163 663 144 719 l 319 195 l 310 195 l 458 663 q 525 708 474 708 q 588 660 574 708 l 726 200 l 720 200 l 881 664 q 956 700 901 720 q 990 625 1010 681 l 779 47 q 714 0 762 0 q 650 49 665 0 l 507 526 l 522 526 l 367 47 q 344 12 360 24 q 306 0 328 0 z "},"ẃ":{"ha":1043,"x_min":33,"x_max":1010,"o":"m 306 0 q 244 47 260 0 l 51 628 q 89 700 33 681 q 163 663 144 719 l 319 195 l 310 195 l 458 663 q 525 708 474 708 q 588 660 574 708 l 726 200 l 720 200 l 881 664 q 956 700 901 720 q 990 625 1010 681 l 779 47 q 714 0 762 0 q 650 49 665 0 l 507 526 l 522 526 l 367 47 q 344 12 360 24 q 306 0 328 0 z "},"ŵ":{"ha":1043,"x_min":33,"x_max":1010,"o":"m 306 0 q 244 47 260 0 l 51 628 q 89 700 33 681 q 163 663 144 719 l 319 195 l 310 195 l 458 663 q 525 708 474 708 q 588 660 574 708 l 726 200 l 720 200 l 881 664 q 956 700 901 720 q 990 625 1010 681 l 779 47 q 714 0 762 0 q 650 49 665 0 l 507 526 l 522 526 l 367 47 q 344 12 360 24 q 306 0 328 0 z "},"ẅ":{"ha":1043,"x_min":33,"x_max":1010,"o":"m 306 0 q 244 47 260 0 l 51 628 q 89 700 33 681 q 163 663 144 719 l 319 195 l 310 195 l 458 663 q 525 708 474 708 q 588 660 574 708 l 726 200 l 720 200 l 881 664 q 956 700 901 720 q 990 625 1010 681 l 779 47 q 714 0 762 0 q 650 49 665 0 l 507 526 l 522 526 l 367 47 q 344 12 360 24 q 306 0 328 0 z "},"ẁ":{"ha":1043,"x_min":33,"x_max":1010,"o":"m 306 0 q 244 47 260 0 l 51 628 q 89 700 33 681 q 163 663 144 719 l 319 195 l 310 195 l 458 663 q 525 708 474 708 q 588 660 574 708 l 726 200 l 720 200 l 881 664 q 956 700 901 720 q 990 625 1010 681 l 779 47 q 714 0 762 0 q 650 49 665 0 l 507 526 l 522 526 l 367 47 q 344 12 360 24 q 306 0 328 0 z "},"x":{"ha":740,"x_min":56,"x_max":695,"o":"m 101 14 q 89 96 56 49 l 294 385 l 124 608 q 135 689 87 654 q 215 679 180 726 l 376 469 l 535 679 q 617 690 569 727 q 628 608 663 656 l 449 374 l 661 97 q 651 15 695 51 q 569 26 604 -22 l 369 288 l 183 28 q 101 14 149 -20 z "},"y":{"ha":944,"x_min":131,"x_max":800,"o":"m 331 -278 q 180 -227 230 -278 q 131 -76 131 -177 q 189 -18 131 -18 q 247 -76 247 -18 q 263 -145 247 -128 q 331 -161 278 -161 l 600 -161 q 667 -145 651 -161 q 683 -76 683 -128 l 683 100 q 586 19 642 38 q 467 0 531 0 l 399 0 q 196 65 261 0 q 131 267 131 131 l 131 646 q 189 704 131 704 q 247 646 247 704 l 247 267 q 279 148 247 179 q 399 117 310 117 l 467 117 q 632 154 581 117 q 683 267 683 191 l 683 646 q 742 704 683 704 q 800 646 800 704 l 800 -76 q 750 -227 800 -177 q 600 -278 700 -278 l 331 -278 z "},"ý":{"ha":944,"x_min":131,"x_max":800,"o":"m 331 -278 q 180 -227 230 -278 q 131 -76 131 -177 q 189 -18 131 -18 q 247 -76 247 -18 q 263 -145 247 -128 q 331 -161 278 -161 l 600 -161 q 667 -145 651 -161 q 683 -76 683 -128 l 683 100 q 586 19 642 38 q 467 0 531 0 l 399 0 q 196 65 261 0 q 131 267 131 131 l 131 646 q 189 704 131 704 q 247 646 247 704 l 247 267 q 279 148 247 179 q 399 117 310 117 l 467 117 q 632 154 581 117 q 683 267 683 191 l 683 646 q 742 704 683 704 q 800 646 800 704 l 800 -76 q 750 -227 800 -177 q 600 -278 700 -278 l 331 -278 z "},"ŷ":{"ha":944,"x_min":131,"x_max":800,"o":"m 331 -278 q 180 -227 230 -278 q 131 -76 131 -177 q 189 -18 131 -18 q 247 -76 247 -18 q 263 -145 247 -128 q 331 -161 278 -161 l 600 -161 q 667 -145 651 -161 q 683 -76 683 -128 l 683 100 q 586 19 642 38 q 467 0 531 0 l 399 0 q 196 65 261 0 q 131 267 131 131 l 131 646 q 189 704 131 704 q 247 646 247 704 l 247 267 q 279 148 247 179 q 399 117 310 117 l 467 117 q 632 154 581 117 q 683 267 683 191 l 683 646 q 742 704 683 704 q 800 646 800 704 l 800 -76 q 750 -227 800 -177 q 600 -278 700 -278 l 331 -278 z "},"ÿ":{"ha":944,"x_min":131,"x_max":800,"o":"m 331 -278 q 180 -227 230 -278 q 131 -76 131 -177 q 189 -18 131 -18 q 247 -76 247 -18 q 263 -145 247 -128 q 331 -161 278 -161 l 600 -161 q 667 -145 651 -161 q 683 -76 683 -128 l 683 100 q 586 19 642 38 q 467 0 531 0 l 399 0 q 196 65 261 0 q 131 267 131 131 l 131 646 q 189 704 131 704 q 247 646 247 704 l 247 267 q 279 148 247 179 q 399 117 310 117 l 467 117 q 632 154 581 117 q 683 267 683 191 l 683 646 q 742 704 683 704 q 800 646 800 704 l 800 -76 q 750 -227 800 -177 q 600 -278 700 -278 l 331 -278 z "},"ỵ":{"ha":944,"x_min":131,"x_max":1000,"o":"m 331 -278 q 180 -227 230 -278 q 131 -76 131 -177 q 189 -18 131 -18 q 247 -76 247 -18 q 263 -145 247 -128 q 331 -161 278 -161 l 600 -161 q 667 -145 651 -161 q 683 -76 683 -128 l 683 100 q 586 19 642 38 q 467 0 531 0 l 399 0 q 196 65 261 0 q 131 267 131 131 l 131 646 q 189 704 131 704 q 247 646 247 704 l 247 267 q 279 148 247 179 q 399 117 310 117 l 467 117 q 632 154 581 117 q 683 267 683 191 l 683 646 q 742 704 683 704 q 800 646 800 704 l 800 -76 q 750 -227 800 -177 q 600 -278 700 -278 l 331 -278 z "}}}
